<svg width="1089" height="1914" viewBox="0 0 1089 1914" fill="none" xmlns="http://www.w3.org/2000/svg">
<g opacity="0.1" filter="url(#filter0_f)">
<g opacity="0.5" filter="url(#filter1_f)">
<path fill-rule="evenodd" clip-rule="evenodd" d="M392.174 456.518C153.139 339.177 -143.424 385.937 -318.29 586.29C-478.716 770.098 -421.313 1036.95 -298.745 1248.14C-184.854 1444.38 16.1335 1586.93 239.575 1547.51C473.681 1506.21 645.778 1310.93 678.68 1075.7C713.484 826.873 618.008 567.379 392.174 456.518Z" fill="url(#paint0_linear)"/>
</g>
<g filter="url(#filter2_f)">
<path fill-rule="evenodd" clip-rule="evenodd" d="M397.263 354.358C525.442 411.072 640.735 520.288 624.287 659.67C607.633 800.799 470.835 882.759 331.613 910.687C189.349 939.226 26.8851 920.276 -44.1533 793.759C-116.255 665.349 -57.1259 508.364 47.3285 404.387C139.732 312.405 278.184 301.67 397.263 354.358Z" fill="url(#paint1_linear)"/>
</g>
</g>
<defs>
<filter id="filter0_f" x="-784.001" y="50.8335" width="1822.12" height="1812.49" filterUnits="userSpaceOnUse" color-interpolation-filters="sRGB">
<feFlood flood-opacity="0" result="BackgroundImageFix"/>
<feBlend mode="normal" in="SourceGraphic" in2="BackgroundImageFix" result="shape"/>
<feGaussianBlur stdDeviation="75" result="effect1_foregroundBlur"/>
</filter>
<filter id="filter1_f" x="-834.001" y="0.833496" width="1922.12" height="1912.49" filterUnits="userSpaceOnUse" color-interpolation-filters="sRGB">
<feFlood flood-opacity="0" result="BackgroundImageFix"/>
<feBlend mode="normal" in="SourceGraphic" in2="BackgroundImageFix" result="shape"/>
<feGaussianBlur stdDeviation="100" result="effect1_foregroundBlur"/>
</filter>
<filter id="filter2_f" x="-261.913" y="117.249" width="1073.25" height="1052.77" filterUnits="userSpaceOnUse" color-interpolation-filters="sRGB">
<feFlood flood-opacity="0" result="BackgroundImageFix"/>
<feBlend mode="normal" in="SourceGraphic" in2="BackgroundImageFix" result="shape"/>
<feGaussianBlur stdDeviation="50" result="effect1_foregroundBlur"/>
</filter>
<linearGradient id="paint0_linear" x1="366.342" y1="444.331" x2="-112.22" y2="1469.82" gradientUnits="userSpaceOnUse">
<stop stop-color="#FF2D46"/>
<stop offset="1" stop-color="#F58A25" stop-opacity="0"/>
<stop offset="1" stop-color="#A3616D" stop-opacity="0"/>
</linearGradient>
<linearGradient id="paint1_linear" x1="407.528" y1="359.025" x2="141.894" y2="928.24" gradientUnits="userSpaceOnUse">
<stop stop-color="#FF2D46"/>
<stop offset="1" stop-color="#F58A25" stop-opacity="0"/>
<stop offset="1" stop-color="#A3616D" stop-opacity="0"/>
</linearGradient>
</defs>
</svg>
