<svg width="24" height="25" viewBox="0 0 24 25" fill="none" xmlns="http://www.w3.org/2000/svg">
<path fill-rule="evenodd" clip-rule="evenodd" d="M17.6842 1.00009L22.1052 2.26325C23.3157 2.2981 24 3.16079 24 4.15799C24 15.7074 14.64 25.0048 3.15786 25.0001C2.15838 25.0001 1.29597 24.3156 1.26312 23.1054L-3.42876e-05 18.6843C-0.175762 17.9063 0.344498 16.8748 1.26312 16.158L6.31575 14.2633C6.93447 14.0523 7.96562 14.3055 8.84207 14.8948L10.1052 16.7896C12.5542 15.5808 14.579 13.5553 15.7894 11.1054L13.8947 9.8422C13.3088 8.96523 13.0557 7.93374 13.2631 7.31588L15.1579 2.26325C15.8773 1.34632 16.9085 0.821202 17.6842 1.00009ZM2.52628 18.6843L3.78944 23.1054C13.762 23.0582 22.0581 14.7622 22.1052 4.78957L17.6842 3.52641L15.7894 7.94746L18.9473 10.4738C16.8713 15.4405 14.431 17.8714 9.47365 19.9475L6.94733 16.7896L2.52628 18.6843Z" fill="#FF657B"/>
</svg>
