<svg width="412" height="391" viewBox="0 0 412 391" fill="none" xmlns="http://www.w3.org/2000/svg">
<path d="M74.0196 3.42224C40.18 3.42224 12.748 30.8526 12.748 64.6902V165.074C12.748 166.744 14.1019 168.098 15.7719 168.098C17.442 168.098 18.7959 166.744 18.7959 165.074V64.6902C18.7959 34.1925 43.521 9.46974 74.0196 9.46974H195.414V3.42224H74.0196Z" fill="#50A866"/>
<path d="M338.499 3.42224H219.604V9.46974H338.499C368.998 9.46974 393.723 34.1934 393.723 64.6902V147.268C393.723 148.938 395.076 150.291 396.747 150.291C398.417 150.291 399.771 148.938 399.771 147.268V64.6902C399.771 30.8526 372.338 3.42224 338.499 3.42224Z" fill="#50A866"/>
<path d="M207.51 12.1573C210.664 12.1573 213.221 9.60034 213.221 6.44611C213.221 3.29187 210.664 0.734863 207.51 0.734863C204.356 0.734863 201.798 3.29187 201.798 6.44611C201.798 9.60034 204.356 12.1573 207.51 12.1573Z" fill="#50A866"/>
<path d="M411.865 179.117C411.865 170.396 404.444 163.378 395.586 164.042C388.261 164.592 382.32 170.458 381.685 177.777C381.153 183.926 384.327 189.404 389.219 192.225C391.984 193.818 393.723 196.729 393.723 199.919V201.559H399.77V199.919C399.77 196.774 401.425 193.835 404.162 192.288C408.757 189.69 411.865 184.76 411.865 179.117ZM396.747 188.187C391.744 188.187 387.676 184.118 387.676 179.117C387.676 174.115 391.745 170.046 396.747 170.046C401.748 170.046 405.817 174.115 405.817 179.117C405.817 184.118 401.748 188.187 396.747 188.187Z" fill="#FF6666"/>
<path d="M396.747 184.828C399.901 184.828 402.458 182.271 402.458 179.117C402.458 175.962 399.901 173.405 396.747 173.405C393.592 173.405 391.035 175.962 391.035 179.117C391.035 182.271 393.592 184.828 396.747 184.828Z" fill="#FF6666"/>
<path d="M411.865 213.652C411.865 204.932 404.444 197.912 395.585 198.578C388.26 199.128 382.319 204.995 381.685 212.312C381.153 218.461 384.327 223.94 389.219 226.759C391.983 228.352 393.722 231.263 393.722 234.454V329.153C393.722 359.65 368.997 384.373 338.499 384.373H74.0198C43.5203 384.373 18.7961 359.65 18.7961 329.153V217.723C18.7961 214.532 20.5352 211.621 23.2997 210.028C28.1911 207.209 31.3652 201.731 30.8333 195.582C30.2 188.265 24.2588 182.397 16.9348 181.847C8.07613 181.181 0.654297 188.201 0.654297 196.921C0.654297 202.564 3.76297 207.495 8.35738 210.092C11.0948 211.639 12.7491 214.579 12.7491 217.723V329.153C12.7491 362.99 40.181 390.421 74.0207 390.421H338.5C372.339 390.421 399.771 362.99 399.771 329.153V234.454C399.771 231.31 401.426 228.37 404.163 226.823C408.756 224.226 411.865 219.296 411.865 213.652ZM6.7004 196.922C6.7004 191.92 10.7698 187.852 15.7722 187.852C20.7736 187.852 24.8431 191.921 24.8431 196.922C24.8431 201.923 20.7736 205.992 15.7722 205.992C10.7698 205.992 6.7004 201.923 6.7004 196.922ZM396.746 222.723C391.744 222.723 387.675 218.654 387.675 213.653C387.675 208.651 391.745 204.583 396.746 204.583C401.748 204.583 405.817 208.652 405.817 213.653C405.817 218.654 401.748 222.723 396.746 222.723Z" fill="#50A866"/>
<path d="M396.747 219.363C399.901 219.363 402.458 216.806 402.458 213.652C402.458 210.498 399.901 207.941 396.747 207.941C393.592 207.941 391.035 210.498 391.035 213.652C391.035 216.806 393.592 219.363 396.747 219.363Z" fill="#50A866"/>
</svg>
