<svg width="412" height="391" viewBox="0 0 412 391" fill="none" xmlns="http://www.w3.org/2000/svg">
<path d="M73.8844 3.42224C40.0447 3.42224 12.6128 30.8526 12.6128 64.6902V165.074C12.6128 166.744 13.9667 168.098 15.6367 168.098C17.3068 168.098 18.6606 166.744 18.6606 165.074V64.6867C18.6606 34.1907 43.384 9.46886 73.8818 9.46886H194.026V3.42139H73.8844V3.42224Z" fill="#FF6666"/>
<path d="M73.8844 3.42224C40.0447 3.42224 12.6128 30.8526 12.6128 64.6902V165.074C12.6128 166.744 13.9667 168.098 15.6367 168.098C17.3068 168.098 18.6606 166.744 18.6606 165.074V64.6867C18.6606 34.1907 43.384 9.46886 73.8818 9.46886H194.026V3.42139H73.8844V3.42224Z" fill="#FF7981"/>
<path d="M73.8844 3.42224C40.0447 3.42224 12.6128 30.8526 12.6128 64.6902V165.074C12.6128 166.744 13.9667 168.098 15.6367 168.098C17.3068 168.098 18.6606 166.744 18.6606 165.074V64.6867C18.6606 34.1907 43.384 9.46886 73.8818 9.46886H194.026V3.42139H73.8844V3.42224Z" fill="url(#paint0_linear)" fill-opacity="0.25"/>
<path d="M338.36 3.42236H218.216V9.46986H338.36C368.86 9.46986 393.584 34.1935 393.584 64.6903V165.074C393.584 166.744 394.938 168.098 396.608 168.098C398.278 168.098 399.632 166.744 399.632 165.074V64.6903C399.633 30.8527 372.2 3.42236 338.36 3.42236Z" fill="#FF6666"/>
<path d="M338.36 3.42236H218.216V9.46986H338.36C368.86 9.46986 393.584 34.1935 393.584 64.6903V165.074C393.584 166.744 394.938 168.098 396.608 168.098C398.278 168.098 399.632 166.744 399.632 165.074V64.6903C399.633 30.8527 372.2 3.42236 338.36 3.42236Z" fill="#FF7981"/>
<path d="M338.36 3.42236H218.216V9.46986H338.36C368.86 9.46986 393.584 34.1935 393.584 64.6903V165.074C393.584 166.744 394.938 168.098 396.608 168.098C398.278 168.098 399.632 166.744 399.632 165.074V64.6903C399.633 30.8527 372.2 3.42236 338.36 3.42236Z" fill="url(#paint1_linear)" fill-opacity="0.25"/>
<path d="M206.122 12.1573C209.277 12.1573 211.834 9.60034 211.834 6.44611C211.834 3.29187 209.277 0.734863 206.122 0.734863C202.968 0.734863 200.411 3.29187 200.411 6.44611C200.411 9.60034 202.968 12.1573 206.122 12.1573Z" fill="#FF6666"/>
<path d="M411.727 196.922C411.727 188.202 404.306 181.182 395.447 181.848C388.122 182.398 382.182 188.265 381.548 195.583C381.016 201.732 384.19 207.21 389.081 210.029C391.846 211.622 393.585 214.534 393.585 217.724V329.154C393.585 359.651 368.86 384.374 338.361 384.374H73.882C43.3842 384.374 18.6608 359.652 18.6608 329.156V217.724C18.6608 214.534 20.3999 211.622 23.1644 210.029C28.0558 207.21 31.23 201.732 30.698 195.583C30.0648 188.266 24.1235 182.398 16.7995 181.848C7.94085 181.182 0.519043 188.202 0.519043 196.922C0.519043 202.565 3.62769 207.496 8.2221 210.093C10.9595 211.64 12.6139 214.58 12.6139 217.724V329.154C12.6139 362.991 40.0458 390.422 73.8855 390.422H338.361C372.201 390.422 399.633 362.991 399.633 329.154V217.724C399.633 214.58 401.287 211.64 404.024 210.093C408.619 207.496 411.727 202.565 411.727 196.922ZM6.56602 196.922C6.56602 191.92 10.6355 187.852 15.6369 187.852C20.6384 187.852 24.7078 191.921 24.7078 196.922C24.7078 201.923 20.6384 205.992 15.6369 205.992C10.6355 205.992 6.56602 201.923 6.56602 196.922ZM396.609 205.992C391.606 205.992 387.538 201.923 387.538 196.922C387.538 191.921 391.607 187.852 396.609 187.852C401.61 187.852 405.68 191.921 405.68 196.922C405.68 201.923 401.61 205.992 396.609 205.992Z" fill="#FF6666"/>
<path d="M411.727 196.922C411.727 188.202 404.306 181.182 395.447 181.848C388.122 182.398 382.182 188.265 381.548 195.583C381.016 201.732 384.19 207.21 389.081 210.029C391.846 211.622 393.585 214.534 393.585 217.724V329.154C393.585 359.651 368.86 384.374 338.361 384.374H73.882C43.3842 384.374 18.6608 359.652 18.6608 329.156V217.724C18.6608 214.534 20.3999 211.622 23.1644 210.029C28.0558 207.21 31.23 201.732 30.698 195.583C30.0648 188.266 24.1235 182.398 16.7995 181.848C7.94085 181.182 0.519043 188.202 0.519043 196.922C0.519043 202.565 3.62769 207.496 8.2221 210.093C10.9595 211.64 12.6139 214.58 12.6139 217.724V329.154C12.6139 362.991 40.0458 390.422 73.8855 390.422H338.361C372.201 390.422 399.633 362.991 399.633 329.154V217.724C399.633 214.58 401.287 211.64 404.024 210.093C408.619 207.496 411.727 202.565 411.727 196.922ZM6.56602 196.922C6.56602 191.92 10.6355 187.852 15.6369 187.852C20.6384 187.852 24.7078 191.921 24.7078 196.922C24.7078 201.923 20.6384 205.992 15.6369 205.992C10.6355 205.992 6.56602 201.923 6.56602 196.922ZM396.609 205.992C391.606 205.992 387.538 201.923 387.538 196.922C387.538 191.921 391.607 187.852 396.609 187.852C401.61 187.852 405.68 191.921 405.68 196.922C405.68 201.923 401.61 205.992 396.609 205.992Z" fill="#FF7981"/>
<path d="M411.727 196.922C411.727 188.202 404.306 181.182 395.447 181.848C388.122 182.398 382.182 188.265 381.548 195.583C381.016 201.732 384.19 207.21 389.081 210.029C391.846 211.622 393.585 214.534 393.585 217.724V329.154C393.585 359.651 368.86 384.374 338.361 384.374H73.882C43.3842 384.374 18.6608 359.652 18.6608 329.156V217.724C18.6608 214.534 20.3999 211.622 23.1644 210.029C28.0558 207.21 31.23 201.732 30.698 195.583C30.0648 188.266 24.1235 182.398 16.7995 181.848C7.94085 181.182 0.519043 188.202 0.519043 196.922C0.519043 202.565 3.62769 207.496 8.2221 210.093C10.9595 211.64 12.6139 214.58 12.6139 217.724V329.154C12.6139 362.991 40.0458 390.422 73.8855 390.422H338.361C372.201 390.422 399.633 362.991 399.633 329.154V217.724C399.633 214.58 401.287 211.64 404.024 210.093C408.619 207.496 411.727 202.565 411.727 196.922ZM6.56602 196.922C6.56602 191.92 10.6355 187.852 15.6369 187.852C20.6384 187.852 24.7078 191.921 24.7078 196.922C24.7078 201.923 20.6384 205.992 15.6369 205.992C10.6355 205.992 6.56602 201.923 6.56602 196.922ZM396.609 205.992C391.606 205.992 387.538 201.923 387.538 196.922C387.538 191.921 391.607 187.852 396.609 187.852C401.61 187.852 405.68 191.921 405.68 196.922C405.68 201.923 401.61 205.992 396.609 205.992Z" fill="url(#paint2_linear)" fill-opacity="0.25"/>
<path d="M396.609 202.633C399.763 202.633 402.32 200.076 402.32 196.922C402.32 193.768 399.763 191.211 396.609 191.211C393.454 191.211 390.897 193.768 390.897 196.922C390.897 200.076 393.454 202.633 396.609 202.633Z" fill="#FF6666"/>
<defs>
<linearGradient id="paint0_linear" x1="155.96" y1="110.059" x2="155.96" y2="46.197" gradientUnits="userSpaceOnUse">
<stop stop-color="#FF2969"/>
<stop offset="1" stop-color="#F77A1C"/>
</linearGradient>
<linearGradient id="paint1_linear" x1="361.565" y1="110.06" x2="361.565" y2="46.1978" gradientUnits="userSpaceOnUse">
<stop stop-color="#FF2969"/>
<stop offset="1" stop-color="#F77A1C"/>
</linearGradient>
<linearGradient id="paint2_linear" x1="325.442" y1="316.897" x2="325.442" y2="235.994" gradientUnits="userSpaceOnUse">
<stop stop-color="#FF2969"/>
<stop offset="1" stop-color="#F77A1C"/>
</linearGradient>
</defs>
</svg>
