<svg width="458" height="216" viewBox="0 0 458 216" fill="none" xmlns="http://www.w3.org/2000/svg">
<path d="M457.504 14.5924C457.504 6.56749 450.689 0.105122 442.543 0.686813C435.592 1.18291 430.011 6.87318 429.639 13.8316C429.422 17.8895 430.952 21.5989 433.542 24.2767C438.138 29.0264 440.539 35.4826 440.539 42.0908V54.6766C440.539 79.2527 420.614 99.176 396.037 99.176H62.6467C34.7292 99.176 12.0969 121.806 12.0969 149.723V171.078C12.0969 178.036 9.45989 184.804 4.50736 189.692C1.43539 192.724 -0.348213 197.057 0.061441 201.787C0.695574 209.104 6.63598 214.971 13.9608 215.52C22.8195 216.186 30.2413 209.166 30.2413 200.446C30.2413 196.187 28.4708 192.334 25.6268 189.584C20.7468 184.864 18.1447 178.262 18.1447 171.473V149.722C18.1447 125.146 38.0693 105.223 62.6467 105.223H396.036C423.953 105.223 446.586 82.5926 446.586 54.6758V41.6061C446.586 35.0782 449.227 28.8927 453.705 24.1431C456.059 21.6478 457.504 18.286 457.504 14.5924ZM24.1934 200.446C24.1934 205.448 20.124 209.517 15.1217 209.517C10.1194 209.517 6.05076 205.447 6.05076 200.446C6.05076 195.445 10.1202 191.376 15.1217 191.376C20.1231 191.376 24.1934 195.445 24.1934 200.446ZM443.561 22.4871C439.207 22.4871 435.666 18.9455 435.666 14.5924C435.666 10.2393 439.207 6.69762 443.561 6.69762C447.914 6.69762 451.456 10.2393 451.456 14.5924C451.456 18.9455 447.914 22.4871 443.561 22.4871Z" fill="#FF6666"/>
<path d="M457.504 14.5924C457.504 6.56749 450.689 0.105122 442.543 0.686813C435.592 1.18291 430.011 6.87318 429.639 13.8316C429.422 17.8895 430.952 21.5989 433.542 24.2767C438.138 29.0264 440.539 35.4826 440.539 42.0908V54.6766C440.539 79.2527 420.614 99.176 396.037 99.176H62.6467C34.7292 99.176 12.0969 121.806 12.0969 149.723V171.078C12.0969 178.036 9.45989 184.804 4.50736 189.692C1.43539 192.724 -0.348213 197.057 0.061441 201.787C0.695574 209.104 6.63598 214.971 13.9608 215.52C22.8195 216.186 30.2413 209.166 30.2413 200.446C30.2413 196.187 28.4708 192.334 25.6268 189.584C20.7468 184.864 18.1447 178.262 18.1447 171.473V149.722C18.1447 125.146 38.0693 105.223 62.6467 105.223H396.036C423.953 105.223 446.586 82.5926 446.586 54.6758V41.6061C446.586 35.0782 449.227 28.8927 453.705 24.1431C456.059 21.6478 457.504 18.286 457.504 14.5924ZM24.1934 200.446C24.1934 205.448 20.124 209.517 15.1217 209.517C10.1194 209.517 6.05076 205.447 6.05076 200.446C6.05076 195.445 10.1202 191.376 15.1217 191.376C20.1231 191.376 24.1934 195.445 24.1934 200.446ZM443.561 22.4871C439.207 22.4871 435.666 18.9455 435.666 14.5924C435.666 10.2393 439.207 6.69762 443.561 6.69762C447.914 6.69762 451.456 10.2393 451.456 14.5924C451.456 18.9455 447.914 22.4871 443.561 22.4871Z" fill="#FF7981"/>
<path d="M457.504 14.5924C457.504 6.56749 450.689 0.105122 442.543 0.686813C435.592 1.18291 430.011 6.87318 429.639 13.8316C429.422 17.8895 430.952 21.5989 433.542 24.2767C438.138 29.0264 440.539 35.4826 440.539 42.0908V54.6766C440.539 79.2527 420.614 99.176 396.037 99.176H62.6467C34.7292 99.176 12.0969 121.806 12.0969 149.723V171.078C12.0969 178.036 9.45989 184.804 4.50736 189.692C1.43539 192.724 -0.348213 197.057 0.061441 201.787C0.695574 209.104 6.63598 214.971 13.9608 215.52C22.8195 216.186 30.2413 209.166 30.2413 200.446C30.2413 196.187 28.4708 192.334 25.6268 189.584C20.7468 184.864 18.1447 178.262 18.1447 171.473V149.722C18.1447 125.146 38.0693 105.223 62.6467 105.223H396.036C423.953 105.223 446.586 82.5926 446.586 54.6758V41.6061C446.586 35.0782 449.227 28.8927 453.705 24.1431C456.059 21.6478 457.504 18.286 457.504 14.5924ZM24.1934 200.446C24.1934 205.448 20.124 209.517 15.1217 209.517C10.1194 209.517 6.05076 205.447 6.05076 200.446C6.05076 195.445 10.1202 191.376 15.1217 191.376C20.1231 191.376 24.1934 195.445 24.1934 200.446ZM443.561 22.4871C439.207 22.4871 435.666 18.9455 435.666 14.5924C435.666 10.2393 439.207 6.69762 443.561 6.69762C447.914 6.69762 451.456 10.2393 451.456 14.5924C451.456 18.9455 447.914 22.4871 443.561 22.4871Z" fill="url(#paint0_linear)" fill-opacity="0.25"/>
<defs>
<linearGradient id="paint0_linear" x1="361.505" y1="139.82" x2="361.505" y2="56.4755" gradientUnits="userSpaceOnUse">
<stop stop-color="#FF2969"/>
<stop offset="1" stop-color="#F77A1C"/>
</linearGradient>
</defs>
</svg>
