<svg width="47" height="48" viewBox="0 0 47 48" fill="none" xmlns="http://www.w3.org/2000/svg">
<path d="M0.00164032 26.2196C0.0408936 25.0011 0.805008 23.9397 1.94796 23.5156V23.5155L27.5081 14.0328C29.2391 13.3909 31.1252 13.8028 32.4305 15.1079C33.736 16.4129 34.1484 18.299 33.5068 20.0298L24.0482 45.5479C23.6222 46.6969 22.5556 47.4613 21.3308 47.4955C21.3022 47.4964 21.2738 47.4967 21.2455 47.4967C20.0548 47.4967 18.987 46.7999 18.5092 45.7026L15.8928 39.6961L10.2204 45.3701C8.60598 46.9851 5.97852 46.9857 4.36346 45.3711L2.17532 43.1834C1.39303 42.4013 0.962017 41.3613 0.961864 40.255C0.961712 39.1488 1.39241 38.1087 2.17439 37.3264L7.77522 31.7244L1.76939 29.0433C0.656155 28.5463 -0.0377655 27.438 0.00164032 26.2196ZM11.0858 29.8173C11.5504 30.0247 11.883 30.4474 11.9756 30.9475C12.0679 31.4476 11.9084 31.9613 11.5489 32.3212L4.36023 39.5118C3.95062 39.9216 3.95061 40.5881 4.36038 40.9977L6.54852 43.1854C6.74694 43.3838 7.01079 43.493 7.2914 43.493H7.29156C7.57233 43.493 7.83617 43.3837 8.03459 43.1851L15.3108 35.9069C15.6722 35.5453 16.189 35.3864 16.6914 35.4811C17.1937 35.5762 17.6164 35.9136 17.8205 36.3824L21.2397 44.232L30.6087 18.9559C30.9346 18.0766 30.4129 17.4613 30.2453 17.2937C30.1162 17.1647 29.7215 16.8256 29.145 16.8256C28.9731 16.8256 28.7848 16.8558 28.583 16.9307L3.26161 26.3248L11.0858 29.8173ZM3.02194 26.4139C3.02225 26.4136 3.02256 26.4134 3.02302 26.4133L2.48549 24.9645L3.02194 26.4139Z" fill="white"/>
<path d="M34.7992 10.5451L39.166 6.17803C39.7695 5.57477 40.7479 5.57477 41.3515 6.17803C41.9551 6.7816 41.9551 7.75999 41.3517 8.36356L36.9848 12.7306C36.6829 13.0323 36.2876 13.1832 35.892 13.1832C35.4966 13.1832 35.1009 13.0323 34.7992 12.7306C34.1957 12.127 34.1957 11.1487 34.7992 10.5451Z" fill="white"/>
<path d="M39.0836 15.6332H45.2594C46.1129 15.6332 46.8047 16.3251 46.8047 17.1785C46.8047 18.0319 46.1128 18.7239 45.2594 18.7239H39.0836C38.2302 18.7239 37.5383 18.0319 37.5383 17.1785C37.5383 16.3251 38.2302 15.6332 39.0836 15.6332Z" fill="white"/>
<path d="M30.216 0.589844C31.0694 0.589844 31.7614 1.28177 31.7614 2.13517V8.31092C31.7614 9.16432 31.0694 9.85625 30.216 9.85625C29.3626 9.85625 28.6707 9.16432 28.6707 8.31092V2.13517C28.6707 1.28177 29.3626 0.589844 30.216 0.589844Z" fill="white"/>
<path d="M17.2415 3.46094C17.845 2.85768 18.8234 2.85753 19.427 3.46094L23.7939 7.82783C24.3975 8.4314 24.3975 9.40979 23.794 10.0134C23.4922 10.3151 23.0967 10.4659 22.7011 10.4659C22.3057 10.4659 21.9101 10.3151 21.6084 10.0134L17.2415 5.64646C16.6379 5.0429 16.6379 4.06451 17.2415 3.46094Z" fill="white"/>
<path d="M36.5951 22.812C37.1986 22.2088 38.1772 22.2088 38.7806 22.812L43.1475 27.1791C43.751 27.7826 43.7509 28.761 43.1475 29.3646C42.8458 29.6663 42.4503 29.8172 42.0547 29.8172C41.6591 29.8172 41.2637 29.6663 40.962 29.3646L36.5951 24.9976C35.9915 24.394 35.9916 23.4156 36.5951 22.812Z" fill="white"/>
</svg>
