<svg width="96" height="96" viewBox="0 0 96 96" fill="none" xmlns="http://www.w3.org/2000/svg">
<path d="M76.5297 56.4099C77.2953 56.4099 77.9161 55.7893 77.9161 55.0235V54.9311C77.9161 52.3322 75.8017 50.2175 73.2025 50.2175C71.287 50.09 71.2876 53.1178 73.2025 52.9901C74.2726 52.9901 75.1434 53.8607 75.1434 54.9309V55.0233C75.1434 55.7895 75.764 56.4099 76.5297 56.4099Z" fill="black"/>
<path d="M76.5297 56.4099C77.2953 56.4099 77.9161 55.7893 77.9161 55.0235V54.9311C77.9161 52.3322 75.8017 50.2175 73.2025 50.2175C71.287 50.09 71.2876 53.1178 73.2025 52.9901C74.2726 52.9901 75.1434 53.8607 75.1434 54.9309V55.0233C75.1434 55.7895 75.764 56.4099 76.5297 56.4099Z" fill="url(#paint0_linear)"/>
<path d="M73.2025 88.6063C75.8015 88.6063 77.9161 86.4918 77.9161 83.8927V83.8003C77.9161 83.0345 77.2955 82.4139 76.5297 82.4139C75.764 82.4139 75.1434 83.0345 75.1434 83.8003V83.8927C75.1434 84.963 74.2726 85.8335 73.2025 85.8335C71.287 85.7062 71.2876 88.734 73.2025 88.6063Z" fill="black"/>
<path d="M73.2025 88.6063C75.8015 88.6063 77.9161 86.4918 77.9161 83.8927V83.8003C77.9161 83.0345 77.2955 82.4139 76.5297 82.4139C75.764 82.4139 75.1434 83.0345 75.1434 83.8003V83.8927C75.1434 84.963 74.2726 85.8335 73.2025 85.8335C71.287 85.7062 71.2876 88.734 73.2025 88.6063Z" fill="url(#paint1_linear)"/>
<path d="M60.9347 88.6061H67.7595C68.5251 88.6061 69.1459 87.9854 69.1459 87.2197C69.1459 86.4539 68.5253 85.8333 67.7595 85.8333H60.9347C60.1692 85.8333 59.5483 86.4539 59.5483 87.2197C59.5483 87.9854 60.1692 88.6061 60.9347 88.6061Z" fill="black"/>
<path d="M60.9347 88.6061H67.7595C68.5251 88.6061 69.1459 87.9854 69.1459 87.2197C69.1459 86.4539 68.5253 85.8333 67.7595 85.8333H60.9347C60.1692 85.8333 59.5483 86.4539 59.5483 87.2197C59.5483 87.9854 60.1692 88.6061 60.9347 88.6061Z" fill="url(#paint2_linear)"/>
<path d="M55.5869 85.8343H48.7621C47.9965 85.8343 47.3757 86.4549 47.3757 87.2207C47.3757 87.9864 47.9964 88.6071 48.7621 88.6071H55.5869C56.3525 88.6071 56.9733 87.9864 56.9733 87.2207C56.9733 86.4549 56.3527 85.8343 55.5869 85.8343Z" fill="black"/>
<path d="M55.5869 85.8343H48.7621C47.9965 85.8343 47.3757 86.4549 47.3757 87.2207C47.3757 87.9864 47.9964 88.6071 48.7621 88.6071H55.5869C56.3525 88.6071 56.9733 87.9864 56.9733 87.2207C56.9733 86.4549 56.3527 85.8343 55.5869 85.8343Z" fill="url(#paint3_linear)"/>
<path d="M43.4121 85.8343H36.5873C35.8217 85.8343 35.2009 86.4549 35.2009 87.2207C35.2009 87.9864 35.8216 88.6071 36.5873 88.6071H43.4121C44.1777 88.6071 44.7985 87.9864 44.7985 87.2207C44.7985 86.4549 44.1777 85.8343 43.4121 85.8343Z" fill="black"/>
<path d="M43.4121 85.8343H36.5873C35.8217 85.8343 35.2009 86.4549 35.2009 87.2207C35.2009 87.9864 35.8216 88.6071 36.5873 88.6071H43.4121C44.1777 88.6071 44.7985 87.9864 44.7985 87.2207C44.7985 86.4549 44.1777 85.8343 43.4121 85.8343Z" fill="url(#paint4_linear)"/>
<path d="M31.2395 85.8343H24.4147C23.6491 85.8343 23.0283 86.4549 23.0283 87.2207C23.0283 87.9864 23.6489 88.6071 24.4147 88.6071H31.2395C32.0051 88.6071 32.6259 87.9864 32.6259 87.2207C32.6259 86.4549 32.0051 85.8343 31.2395 85.8343Z" fill="black"/>
<path d="M31.2395 85.8343H24.4147C23.6491 85.8343 23.0283 86.4549 23.0283 87.2207C23.0283 87.9864 23.6489 88.6071 24.4147 88.6071H31.2395C32.0051 88.6071 32.6259 87.9864 32.6259 87.2207C32.6259 86.4549 32.0051 85.8343 31.2395 85.8343Z" fill="url(#paint5_linear)"/>
<path d="M14.2581 83.8924C14.2581 86.4913 16.3725 88.6059 18.9716 88.6059H19.0641C19.8296 88.6059 20.4505 87.9853 20.4505 87.2196C20.4505 86.4538 19.8298 85.8332 19.0641 85.8332H18.9716C17.9016 85.8332 17.0308 84.9626 17.0308 83.8924C17.1581 81.9769 14.1304 81.9774 14.2581 83.8924Z" fill="black"/>
<path d="M14.2581 83.8924C14.2581 86.4913 16.3725 88.6059 18.9716 88.6059H19.0641C19.8296 88.6059 20.4505 87.9853 20.4505 87.2196C20.4505 86.4538 19.8298 85.8332 19.0641 85.8332H18.9716C17.9016 85.8332 17.0308 84.9626 17.0308 83.8924C17.1581 81.9769 14.1304 81.9774 14.2581 83.8924Z" fill="url(#paint6_linear)"/>
<path d="M14.2593 78.6171C14.2593 79.3829 14.8799 80.0035 15.6457 80.0035C16.4114 80.0035 17.032 79.3829 17.032 78.6171V72.004C17.032 71.2382 16.4114 70.6176 15.6457 70.6176C14.8799 70.6176 14.2593 71.2382 14.2593 72.004V78.6171Z" fill="black"/>
<path d="M14.2593 78.6171C14.2593 79.3829 14.8799 80.0035 15.6457 80.0035C16.4114 80.0035 17.032 79.3829 17.032 78.6171V72.004C17.032 71.2382 16.4114 70.6176 15.6457 70.6176C14.8799 70.6176 14.2593 71.2382 14.2593 72.004V78.6171Z" fill="url(#paint7_linear)"/>
<path d="M15.6447 68.2069C16.4102 68.2069 17.0311 67.5863 17.0311 66.8206V60.2072C17.0311 59.4415 16.4104 58.8209 15.6447 58.8209C14.8789 58.8209 14.2583 59.4415 14.2583 60.2072V66.8206C14.2585 67.5863 14.8791 68.2069 15.6447 68.2069Z" fill="black"/>
<path d="M15.6447 68.2069C16.4102 68.2069 17.0311 67.5863 17.0311 66.8206V60.2072C17.0311 59.4415 16.4104 58.8209 15.6447 58.8209C14.8789 58.8209 14.2583 59.4415 14.2583 60.2072V66.8206C14.2585 67.5863 14.8791 68.2069 15.6447 68.2069Z" fill="url(#paint8_linear)"/>
<path d="M19.0633 50.218H18.9709C16.3719 50.218 14.2573 52.3325 14.2573 54.9316C14.13 56.8471 17.1576 56.8466 17.0299 54.9316C17.0299 53.8614 17.9006 52.9908 18.9707 52.9908H19.0631C19.8287 52.9908 20.4495 52.3702 20.4495 51.6044C20.4495 50.8387 19.8291 50.218 19.0633 50.218Z" fill="black"/>
<path d="M19.0633 50.218H18.9709C16.3719 50.218 14.2573 52.3325 14.2573 54.9316C14.13 56.8471 17.1576 56.8466 17.0299 54.9316C17.0299 53.8614 17.9006 52.9908 18.9707 52.9908H19.0631C19.8287 52.9908 20.4495 52.3702 20.4495 51.6044C20.4495 50.8387 19.8291 50.218 19.0633 50.218Z" fill="url(#paint9_linear)"/>
<path d="M55.5869 50.218H48.7621C47.9965 50.218 47.3757 50.8387 47.3757 51.6044C47.3757 52.3702 47.9964 52.9908 48.7621 52.9908H55.5869C56.3525 52.9908 56.9733 52.3702 56.9733 51.6044C56.9733 50.8387 56.3527 50.218 55.5869 50.218Z" fill="black"/>
<path d="M55.5869 50.218H48.7621C47.9965 50.218 47.3757 50.8387 47.3757 51.6044C47.3757 52.3702 47.9964 52.9908 48.7621 52.9908H55.5869C56.3525 52.9908 56.9733 52.3702 56.9733 51.6044C56.9733 50.8387 56.3527 50.218 55.5869 50.218Z" fill="url(#paint10_linear)"/>
<path d="M31.2395 50.218H24.4147C23.6491 50.218 23.0283 50.8387 23.0283 51.6044C23.0283 52.3702 23.6489 52.9908 24.4147 52.9908H31.2395C32.0051 52.9908 32.6259 52.3702 32.6259 51.6044C32.6259 50.8387 32.0051 50.218 31.2395 50.218Z" fill="black"/>
<path d="M31.2395 50.218H24.4147C23.6491 50.218 23.0283 50.8387 23.0283 51.6044C23.0283 52.3702 23.6489 52.9908 24.4147 52.9908H31.2395C32.0051 52.9908 32.6259 52.3702 32.6259 51.6044C32.6259 50.8387 32.0051 50.218 31.2395 50.218Z" fill="url(#paint11_linear)"/>
<path d="M60.9347 52.9908H67.7595C68.5251 52.9908 69.1459 52.3702 69.1459 51.6044C69.1459 50.8387 68.5253 50.218 67.7595 50.218H60.9347C60.1692 50.218 59.5483 50.8387 59.5483 51.6044C59.5483 52.3702 60.1692 52.9908 60.9347 52.9908Z" fill="black"/>
<path d="M60.9347 52.9908H67.7595C68.5251 52.9908 69.1459 52.3702 69.1459 51.6044C69.1459 50.8387 68.5253 50.218 67.7595 50.218H60.9347C60.1692 50.218 59.5483 50.8387 59.5483 51.6044C59.5483 52.3702 60.1692 52.9908 60.9347 52.9908Z" fill="url(#paint12_linear)"/>
<path d="M43.4121 50.218H36.5873C35.8217 50.218 35.2009 50.8387 35.2009 51.6044C35.2009 52.3702 35.8216 52.9908 36.5873 52.9908H43.4121C44.1777 52.9908 44.7985 52.3702 44.7985 51.6044C44.7985 50.8387 44.1777 50.218 43.4121 50.218Z" fill="black"/>
<path d="M43.4121 50.218H36.5873C35.8217 50.218 35.2009 50.8387 35.2009 51.6044C35.2009 52.3702 35.8216 52.9908 36.5873 52.9908H43.4121C44.1777 52.9908 44.7985 52.3702 44.7985 51.6044C44.7985 50.8387 44.1777 50.218 43.4121 50.218Z" fill="url(#paint13_linear)"/>
<path d="M85.3175 60.8149H85.3092V49.6892C85.3092 45.9041 82.2297 42.8246 78.4445 42.8246H67.7131C68.6183 41.5843 69.4148 40.2697 70.0964 38.8941H76.4787C77.5158 40.0676 78.988 40.7346 80.5653 40.7346C82.1425 40.7346 83.6146 40.0678 84.6516 38.8941C87.9516 39.0347 90.7484 36.3846 90.74 33.0737C90.74 29.8641 88.1288 27.2529 84.9194 27.2529H84.1189C83.5827 23.8275 80.6118 21.1991 77.0382 21.1991C75.3882 21.1991 73.8192 21.7605 72.5598 22.7717C71.6318 16.8664 68.7449 11.4086 64.3358 7.28137C63.7769 6.75825 62.8998 6.78694 62.3763 7.34625C61.8531 7.90519 61.882 8.78231 62.4409 9.30562C66.4189 13.0292 69.0168 17.9578 69.8346 23.2866C68.8388 23.4825 67.9364 23.9481 67.2117 24.6092C66.0357 13.9027 56.938 5.54531 45.9237 5.54531C34.1138 5.54531 24.5056 15.1534 24.5056 26.9632C24.5056 28.6884 24.7126 30.4065 25.1208 32.0696C25.3004 32.8189 26.0736 33.2692 26.7976 33.0855C27.541 32.9029 27.9959 32.1521 27.8135 31.4085C27.4581 29.9614 27.2781 28.4659 27.2781 26.9631C27.2781 16.6819 35.6425 8.31769 45.9235 8.31769C56.2045 8.31769 64.5689 16.6821 64.5689 26.9631C64.5689 27.1579 64.5625 27.3538 64.5565 27.5494C62.2439 28.3202 60.5718 30.5049 60.5718 33.0733C60.5718 34.4349 61.0431 35.688 61.8295 36.6804C60.3005 39.1736 58.2006 41.2819 55.7114 42.8242H35.9005C35.8015 42.6688 35.6705 42.5304 35.5081 42.4206C33.2663 40.9048 31.3433 38.8804 29.9466 36.5661C29.5512 35.9108 28.6992 35.7002 28.0435 36.0954C27.388 36.4909 27.1773 37.3431 27.5729 37.9986C28.6499 39.783 30.0005 41.4161 31.5501 42.8241H27.6743C23.8386 38.4174 21.733 32.8093 21.733 26.9629C21.733 13.6241 32.585 2.77219 45.9237 2.77219C50.0073 2.77219 54.0458 3.81337 57.6027 5.78306C58.2726 6.15413 59.116 5.91131 59.4871 5.24194C59.858 4.572 59.6157 3.72844 58.946 3.35738C54.9788 1.16119 50.4758 0 45.9235 0C39.0801 0 32.8253 2.56406 28.0658 6.78C27.058 6.09244 25.9032 5.67825 24.68 5.5725C22.6278 5.39569 20.6138 6.10463 19.1363 7.49325C18.2676 7.0725 17.2934 6.8865 16.3175 6.96206C13.7043 7.167 11.5546 9.29025 11.3174 11.9014C11.3082 12.0028 11.3018 12.1041 11.2981 12.2055H11.083C7.87358 12.2055 5.26245 14.8166 5.26245 18.0261C5.26245 21.2355 7.87358 23.8466 11.083 23.8466H19.1412C19.0229 24.8696 18.9601 25.9091 18.9601 26.9632C18.9601 32.7009 20.7796 38.2318 24.1313 42.8244H13.73C9.9447 42.8244 6.8652 45.9039 6.8652 49.689V89.1353C6.8652 92.9205 9.9447 96 13.73 96H52.6068C53.3723 96 53.9931 95.3794 53.9931 94.6136C53.9931 93.8479 53.3725 93.2272 52.6068 93.2272H13.73C11.4736 93.2272 9.63795 91.3916 9.63795 89.1353V49.689C9.63795 47.4326 11.4736 45.597 13.73 45.597H78.4446C80.701 45.597 82.5366 47.4326 82.5366 49.689V60.8147H77.9155V60.2072C77.9155 59.4414 77.2949 58.8208 76.5291 58.8208C75.7634 58.8208 75.1428 59.4414 75.1428 60.2072V60.8147H65.9939C63.9046 60.8147 62.2047 62.5146 62.2047 64.6039V73.8877C62.2047 75.9771 63.9046 77.6769 65.9939 77.6769H75.1428V78.6171C75.1428 79.3828 75.7634 80.0034 76.5291 80.0034C77.2949 80.0034 77.9155 79.3828 77.9155 78.6171V77.6769H82.5366V89.1353C82.5366 91.3916 80.701 93.2272 78.4446 93.2272H59.1983C58.4328 93.2272 57.812 93.8479 57.812 94.6136C57.812 95.3794 58.4326 96 59.1983 96H78.4445C82.2297 96 85.3092 92.9205 85.3092 89.1354V77.6771H85.3175C87.4068 77.6771 89.1066 75.9772 89.1066 73.8879V64.6041C89.1068 62.5147 87.407 60.8149 85.3175 60.8149ZM11.0832 21.0741C9.40264 21.0741 8.0352 19.7066 8.0352 18.0261C8.0352 16.3455 9.40245 14.9781 11.0832 14.9781H12.3871C13.4506 15.0053 14.3382 13.9472 14.1141 12.9054C14.0676 12.6593 14.0558 12.4057 14.0787 12.1522C14.1951 10.8697 15.2508 9.82669 16.5338 9.72638C17.1736 9.67669 17.7861 9.84394 18.3035 10.2107C19.0469 10.7385 20.0853 10.6037 20.6676 9.90394C21.6025 8.78044 22.9775 8.21006 24.4413 8.33475C24.998 8.38294 25.5318 8.53837 26.0238 8.78869C22.9066 12.1989 20.653 16.4104 19.6098 21.0739H11.0832V21.0741ZM66.3925 30.0255C67.3195 30.0988 68.1567 29.412 68.2075 28.4751C68.2921 27.0608 69.4698 25.953 70.8888 25.953C71.1968 25.953 71.4995 26.0049 71.7865 26.1071C72.4471 26.343 73.1877 26.1366 73.6296 25.5938C74.4695 24.5629 75.7116 23.9717 77.0382 23.9717C79.4613 23.9717 81.4324 25.9431 81.4324 28.3688C81.4324 29.2823 82.1757 30.0255 83.0892 30.0255H84.9194C86.6 30.0255 87.9672 31.3929 87.9672 33.0735C87.9672 34.7541 86.6 36.1213 84.9194 36.1213C84.0897 36.0598 83.1989 36.2228 82.6761 36.9356C82.1624 37.5877 81.3929 37.9618 80.5653 37.9618C79.7374 37.9618 78.9681 37.5877 78.4544 36.9356C78.0466 36.4181 77.4376 36.1213 76.7834 36.1213H66.3927C64.7121 36.1213 63.3447 34.7541 63.3447 33.0735C63.3445 31.3927 64.7118 30.0255 66.3925 30.0255ZM64.0289 38.3904C64.9054 38.8037 65.96 38.9333 66.9606 38.8939C66.1653 40.2908 65.2295 41.6059 64.1686 42.8244H60.3003C61.7341 41.5238 62.9896 40.0318 64.0289 38.3904ZM86.3343 73.8879C86.3343 74.4486 85.8783 74.9046 85.3176 74.9046H65.9939C65.4333 74.9046 64.9773 74.4486 64.9773 73.8879V64.6041C64.9773 64.0436 65.4333 63.5874 65.9939 63.5874H85.3175C85.8781 63.5874 86.3341 64.0436 86.3341 64.6041V73.8879H86.3343Z" fill="black"/>
<path d="M85.3175 60.8149H85.3092V49.6892C85.3092 45.9041 82.2297 42.8246 78.4445 42.8246H67.7131C68.6183 41.5843 69.4148 40.2697 70.0964 38.8941H76.4787C77.5158 40.0676 78.988 40.7346 80.5653 40.7346C82.1425 40.7346 83.6146 40.0678 84.6516 38.8941C87.9516 39.0347 90.7484 36.3846 90.74 33.0737C90.74 29.8641 88.1288 27.2529 84.9194 27.2529H84.1189C83.5827 23.8275 80.6118 21.1991 77.0382 21.1991C75.3882 21.1991 73.8192 21.7605 72.5598 22.7717C71.6318 16.8664 68.7449 11.4086 64.3358 7.28137C63.7769 6.75825 62.8998 6.78694 62.3763 7.34625C61.8531 7.90519 61.882 8.78231 62.4409 9.30562C66.4189 13.0292 69.0168 17.9578 69.8346 23.2866C68.8388 23.4825 67.9364 23.9481 67.2117 24.6092C66.0357 13.9027 56.938 5.54531 45.9237 5.54531C34.1138 5.54531 24.5056 15.1534 24.5056 26.9632C24.5056 28.6884 24.7126 30.4065 25.1208 32.0696C25.3004 32.8189 26.0736 33.2692 26.7976 33.0855C27.541 32.9029 27.9959 32.1521 27.8135 31.4085C27.4581 29.9614 27.2781 28.4659 27.2781 26.9631C27.2781 16.6819 35.6425 8.31769 45.9235 8.31769C56.2045 8.31769 64.5689 16.6821 64.5689 26.9631C64.5689 27.1579 64.5625 27.3538 64.5565 27.5494C62.2439 28.3202 60.5718 30.5049 60.5718 33.0733C60.5718 34.4349 61.0431 35.688 61.8295 36.6804C60.3005 39.1736 58.2006 41.2819 55.7114 42.8242H35.9005C35.8015 42.6688 35.6705 42.5304 35.5081 42.4206C33.2663 40.9048 31.3433 38.8804 29.9466 36.5661C29.5512 35.9108 28.6992 35.7002 28.0435 36.0954C27.388 36.4909 27.1773 37.3431 27.5729 37.9986C28.6499 39.783 30.0005 41.4161 31.5501 42.8241H27.6743C23.8386 38.4174 21.733 32.8093 21.733 26.9629C21.733 13.6241 32.585 2.77219 45.9237 2.77219C50.0073 2.77219 54.0458 3.81337 57.6027 5.78306C58.2726 6.15413 59.116 5.91131 59.4871 5.24194C59.858 4.572 59.6157 3.72844 58.946 3.35738C54.9788 1.16119 50.4758 0 45.9235 0C39.0801 0 32.8253 2.56406 28.0658 6.78C27.058 6.09244 25.9032 5.67825 24.68 5.5725C22.6278 5.39569 20.6138 6.10463 19.1363 7.49325C18.2676 7.0725 17.2934 6.8865 16.3175 6.96206C13.7043 7.167 11.5546 9.29025 11.3174 11.9014C11.3082 12.0028 11.3018 12.1041 11.2981 12.2055H11.083C7.87358 12.2055 5.26245 14.8166 5.26245 18.0261C5.26245 21.2355 7.87358 23.8466 11.083 23.8466H19.1412C19.0229 24.8696 18.9601 25.9091 18.9601 26.9632C18.9601 32.7009 20.7796 38.2318 24.1313 42.8244H13.73C9.9447 42.8244 6.8652 45.9039 6.8652 49.689V89.1353C6.8652 92.9205 9.9447 96 13.73 96H52.6068C53.3723 96 53.9931 95.3794 53.9931 94.6136C53.9931 93.8479 53.3725 93.2272 52.6068 93.2272H13.73C11.4736 93.2272 9.63795 91.3916 9.63795 89.1353V49.689C9.63795 47.4326 11.4736 45.597 13.73 45.597H78.4446C80.701 45.597 82.5366 47.4326 82.5366 49.689V60.8147H77.9155V60.2072C77.9155 59.4414 77.2949 58.8208 76.5291 58.8208C75.7634 58.8208 75.1428 59.4414 75.1428 60.2072V60.8147H65.9939C63.9046 60.8147 62.2047 62.5146 62.2047 64.6039V73.8877C62.2047 75.9771 63.9046 77.6769 65.9939 77.6769H75.1428V78.6171C75.1428 79.3828 75.7634 80.0034 76.5291 80.0034C77.2949 80.0034 77.9155 79.3828 77.9155 78.6171V77.6769H82.5366V89.1353C82.5366 91.3916 80.701 93.2272 78.4446 93.2272H59.1983C58.4328 93.2272 57.812 93.8479 57.812 94.6136C57.812 95.3794 58.4326 96 59.1983 96H78.4445C82.2297 96 85.3092 92.9205 85.3092 89.1354V77.6771H85.3175C87.4068 77.6771 89.1066 75.9772 89.1066 73.8879V64.6041C89.1068 62.5147 87.407 60.8149 85.3175 60.8149ZM11.0832 21.0741C9.40264 21.0741 8.0352 19.7066 8.0352 18.0261C8.0352 16.3455 9.40245 14.9781 11.0832 14.9781H12.3871C13.4506 15.0053 14.3382 13.9472 14.1141 12.9054C14.0676 12.6593 14.0558 12.4057 14.0787 12.1522C14.1951 10.8697 15.2508 9.82669 16.5338 9.72638C17.1736 9.67669 17.7861 9.84394 18.3035 10.2107C19.0469 10.7385 20.0853 10.6037 20.6676 9.90394C21.6025 8.78044 22.9775 8.21006 24.4413 8.33475C24.998 8.38294 25.5318 8.53837 26.0238 8.78869C22.9066 12.1989 20.653 16.4104 19.6098 21.0739H11.0832V21.0741ZM66.3925 30.0255C67.3195 30.0988 68.1567 29.412 68.2075 28.4751C68.2921 27.0608 69.4698 25.953 70.8888 25.953C71.1968 25.953 71.4995 26.0049 71.7865 26.1071C72.4471 26.343 73.1877 26.1366 73.6296 25.5938C74.4695 24.5629 75.7116 23.9717 77.0382 23.9717C79.4613 23.9717 81.4324 25.9431 81.4324 28.3688C81.4324 29.2823 82.1757 30.0255 83.0892 30.0255H84.9194C86.6 30.0255 87.9672 31.3929 87.9672 33.0735C87.9672 34.7541 86.6 36.1213 84.9194 36.1213C84.0897 36.0598 83.1989 36.2228 82.6761 36.9356C82.1624 37.5877 81.3929 37.9618 80.5653 37.9618C79.7374 37.9618 78.9681 37.5877 78.4544 36.9356C78.0466 36.4181 77.4376 36.1213 76.7834 36.1213H66.3927C64.7121 36.1213 63.3447 34.7541 63.3447 33.0735C63.3445 31.3927 64.7118 30.0255 66.3925 30.0255ZM64.0289 38.3904C64.9054 38.8037 65.96 38.9333 66.9606 38.8939C66.1653 40.2908 65.2295 41.6059 64.1686 42.8244H60.3003C61.7341 41.5238 62.9896 40.0318 64.0289 38.3904ZM86.3343 73.8879C86.3343 74.4486 85.8783 74.9046 85.3176 74.9046H65.9939C65.4333 74.9046 64.9773 74.4486 64.9773 73.8879V64.6041C64.9773 64.0436 65.4333 63.5874 65.9939 63.5874H85.3175C85.8781 63.5874 86.3341 64.0436 86.3341 64.6041V73.8879H86.3343Z" fill="url(#paint14_linear)"/>
<path d="M70.1469 71.0887C71.161 70.9243 71.8498 69.9689 71.6854 68.9548C71.521 67.9407 70.5656 67.2519 69.5515 67.4163C68.5374 67.5807 67.8486 68.536 68.013 69.5501C68.1774 70.5642 69.1327 71.2531 70.1469 71.0887Z" fill="black"/>
<path d="M70.1469 71.0887C71.161 70.9243 71.8498 69.9689 71.6854 68.9548C71.521 67.9407 70.5656 67.2519 69.5515 67.4163C68.5374 67.5807 67.8486 68.536 68.013 69.5501C68.1774 70.5642 69.1327 71.2531 70.1469 71.0887Z" fill="url(#paint15_linear)"/>
<path d="M60.3655 23.127C60.0918 22.2843 59.377 21.6817 58.5005 21.5546L51.2418 20.4997L47.9954 13.922C47.6032 13.1278 46.8093 12.6343 45.9235 12.6343C45.0378 12.6343 44.2437 13.1278 43.8515 13.9222L40.6053 20.4997L33.3468 21.5546C32.47 21.6819 31.7555 22.2843 31.4815 23.127C31.2078 23.9694 31.4316 24.8771 32.0661 25.4957L37.3186 30.6155L36.0786 37.8448C35.9288 38.7182 36.281 39.584 36.9978 40.1045C37.7165 40.6271 38.65 40.6914 39.4312 40.2806L45.9235 36.8673L52.4159 40.2806C53.2002 40.6927 54.1325 40.6258 54.8493 40.1045C55.5661 39.584 55.9182 38.718 55.7684 37.845L54.5285 30.6155L59.7809 25.4955C60.4154 24.8771 60.6393 23.9694 60.3655 23.127ZM52.4193 28.7994C51.8744 29.3304 51.6258 30.095 51.7546 30.8447L52.8773 37.3907L46.9987 34.3001C46.3253 33.9463 45.5217 33.9463 44.8484 34.3001L38.9699 37.3907L40.0925 30.845C40.2213 30.0952 39.9728 29.3306 39.4282 28.7996L34.6722 24.1637L41.2445 23.2085C41.9975 23.0994 42.6479 22.6267 42.9845 21.9446L45.9237 15.9888L48.863 21.9444C49.1995 22.6267 49.8502 23.0992 50.6028 23.2085L57.1754 24.1637L52.4193 28.7994Z" fill="black"/>
<path d="M60.3655 23.127C60.0918 22.2843 59.377 21.6817 58.5005 21.5546L51.2418 20.4997L47.9954 13.922C47.6032 13.1278 46.8093 12.6343 45.9235 12.6343C45.0378 12.6343 44.2437 13.1278 43.8515 13.9222L40.6053 20.4997L33.3468 21.5546C32.47 21.6819 31.7555 22.2843 31.4815 23.127C31.2078 23.9694 31.4316 24.8771 32.0661 25.4957L37.3186 30.6155L36.0786 37.8448C35.9288 38.7182 36.281 39.584 36.9978 40.1045C37.7165 40.6271 38.65 40.6914 39.4312 40.2806L45.9235 36.8673L52.4159 40.2806C53.2002 40.6927 54.1325 40.6258 54.8493 40.1045C55.5661 39.584 55.9182 38.718 55.7684 37.845L54.5285 30.6155L59.7809 25.4955C60.4154 24.8771 60.6393 23.9694 60.3655 23.127ZM52.4193 28.7994C51.8744 29.3304 51.6258 30.095 51.7546 30.8447L52.8773 37.3907L46.9987 34.3001C46.3253 33.9463 45.5217 33.9463 44.8484 34.3001L38.9699 37.3907L40.0925 30.845C40.2213 30.0952 39.9728 29.3306 39.4282 28.7996L34.6722 24.1637L41.2445 23.2085C41.9975 23.0994 42.6479 22.6267 42.9845 21.9446L45.9237 15.9888L48.863 21.9444C49.1995 22.6267 49.8502 23.0992 50.6028 23.2085L57.1754 24.1637L52.4193 28.7994Z" fill="url(#paint16_linear)"/>
<g opacity="0.1">
<path fill-rule="evenodd" clip-rule="evenodd" d="M91.7408 25.4103C98.8264 38.6195 113.56 49.5112 111.852 64.3983C110.106 79.6181 97.5071 93.2233 83.3146 98.8692C69.8357 104.231 55.8092 93.3328 41.3247 92.4545C27.2056 91.5984 10.1677 103.65 -0.0423951 93.8147C-10.5171 83.7247 -1.65545 65.7955 -1.45741 51.2437C-1.32419 41.4553 -2.26524 31.9439 0.925467 22.698C4.18525 13.2519 8.88716 4.20542 16.8485 -1.80229C25.1367 -8.05668 35.3735 -11.0557 45.754 -11.1302C56.5559 -11.2078 67.6376 -8.96153 76.1123 -2.22761C84.5978 4.51487 86.6122 15.8496 91.7408 25.4103Z" fill="#FF657B"/>
<path fill-rule="evenodd" clip-rule="evenodd" d="M91.7408 25.4103C98.8264 38.6195 113.56 49.5112 111.852 64.3983C110.106 79.6181 97.5071 93.2233 83.3146 98.8692C69.8357 104.231 55.8092 93.3328 41.3247 92.4545C27.2056 91.5984 10.1677 103.65 -0.0423951 93.8147C-10.5171 83.7247 -1.65545 65.7955 -1.45741 51.2437C-1.32419 41.4553 -2.26524 31.9439 0.925467 22.698C4.18525 13.2519 8.88716 4.20542 16.8485 -1.80229C25.1367 -8.05668 35.3735 -11.0557 45.754 -11.1302C56.5559 -11.2078 67.6376 -8.96153 76.1123 -2.22761C84.5978 4.51487 86.6122 15.8496 91.7408 25.4103Z" fill="url(#paint17_linear)"/>
</g>
<defs>
<linearGradient id="paint0_linear" x1="74.8411" y1="50.2136" x2="75.0149" y2="60.4263" gradientUnits="userSpaceOnUse">
<stop stop-color="#FFB547"/>
<stop offset="1" stop-color="#FF6767"/>
</linearGradient>
<linearGradient id="paint1_linear" x1="74.8411" y1="82.4139" x2="75.0149" y2="92.6266" gradientUnits="userSpaceOnUse">
<stop stop-color="#FFB547"/>
<stop offset="1" stop-color="#FF6767"/>
</linearGradient>
<linearGradient id="paint2_linear" x1="64.3471" y1="85.8333" x2="64.3694" y2="90.4046" gradientUnits="userSpaceOnUse">
<stop stop-color="#FFB547"/>
<stop offset="1" stop-color="#FF6767"/>
</linearGradient>
<linearGradient id="paint3_linear" x1="52.1745" y1="85.8343" x2="52.1968" y2="90.4056" gradientUnits="userSpaceOnUse">
<stop stop-color="#FFB547"/>
<stop offset="1" stop-color="#FF6767"/>
</linearGradient>
<linearGradient id="paint4_linear" x1="39.9997" y1="85.8343" x2="40.022" y2="90.4056" gradientUnits="userSpaceOnUse">
<stop stop-color="#FFB547"/>
<stop offset="1" stop-color="#FF6767"/>
</linearGradient>
<linearGradient id="paint5_linear" x1="27.8271" y1="85.8343" x2="27.8494" y2="90.4056" gradientUnits="userSpaceOnUse">
<stop stop-color="#FFB547"/>
<stop offset="1" stop-color="#FF6767"/>
</linearGradient>
<linearGradient id="paint6_linear" x1="17.3523" y1="82.456" x2="17.5222" y2="92.5924" gradientUnits="userSpaceOnUse">
<stop stop-color="#FFB547"/>
<stop offset="1" stop-color="#FF6767"/>
</linearGradient>
<linearGradient id="paint7_linear" x1="15.6457" y1="70.6176" x2="16.5276" y2="86.0415" gradientUnits="userSpaceOnUse">
<stop stop-color="#FFB547"/>
<stop offset="1" stop-color="#FF6767"/>
</linearGradient>
<linearGradient id="paint8_linear" x1="15.6447" y1="58.8209" x2="16.5266" y2="74.245" gradientUnits="userSpaceOnUse">
<stop stop-color="#FFB547"/>
<stop offset="1" stop-color="#FF6767"/>
</linearGradient>
<linearGradient id="paint9_linear" x1="17.3515" y1="50.218" x2="17.5214" y2="60.3545" gradientUnits="userSpaceOnUse">
<stop stop-color="#FFB547"/>
<stop offset="1" stop-color="#FF6767"/>
</linearGradient>
<linearGradient id="paint10_linear" x1="52.1745" y1="50.218" x2="52.1968" y2="54.7893" gradientUnits="userSpaceOnUse">
<stop stop-color="#FFB547"/>
<stop offset="1" stop-color="#FF6767"/>
</linearGradient>
<linearGradient id="paint11_linear" x1="27.8271" y1="50.218" x2="27.8494" y2="54.7893" gradientUnits="userSpaceOnUse">
<stop stop-color="#FFB547"/>
<stop offset="1" stop-color="#FF6767"/>
</linearGradient>
<linearGradient id="paint12_linear" x1="64.3471" y1="50.218" x2="64.3694" y2="54.7893" gradientUnits="userSpaceOnUse">
<stop stop-color="#FFB547"/>
<stop offset="1" stop-color="#FF6767"/>
</linearGradient>
<linearGradient id="paint13_linear" x1="39.9997" y1="50.218" x2="40.022" y2="54.7893" gradientUnits="userSpaceOnUse">
<stop stop-color="#FFB547"/>
<stop offset="1" stop-color="#FF6767"/>
</linearGradient>
<linearGradient id="paint14_linear" x1="48.0012" y1="-7.9676e-08" x2="51.0028" y2="158.216" gradientUnits="userSpaceOnUse">
<stop stop-color="#FFB547"/>
<stop offset="1" stop-color="#FF6767"/>
</linearGradient>
<linearGradient id="paint15_linear" x1="69.5515" y1="67.4163" x2="70.635" y2="73.4525" gradientUnits="userSpaceOnUse">
<stop stop-color="#FFB547"/>
<stop offset="1" stop-color="#FF6767"/>
</linearGradient>
<linearGradient id="paint16_linear" x1="45.9235" y1="12.6343" x2="46.6687" y2="58.6437" gradientUnits="userSpaceOnUse">
<stop stop-color="#FFB547"/>
<stop offset="1" stop-color="#FF6767"/>
</linearGradient>
<linearGradient id="paint17_linear" x1="104.45" y1="31.9136" x2="-84.338" y2="87.7357" gradientUnits="userSpaceOnUse">
<stop stop-color="#FFB547"/>
<stop offset="1" stop-color="#FF6767"/>
</linearGradient>
</defs>
</svg>
