<svg width="90" height="90" viewBox="0 0 90 90" fill="none" xmlns="http://www.w3.org/2000/svg">
<g clip-path="url(#clip0)">
<path d="M68.9062 32.3438V29.5312C71.2322 29.5312 73.125 27.6384 73.125 25.3125C73.125 22.9866 71.2322 21.0938 68.9062 21.0938H66.0938C65.3175 21.0938 64.6875 20.4637 64.6875 19.6875C64.6875 18.9113 65.3175 18.2812 66.0938 18.2812H70.3125V19.6875H73.125V15.4688H68.9062V12.6562H66.0938V15.4688C63.7678 15.4688 61.875 17.3616 61.875 19.6875C61.875 22.0134 63.7678 23.9062 66.0938 23.9062H68.9062C69.6825 23.9062 70.3125 24.5363 70.3125 25.3125C70.3125 26.0887 69.6825 26.7188 68.9062 26.7188H64.6875V25.3125H61.875V29.5312H66.0938V32.3438H68.9062Z" fill="black"/>
<path d="M68.9062 32.3438V29.5312C71.2322 29.5312 73.125 27.6384 73.125 25.3125C73.125 22.9866 71.2322 21.0938 68.9062 21.0938H66.0938C65.3175 21.0938 64.6875 20.4637 64.6875 19.6875C64.6875 18.9113 65.3175 18.2812 66.0938 18.2812H70.3125V19.6875H73.125V15.4688H68.9062V12.6562H66.0938V15.4688C63.7678 15.4688 61.875 17.3616 61.875 19.6875C61.875 22.0134 63.7678 23.9062 66.0938 23.9062H68.9062C69.6825 23.9062 70.3125 24.5363 70.3125 25.3125C70.3125 26.0887 69.6825 26.7188 68.9062 26.7188H64.6875V25.3125H61.875V29.5312H66.0938V32.3438H68.9062Z" fill="url(#paint0_linear)"/>
<path d="M82.9688 22.5C82.9688 13.9711 76.0289 7.03125 67.5 7.03125C58.9711 7.03125 52.0312 13.9711 52.0312 22.5C52.0312 31.0289 58.9711 37.9688 67.5 37.9688C76.0289 37.9688 82.9688 31.0289 82.9688 22.5ZM54.8438 22.5C54.8438 15.5208 60.5208 9.84375 67.5 9.84375C74.4792 9.84375 80.1562 15.5208 80.1562 22.5C80.1562 29.4792 74.4792 35.1562 67.5 35.1562C60.5208 35.1562 54.8438 29.4792 54.8438 22.5Z" fill="black"/>
<path d="M82.9688 22.5C82.9688 13.9711 76.0289 7.03125 67.5 7.03125C58.9711 7.03125 52.0312 13.9711 52.0312 22.5C52.0312 31.0289 58.9711 37.9688 67.5 37.9688C76.0289 37.9688 82.9688 31.0289 82.9688 22.5ZM54.8438 22.5C54.8438 15.5208 60.5208 9.84375 67.5 9.84375C74.4792 9.84375 80.1562 15.5208 80.1562 22.5C80.1562 29.4792 74.4792 35.1562 67.5 35.1562C60.5208 35.1562 54.8438 29.4792 54.8438 22.5Z" fill="url(#paint1_linear)"/>
<path d="M88.5938 22.5C88.5938 10.8689 79.1311 1.40625 67.5 1.40625C55.8689 1.40625 46.4062 10.8689 46.4062 22.5C46.4062 31.455 52.0242 39.105 59.9147 42.1594L57.0741 45H45.7678L35.9241 56.25H19.073L1.78031 74.9827L3.84609 76.8909L20.3034 59.0625H37.2023L47.0461 47.8125H58.2398L62.9634 43.0889C64.2516 43.373 65.5833 43.5305 66.9473 43.5656L59.8866 50.625H47.1094L38.6719 61.875H21.8616L1.40625 85.2525V88.5938H82.9688V36.7931C86.4478 33.03 88.5938 28.0167 88.5938 22.5ZM49.2188 22.5C49.2188 12.42 57.42 4.21875 67.5 4.21875C77.58 4.21875 85.7812 12.42 85.7812 22.5C85.7812 32.58 77.58 40.7812 67.5 40.7812C57.42 40.7812 49.2188 32.58 49.2188 22.5ZM71.7188 43.1691V85.7812H66.0938V48.3947L71.2477 43.2408C71.4037 43.2127 71.5641 43.2 71.7188 43.1691ZM61.0509 53.4375L63.2812 51.2072V85.7812H57.6562V53.4375H61.0509ZM21.0938 85.7812H15.4688V73.4527L21.0938 67.0247V85.7812ZM23.9062 64.6875H29.5312V85.7812H23.9062V64.6875ZM32.3438 64.6875H37.9688V85.7812H32.3438V64.6875ZM40.7812 63.7495L46.4062 56.25V85.7812H40.7812V63.7495ZM49.2188 53.4375H54.8438V85.7812H49.2188V53.4375ZM12.6562 76.6673V85.7812H4.68141L12.6562 76.6673ZM74.5312 85.7812V42.3633C76.5689 41.6391 78.4603 40.6139 80.1562 39.3356V85.7812H74.5312Z" fill="black"/>
<path d="M88.5938 22.5C88.5938 10.8689 79.1311 1.40625 67.5 1.40625C55.8689 1.40625 46.4062 10.8689 46.4062 22.5C46.4062 31.455 52.0242 39.105 59.9147 42.1594L57.0741 45H45.7678L35.9241 56.25H19.073L1.78031 74.9827L3.84609 76.8909L20.3034 59.0625H37.2023L47.0461 47.8125H58.2398L62.9634 43.0889C64.2516 43.373 65.5833 43.5305 66.9473 43.5656L59.8866 50.625H47.1094L38.6719 61.875H21.8616L1.40625 85.2525V88.5938H82.9688V36.7931C86.4478 33.03 88.5938 28.0167 88.5938 22.5ZM49.2188 22.5C49.2188 12.42 57.42 4.21875 67.5 4.21875C77.58 4.21875 85.7812 12.42 85.7812 22.5C85.7812 32.58 77.58 40.7812 67.5 40.7812C57.42 40.7812 49.2188 32.58 49.2188 22.5ZM71.7188 43.1691V85.7812H66.0938V48.3947L71.2477 43.2408C71.4037 43.2127 71.5641 43.2 71.7188 43.1691ZM61.0509 53.4375L63.2812 51.2072V85.7812H57.6562V53.4375H61.0509ZM21.0938 85.7812H15.4688V73.4527L21.0938 67.0247V85.7812ZM23.9062 64.6875H29.5312V85.7812H23.9062V64.6875ZM32.3438 64.6875H37.9688V85.7812H32.3438V64.6875ZM40.7812 63.7495L46.4062 56.25V85.7812H40.7812V63.7495ZM49.2188 53.4375H54.8438V85.7812H49.2188V53.4375ZM12.6562 76.6673V85.7812H4.68141L12.6562 76.6673ZM74.5312 85.7812V42.3633C76.5689 41.6391 78.4603 40.6139 80.1562 39.3356V85.7812H74.5312Z" fill="url(#paint2_linear)"/>
<path d="M9.84375 53.4375H12.6562V47.8125H15.4688V30.9375H12.6562V25.3125H9.84375V30.9375H7.03125V47.8125H9.84375V53.4375ZM9.84375 33.75H12.6562V45H9.84375V33.75Z" fill="black"/>
<path d="M9.84375 53.4375H12.6562V47.8125H15.4688V30.9375H12.6562V25.3125H9.84375V30.9375H7.03125V47.8125H9.84375V53.4375ZM9.84375 33.75H12.6562V45H9.84375V33.75Z" fill="url(#paint3_linear)"/>
<path d="M21.0938 46.4062H23.9062V40.7812H26.7188V26.7188H23.9062V21.0938H21.0938V26.7188H18.2812V40.7812H21.0938V46.4062ZM21.0938 29.5312H23.9062V37.9688H21.0938V29.5312Z" fill="black"/>
<path d="M21.0938 46.4062H23.9062V40.7812H26.7188V26.7188H23.9062V21.0938H21.0938V26.7188H18.2812V40.7812H21.0938V46.4062ZM21.0938 29.5312H23.9062V37.9688H21.0938V29.5312Z" fill="url(#paint4_linear)"/>
<path d="M32.3438 36.5625H35.1562V30.9375H37.9688V19.6875H35.1562V14.0625H32.3438V19.6875H29.5312V30.9375H32.3438V36.5625ZM32.3438 22.5H35.1562V28.125H32.3438V22.5Z" fill="black"/>
<path d="M32.3438 36.5625H35.1562V30.9375H37.9688V19.6875H35.1562V14.0625H32.3438V19.6875H29.5312V30.9375H32.3438V36.5625ZM32.3438 22.5H35.1562V28.125H32.3438V22.5Z" fill="url(#paint5_linear)"/>
<g opacity="0.1">
<path fill-rule="evenodd" clip-rule="evenodd" d="M89.7408 26.4103C96.8264 39.6195 111.56 50.5112 109.852 65.3983C108.106 80.6181 95.5071 94.2233 81.3146 99.8692C67.8357 105.231 53.8092 94.3328 39.3247 93.4545C25.2056 92.5984 8.16768 104.65 -2.0424 94.8147C-12.5171 84.7247 -3.65545 66.7955 -3.45741 52.2437C-3.32419 42.4553 -4.26524 32.9439 -1.07453 23.698C2.18525 14.2519 6.88716 5.20542 14.8485 -0.802289C23.1367 -7.05668 33.3735 -10.0557 43.754 -10.1302C54.5559 -10.2078 65.6376 -7.96153 74.1123 -1.22761C82.5978 5.51487 84.6122 16.8496 89.7408 26.4103Z" fill="#FF657B"/>
<path fill-rule="evenodd" clip-rule="evenodd" d="M89.7408 26.4103C96.8264 39.6195 111.56 50.5112 109.852 65.3983C108.106 80.6181 95.5071 94.2233 81.3146 99.8692C67.8357 105.231 53.8092 94.3328 39.3247 93.4545C25.2056 92.5984 8.16768 104.65 -2.0424 94.8147C-12.5171 84.7247 -3.65545 66.7955 -3.45741 52.2437C-3.32419 42.4553 -4.26524 32.9439 -1.07453 23.698C2.18525 14.2519 6.88716 5.20542 14.8485 -0.802289C23.1367 -7.05668 33.3735 -10.0557 43.754 -10.1302C54.5559 -10.2078 65.6376 -7.96153 74.1123 -1.22761C82.5978 5.51487 84.6122 16.8496 89.7408 26.4103Z" fill="url(#paint6_linear)"/>
</g>
</g>
<defs>
<linearGradient id="paint0_linear" x1="67.5" y1="12.6562" x2="68.4587" y2="45.0862" gradientUnits="userSpaceOnUse">
<stop stop-color="#FFB547"/>
<stop offset="1" stop-color="#FF6767"/>
</linearGradient>
<linearGradient id="paint1_linear" x1="67.5" y1="7.03125" x2="68.3613" y2="58.0226" gradientUnits="userSpaceOnUse">
<stop stop-color="#FFB547"/>
<stop offset="1" stop-color="#FF6767"/>
</linearGradient>
<linearGradient id="paint2_linear" x1="45" y1="1.40625" x2="47.4274" y2="145.109" gradientUnits="userSpaceOnUse">
<stop stop-color="#FFB547"/>
<stop offset="1" stop-color="#FF6767"/>
</linearGradient>
<linearGradient id="paint3_linear" x1="11.25" y1="25.3125" x2="13.8526" y2="71.535" gradientUnits="userSpaceOnUse">
<stop stop-color="#FFB547"/>
<stop offset="1" stop-color="#FF6767"/>
</linearGradient>
<linearGradient id="paint4_linear" x1="22.5" y1="21.0937" x2="24.6094" y2="62.719" gradientUnits="userSpaceOnUse">
<stop stop-color="#FFB547"/>
<stop offset="1" stop-color="#FF6767"/>
</linearGradient>
<linearGradient id="paint5_linear" x1="33.75" y1="14.0625" x2="35.4176" y2="51.0826" gradientUnits="userSpaceOnUse">
<stop stop-color="#FFB547"/>
<stop offset="1" stop-color="#FF6767"/>
</linearGradient>
<linearGradient id="paint6_linear" x1="102.45" y1="32.9136" x2="-86.338" y2="88.7357" gradientUnits="userSpaceOnUse">
<stop stop-color="#FFB547"/>
<stop offset="1" stop-color="#FF6767"/>
</linearGradient>
<clipPath id="clip0">
<rect width="90" height="90" fill="white"/>
</clipPath>
</defs>
</svg>
