<svg width="448" height="462" viewBox="0 0 448 462" fill="none" xmlns="http://www.w3.org/2000/svg">
<path d="M137.525 461.725C124.816 461.725 113.87 455.643 110.46 445.469L1.05771 128.754C-3.52737 115.075 7.22243 99.101 25.0208 93.1457L296.621 2.2693C305.181 -0.595365 314.094 -0.753144 321.717 1.826C329.471 4.44862 334.977 9.58001 337.221 16.2748L446.623 332.99C448.867 339.685 447.565 347.094 442.956 353.854C438.425 360.499 431.215 365.736 422.654 368.6L151.055 459.477C146.493 461.003 141.904 461.725 137.525 461.725ZM310.223 2.68795C306.043 2.68795 301.718 3.39975 297.475 4.81931L25.8755 95.6957C9.48447 101.18 -0.504004 115.627 3.61 127.9L113.012 444.615C117.126 456.889 133.809 462.411 150.199 456.927L421.799 366.05C429.806 363.371 436.53 358.502 440.732 352.34C444.855 346.291 446.041 339.723 444.071 333.844L334.668 17.1287C332.698 11.2501 327.792 6.71982 320.854 4.37332C317.53 3.24869 313.933 2.68795 310.223 2.68795Z" fill="#1B88CE"/>
<path d="M137.525 461.725C124.816 461.725 113.87 455.643 110.46 445.469L1.05771 128.754C-3.52737 115.075 7.22243 99.101 25.0208 93.1457L296.621 2.2693C305.181 -0.595365 314.094 -0.753144 321.717 1.826C329.471 4.44862 334.977 9.58001 337.221 16.2748L446.623 332.99C448.867 339.685 447.565 347.094 442.956 353.854C438.425 360.499 431.215 365.736 422.654 368.6L151.055 459.477C146.493 461.003 141.904 461.725 137.525 461.725ZM310.223 2.68795C306.043 2.68795 301.718 3.39975 297.475 4.81931L25.8755 95.6957C9.48447 101.18 -0.504004 115.627 3.61 127.9L113.012 444.615C117.126 456.889 133.809 462.411 150.199 456.927L421.799 366.05C429.806 363.371 436.53 358.502 440.732 352.34C444.855 346.291 446.041 339.723 444.071 333.844L334.668 17.1287C332.698 11.2501 327.792 6.71982 320.854 4.37332C317.53 3.24869 313.933 2.68795 310.223 2.68795Z" fill="#FF7981"/>
<path d="M137.525 461.725C124.816 461.725 113.87 455.643 110.46 445.469L1.05771 128.754C-3.52737 115.075 7.22243 99.101 25.0208 93.1457L296.621 2.2693C305.181 -0.595365 314.094 -0.753144 321.717 1.826C329.471 4.44862 334.977 9.58001 337.221 16.2748L446.623 332.99C448.867 339.685 447.565 347.094 442.956 353.854C438.425 360.499 431.215 365.736 422.654 368.6L151.055 459.477C146.493 461.003 141.904 461.725 137.525 461.725ZM310.223 2.68795C306.043 2.68795 301.718 3.39975 297.475 4.81931L25.8755 95.6957C9.48447 101.18 -0.504004 115.627 3.61 127.9L113.012 444.615C117.126 456.889 133.809 462.411 150.199 456.927L421.799 366.05C429.806 363.371 436.53 358.502 440.732 352.34C444.855 346.291 446.041 339.723 444.071 333.844L334.668 17.1287C332.698 11.2501 327.792 6.71982 320.854 4.37332C317.53 3.24869 313.933 2.68795 310.223 2.68795Z" fill="url(#paint0_linear)" fill-opacity="0.25"/>
<path d="M137.525 461.725C124.816 461.725 113.87 455.643 110.46 445.469L1.05771 128.754C-3.52737 115.075 7.22243 99.101 25.0208 93.1457L296.621 2.2693C305.181 -0.595365 314.094 -0.753144 321.717 1.826C329.471 4.44862 334.977 9.58001 337.221 16.2748L446.623 332.99C448.867 339.685 447.565 347.094 442.956 353.854C438.425 360.499 431.215 365.736 422.654 368.6L151.055 459.477C146.493 461.003 141.904 461.725 137.525 461.725ZM310.223 2.68795C306.043 2.68795 301.718 3.39975 297.475 4.81931L25.8755 95.6957C9.48447 101.18 -0.504004 115.627 3.61 127.9L113.012 444.615C117.126 456.889 133.809 462.411 150.199 456.927L421.799 366.05C429.806 363.371 436.53 358.502 440.732 352.34C444.855 346.291 446.041 339.723 444.071 333.844L334.668 17.1287C332.698 11.2501 327.792 6.71982 320.854 4.37332C317.53 3.24869 313.933 2.68795 310.223 2.68795Z" fill="url(#paint1_linear)"/>
<defs>
<linearGradient id="paint0_linear" x1="353.754" y1="298.995" x2="353.754" y2="119.936" gradientUnits="userSpaceOnUse">
<stop stop-color="#FF2969"/>
<stop offset="1" stop-color="#F77A1C"/>
</linearGradient>
<linearGradient id="paint1_linear" x1="223.848" y1="-3.83213e-07" x2="237.106" y2="761.005" gradientUnits="userSpaceOnUse">
<stop stop-color="#FFB547"/>
<stop offset="1" stop-color="#FF6767"/>
</linearGradient>
</defs>
</svg>
