<svg width="44" height="44" viewBox="0 0 44 44" fill="none" xmlns="http://www.w3.org/2000/svg">
<g clip-path="url(#clip10)">
<path d="M41.9709 42.2815H40.0861V14.9135C40.0861 13.6396 39.0496 12.6033 37.7759 12.6033H33.5629C32.289 12.6033 31.2527 13.6397 31.2527 14.9135V42.2815H26.4667V27.3133C26.4667 26.0395 25.4304 25.0031 24.1565 25.0031H19.9435C18.6697 25.0031 17.6333 26.0395 17.6333 27.3133V42.2815H12.8473V34.5296C12.8473 33.2557 11.8109 32.2194 10.5371 32.2194H6.32405C5.05019 32.2194 4.01387 33.2558 4.01387 34.5296V42.2815H2.02734C1.55271 42.2815 1.16797 42.6662 1.16797 43.1409C1.16797 43.6155 1.55271 44.0002 2.02734 44.0002H41.9709C42.4455 44.0002 42.8303 43.6155 42.8303 43.1409C42.8303 42.6662 42.4455 42.2815 41.9709 42.2815ZM11.1284 42.2815H5.73254V34.5296C5.73254 34.2034 5.99783 33.9381 6.32396 33.9381H10.537C10.8631 33.9381 11.1284 34.2034 11.1284 34.5296V42.2815ZM24.7478 42.2815H19.352V27.3133C19.352 26.9872 19.6173 26.7219 19.9434 26.7219H24.1564C24.4825 26.7219 24.7478 26.9872 24.7478 27.3133V42.2815ZM38.3673 42.2815H32.9715V14.9135C32.9715 14.5873 33.2367 14.3221 33.5629 14.3221H37.7759C38.102 14.3221 38.3673 14.5873 38.3673 14.9135V42.2815Z" fill="white"/>
<path d="M40.0846 0.903719C40.0967 0.669195 40.0142 0.430719 39.8351 0.251625C39.656 0.0725312 39.4175 -0.0100547 39.183 0.0020625C39.1692 0.00146094 39.1555 0 39.1414 0H33.9422C33.4675 0 33.0828 0.384742 33.0828 0.859375C33.0828 1.33401 33.4675 1.71875 33.9422 1.71875H37.1525L28.657 10.2144L25.4533 7.01061C25.2921 6.84948 25.0735 6.7589 24.8456 6.7589C24.6177 6.7589 24.3991 6.84948 24.2379 7.01061L8.78904 22.4596C8.45346 22.7952 8.45346 23.3393 8.78904 23.675C8.95688 23.8427 9.17679 23.9265 9.39671 23.9265C9.61662 23.9265 9.83662 23.8427 10.0044 23.6748L24.8456 8.83352L28.0494 12.0373C28.3849 12.3729 28.9291 12.3729 29.2648 12.0373L38.368 2.93416V5.83971C38.368 6.31434 38.7527 6.69909 39.2273 6.69909C39.702 6.69909 40.0867 6.31434 40.0867 5.83971V0.945312C40.0867 0.931305 40.0852 0.917641 40.0846 0.903719Z" fill="white"/>
<path d="M6.49976 26.9253C6.97438 26.9253 7.35913 26.5405 7.35913 26.0659C7.35913 25.5913 6.97438 25.2065 6.49976 25.2065C6.02514 25.2065 5.64038 25.5913 5.64038 26.0659C5.64038 26.5405 6.02514 26.9253 6.49976 26.9253Z" fill="white"/>
</g>
<defs>
<clipPath id="clip10">
<rect width="44" height="44" fill="white"/>
</clipPath>
</defs>
</svg>
