<svg width="951" height="202" viewBox="0 0 951 202" fill="none" xmlns="http://www.w3.org/2000/svg">
<path d="M950.297 57.5761V144.041C950.297 175.789 924.467 201.617 892.717 201.617H529.875V195.57H892.717C921.132 195.57 944.249 172.454 944.249 144.041V57.5761C944.249 29.1632 921.132 6.04749 892.717 6.04749H57.6798C29.2634 6.04749 6.14464 29.1632 6.14464 57.5761V144.041C6.14464 172.454 29.2634 195.57 57.6798 195.57H420.642V201.617H57.6798C25.9286 201.617 0.0976563 175.789 0.0976563 144.041V57.5761C0.0976562 25.8285 25.9294 0 57.6798 0H892.717C924.467 0 950.297 25.8285 950.297 57.5761ZM487.552 201.616H508.037V195.569H487.552V201.616ZM442.482 201.616H465.714V195.569H442.482V201.616Z" fill="#808080"/>
<path d="M950.297 57.5761V144.041C950.297 175.789 924.467 201.617 892.717 201.617H529.875V195.57H892.717C921.132 195.57 944.249 172.454 944.249 144.041V57.5761C944.249 29.1632 921.132 6.04749 892.717 6.04749H57.6798C29.2634 6.04749 6.14464 29.1632 6.14464 57.5761V144.041C6.14464 172.454 29.2634 195.57 57.6798 195.57H420.642V201.617H57.6798C25.9286 201.617 0.0976563 175.789 0.0976563 144.041V57.5761C0.0976562 25.8285 25.9294 0 57.6798 0H892.717C924.467 0 950.297 25.8285 950.297 57.5761ZM487.552 201.616H508.037V195.569H487.552V201.616ZM442.482 201.616H465.714V195.569H442.482V201.616Z" fill="url(#paint0_linear)"/>
<defs>
<linearGradient id="paint0_linear" x1="475.197" y1="-1.67334e-07" x2="476.389" y2="332.397" gradientUnits="userSpaceOnUse">
<stop stop-color="#FFB547"/>
<stop offset="1" stop-color="#FF6767"/>
</linearGradient>
</defs>
</svg>
