<svg width="187" height="152" viewBox="0 0 187 152" fill="none" xmlns="http://www.w3.org/2000/svg">
<path d="M72.4562 113.713L65.1593 107.442L62.2021 101.992L66.7806 103.78L72.4562 113.713Z" fill="#DD821F"/>
<path d="M137.241 34.9609L130.145 28.8962C130.145 28.8962 131.292 40.309 131.445 40.4288C131.598 40.5485 137.241 34.9609 137.241 34.9609Z" fill="#FFD85A"/>
<path d="M126.822 92.3089C108.648 114.375 83.4061 123.518 64.6974 108.145C45.9887 92.7716 45.5963 62.3373 63.7697 40.2712C81.9432 18.205 112.071 12.8763 130.779 28.2495C149.641 43.7419 145.148 70.3619 126.822 92.3089Z" fill="#FFD85A"/>
<path d="M138.147 34.7499C156.921 50.1681 157.356 80.5087 139.117 102.518C120.879 124.526 90.8749 129.869 72.1006 114.451C53.3263 99.0329 52.8916 68.6922 71.1298 46.6833C89.3679 24.6745 119.372 19.3317 138.147 34.7499Z" fill="#FFD85A"/>
<path d="M57.946 83.5089C58.189 95.713 62.9706 106.861 72.345 114.696C91.0659 130.087 121.213 124.752 139.399 102.66C148.444 91.8318 152.892 78.6913 152.802 66.6065L57.946 83.5089Z" fill="#DD821F"/>
<path d="M136.733 36.4563C154.68 51.1951 155.077 80.221 137.62 101.287C120.162 122.354 91.4613 127.484 73.5142 112.745C55.5672 98.006 55.1702 68.9801 72.6275 47.9136C90.0849 26.8471 118.786 21.7175 136.733 36.4563Z" fill="#F9BF30"/>
<path d="M130.437 44.054C144.828 55.8724 145.161 79.1294 131.181 95.9999C117.2 112.87 94.201 116.966 79.8102 105.148C65.4193 93.3293 65.0864 70.0722 79.0666 53.2017C93.0468 36.3311 116.046 32.2356 130.437 44.054Z" fill="#F2B42A"/>
<path d="M130.634 44.5482C130.026 44.0742 129.417 43.6002 128.809 43.1262C141.534 55.3217 141.219 77.1538 127.865 93.3984C114.483 109.367 92.9373 113.903 78.4715 103.905C79.0801 104.379 79.5643 105.01 80.1728 105.484C94.5293 117.173 117.389 113.153 131.392 96.3992C145.368 79.3698 144.991 56.2373 130.634 44.5482Z" fill="#FFD85A"/>
<path d="M112.408 70.3251L101.634 72.1072C98.1487 79.3189 91.4955 92.7172 86.4057 103.515C94.7038 106.422 104.675 105.032 113.3 100.047L112.408 70.3251Z" fill="#FFD85A"/>
<path d="M121.562 94.2945C122.462 93.4677 123.334 92.3642 124.207 91.2608C130.341 83.8132 133.412 75.2501 133.407 66.8354L115.878 69.9811L121.562 94.2945Z" fill="#FFD85A"/>
<path d="M89.7857 73.5868L69.5068 77.1128C69.6221 83.8175 70.5679 90.4065 74.8488 95.2706L89.7857 73.5868Z" fill="#FFD85A"/>
<path d="M80.9832 57.0956C95.0183 40.2825 118.052 36.0903 132.313 47.9774C135.362 50.3554 137.483 53.2833 139.203 56.4073C137.316 51.6247 134.349 47.2732 130.357 43.9053C115.971 32.1757 93.0626 36.2104 79.0274 53.0235C67.8852 66.49 65.8602 84.0114 72.7388 96.5073C68.2845 84.3742 70.962 69.1445 80.9832 57.0956Z" fill="#DD821F"/>
<path d="M65.0013 107.48C67.9225 109.777 69.67 111.668 72.9401 113.204C70.9264 110.067 63.9779 101.498 63.9779 101.498L59.7257 92.9785L59.7373 88.846L60.1803 81.9464L50.7452 74.0112C50.3337 86.8892 55.105 99.1823 65.0013 107.48Z" fill="#DD821F"/>
<path d="M125.596 29.4093L123.724 27.6794C123.417 27.4378 123.388 27.1572 123.64 26.8373L123.765 26.6773C124.016 26.3574 124.449 26.439 124.603 26.5598L126.475 28.2897C126.783 28.5312 126.811 28.8119 126.559 29.1318L126.434 29.2917C126.183 29.6116 125.624 29.69 125.596 29.4093Z" fill="#DD821F"/>
<path d="M115.019 26.8201L111.605 23.8733C111.297 23.631 111.241 23.0679 111.492 22.7471L111.744 22.4262C111.995 22.1054 112.555 22.0269 112.737 22.4296L116.151 25.3763C116.459 25.6186 116.515 26.1818 116.263 26.5026L116.012 26.8234C115.76 27.1442 115.327 27.0624 115.019 26.8201Z" fill="#DD821F"/>
<path d="M104.544 26.3288L101.134 23.39C100.827 23.1484 100.77 22.5867 101.022 22.2667L101.524 21.6268C101.775 21.3068 102.334 21.2284 102.641 21.4701L106.051 24.4089C106.359 24.6506 106.415 25.2122 106.164 25.5322L105.661 26.1722C105.284 26.6522 104.851 26.5705 104.544 26.3288Z" fill="#DD821F"/>
<path d="M93.3431 29.2974L89.3158 25.8704C89.0082 25.6284 88.9519 25.066 89.2033 24.7456L89.706 24.1047C89.9574 23.7843 90.5164 23.7058 90.824 23.9478L94.8513 27.3748C95.159 27.6168 95.2152 28.1793 94.9639 28.4997L94.4611 29.1405C94.0841 29.6212 93.6508 29.5394 93.3431 29.2974Z" fill="#DD821F"/>
<path d="M83.8758 33.8966L79.358 29.8239C79.0503 29.5818 78.9941 29.0191 79.2455 28.6986L79.7484 28.0574C79.9998 27.7368 80.5589 27.6583 80.8666 27.9004L85.3843 31.9733C85.692 32.2153 85.7482 32.778 85.4968 33.0985L84.994 33.7397C84.7425 34.0602 84.1834 34.1387 83.8758 33.8966Z" fill="#DD821F"/>
<path d="M75.9304 39.4481L71.44 35.6548C71.1322 35.4126 71.0759 34.8497 71.3274 34.5291L71.8302 33.8877C72.0817 33.567 72.6409 33.4885 72.9486 33.7307L77.4391 37.524C77.7468 37.7662 77.8031 38.3291 77.5516 38.6498L77.0488 39.2911C76.7973 39.6118 76.2381 39.6903 75.9304 39.4481Z" fill="#DD821F"/>
<path d="M69.2511 46.2633L64.7332 42.1902C64.4255 41.9481 64.3692 41.3854 64.6206 41.0648L65.1235 40.4236C65.3749 40.103 65.934 40.0246 66.2417 40.2667L70.7596 44.3398C71.0673 44.5819 71.1236 45.1446 70.8721 45.4652L70.3693 46.1063C70.2717 46.548 69.7126 46.6264 69.2511 46.2633Z" fill="#DD821F"/>
<path d="M63.6286 53.6596L59.2928 49.9888C58.9851 49.7467 58.9288 49.184 59.1802 48.8634L59.6831 48.2222C59.9345 47.9016 60.4936 47.8232 60.8013 48.0653L65.1372 51.736C65.4449 51.9781 65.5011 52.5408 65.2497 52.8614L64.7468 53.5026C64.5235 54.1045 63.9644 54.183 63.6286 53.6596Z" fill="#DD821F"/>
<path d="M59.429 62.4409L55.2479 58.8928C54.9402 58.6508 54.884 58.0883 55.1353 57.7679L55.638 57.1271C55.8893 56.8067 56.4482 56.7283 56.7559 56.9703L60.937 60.5185C61.2446 60.7605 61.301 61.3229 61.0496 61.6433L60.547 62.2841C60.17 62.7647 59.611 62.8431 59.429 62.4409Z" fill="#DD821F"/>
<path d="M56.9635 72.856L52.4729 69.0624C52.1651 68.8202 52.1088 68.2573 52.3602 67.9366L52.8631 67.2952C53.1145 66.9745 53.6737 66.896 53.9815 67.1382L58.4721 70.9319C58.7798 71.1741 58.8361 71.737 58.5847 72.0577L58.0818 72.699C57.9843 73.1408 57.4251 73.2193 56.9635 72.856Z" fill="#DD821F"/>
<g opacity="0.56" filter="url(#filter0_f)">
<path d="M56.8268 121.528L49.5299 115.257L46.5727 109.807L51.1512 111.596L56.8268 121.528Z" fill="#DD821F"/>
<path d="M121.611 42.776L114.516 36.7114C114.516 36.7114 115.662 48.1241 115.815 48.2439C115.968 48.3636 121.611 42.776 121.611 42.776Z" fill="#FFD85A"/>
<path d="M111.192 100.124C93.0187 122.19 67.7767 131.333 49.068 115.96C30.3593 100.587 29.9669 70.1523 48.1404 48.0861C66.3139 26.0199 96.4411 20.6912 115.15 36.0645C134.011 51.5569 129.518 78.1769 111.192 100.124Z" fill="#FFD85A"/>
<path d="M122.517 42.5653C141.292 57.9835 141.726 88.3241 123.488 110.333C105.25 132.342 75.2456 137.685 56.4713 122.267C37.697 106.848 37.2623 76.5076 55.5004 54.4988C73.7386 32.4899 103.743 27.1471 122.517 42.5653Z" fill="#FFD85A"/>
<path d="M42.3167 91.324C42.5596 103.528 47.3412 114.676 56.7156 122.511C75.4366 137.902 105.584 132.567 123.77 110.475C132.815 99.6468 137.263 86.5064 137.173 74.4216L42.3167 91.324Z" fill="#DD821F"/>
<path d="M121.103 44.2715C139.051 59.0103 139.448 88.0362 121.99 109.103C104.533 130.169 75.8319 135.299 57.8848 120.56C39.9378 105.821 39.5408 76.7953 56.9981 55.7288C74.4555 34.6623 103.156 29.5327 121.103 44.2715Z" fill="#F9BF30"/>
<path d="M114.808 51.8689C129.199 63.6873 129.531 86.9443 115.551 103.815C101.571 120.685 78.5717 124.781 64.1808 112.963C49.7899 101.144 49.457 77.8872 63.4372 61.0166C77.4175 44.146 100.417 40.0505 114.808 51.8689Z" fill="#F2B42A"/>
<path d="M115.005 52.3631C114.396 51.8891 113.788 51.4151 113.179 50.9412C125.905 63.1367 125.59 84.9688 112.236 101.213C98.8536 117.182 77.3079 121.718 62.8421 111.72C63.4507 112.194 63.9349 112.825 64.5434 113.299C78.8999 124.988 101.759 120.968 115.763 104.214C129.738 87.1848 129.361 64.0523 115.005 52.3631Z" fill="#FFD85A"/>
<path d="M96.7791 78.14L86.0049 79.9221C82.5193 87.1338 75.8662 100.532 70.7763 111.33C79.0744 114.237 89.0455 112.847 97.6709 107.862L96.7791 78.14Z" fill="#FFD85A"/>
<path d="M105.932 102.109C106.833 101.283 107.705 100.179 108.577 99.0757C114.712 91.6282 117.783 83.065 117.778 74.6503L100.249 77.7961L105.932 102.109Z" fill="#FFD85A"/>
<path d="M74.156 81.4018L53.8772 84.9277C53.9925 91.6325 54.9382 98.2215 59.2192 103.086L74.156 81.4018Z" fill="#FFD85A"/>
<path d="M65.3539 64.9108C79.3891 48.0977 102.422 43.9055 116.684 55.7926C119.733 58.1706 121.854 61.0985 123.573 64.2224C121.686 59.4399 118.719 55.0883 114.728 51.7205C100.342 39.9909 77.4333 44.0256 63.3982 60.8387C52.2559 74.3052 50.2309 91.8266 57.1095 104.322C52.6552 92.1894 55.3328 76.9597 65.3539 64.9108Z" fill="#DD821F"/>
<path d="M49.3718 115.295C52.2931 117.592 54.0405 119.483 57.3106 121.019C55.297 117.882 48.3484 109.313 48.3484 109.313L44.0963 100.793L44.1078 96.6609L44.5509 89.7613L35.1158 81.8262C34.7043 94.7041 39.4756 106.997 49.3718 115.295Z" fill="#DD821F"/>
<path d="M109.967 37.2245L108.094 35.4945C107.787 35.253 107.759 34.9723 108.01 34.6525L108.136 34.4925C108.387 34.1726 108.82 34.2542 108.974 34.375L110.846 36.1049C111.153 36.3464 111.181 36.6271 110.93 36.947L110.805 37.1069C110.553 37.4268 109.995 37.5052 109.967 37.2245Z" fill="#DD821F"/>
<path d="M99.3896 34.6353L95.9755 31.6885C95.6677 31.4462 95.6114 30.8831 95.8629 30.5623L96.1145 30.2414C96.366 29.9206 96.9252 29.8421 97.1073 30.2448L100.521 33.1915C100.829 33.4338 100.885 33.997 100.634 34.3178L100.382 34.6386C100.131 34.9594 99.6974 34.8776 99.3896 34.6353Z" fill="#DD821F"/>
<path d="M88.9145 34.144L85.5046 31.2052C85.1971 30.9636 85.141 30.4019 85.3922 30.0819L85.8946 29.442C86.1458 29.122 86.7044 29.0436 87.0118 29.2853L90.4217 32.2241C90.7291 32.4658 90.7854 33.0274 90.5342 33.3474L90.0318 33.9874C89.655 34.4673 89.2219 34.3856 88.9145 34.144Z" fill="#DD821F"/>
<path d="M77.7137 37.1124L73.6864 33.6854C73.3788 33.4434 73.3225 32.881 73.5739 32.5605L74.0766 31.9197C74.328 31.5992 74.887 31.5208 75.1946 31.7628L79.2219 35.1898C79.5296 35.4318 79.5858 35.9943 79.3345 36.3147L78.8317 36.9556C78.4547 37.4362 78.0214 37.3544 77.7137 37.1124Z" fill="#DD821F"/>
<path d="M68.2464 41.7118L63.7286 37.639C63.421 37.3969 63.3647 36.8343 63.6161 36.5137L64.119 35.8726C64.3704 35.552 64.9295 35.4735 65.2372 35.7156L69.7549 39.7884C70.0626 40.0305 70.1189 40.5932 69.8674 40.9137L69.3646 41.5548C69.1132 41.8754 68.5541 41.9539 68.2464 41.7118Z" fill="#DD821F"/>
<path d="M60.301 47.2634L55.8106 43.47C55.5029 43.2278 55.4465 42.665 55.698 42.3443L56.2009 41.7029C56.4523 41.3822 57.0115 41.3037 57.3192 41.5459L61.8097 45.3393C62.1175 45.5815 62.1737 46.1444 61.9223 46.4651L61.4194 47.1064C61.168 47.4271 60.6088 47.5056 60.301 47.2634Z" fill="#DD821F"/>
<path d="M53.6218 54.0785L49.1039 50.0054C48.7962 49.7633 48.74 49.2006 48.9914 48.88L49.4942 48.2388C49.7457 47.9182 50.3048 47.8398 50.6125 48.0819L55.1303 52.155C55.438 52.3971 55.4943 52.9598 55.2429 53.2804L54.74 53.9215C54.6425 54.3632 54.0834 54.4416 53.6218 54.0785Z" fill="#DD821F"/>
<path d="M47.9992 61.4744L43.6634 57.8037C43.3557 57.5616 43.2994 56.999 43.5508 56.6784L44.0536 56.0373C44.305 55.7168 44.8641 55.6383 45.1718 55.8804L49.5076 59.551C49.8153 59.7931 49.8715 60.3558 49.6201 60.6764L49.1173 61.3175C48.8941 61.9193 48.335 61.9978 47.9992 61.4744Z" fill="#DD821F"/>
<path d="M43.7996 70.256L39.6184 66.708C39.3108 66.466 39.2546 65.9035 39.5059 65.5831L40.0086 64.9423C40.2599 64.6219 40.8188 64.5435 41.1265 64.7855L45.3076 68.3336C45.6152 68.5756 45.6716 69.138 45.4202 69.4585L44.9175 70.0993C44.5405 70.5799 43.9815 70.6582 43.7996 70.256Z" fill="#DD821F"/>
<path d="M41.3341 80.6713L36.8435 76.8776C36.5357 76.6354 36.4794 76.0725 36.7308 75.7518L37.2337 75.1104C37.4851 74.7897 38.0443 74.7112 38.3521 74.9534L42.8428 78.7471C43.1505 78.9894 43.2068 79.5523 42.9554 79.8729L42.4525 80.5143C42.355 80.9561 41.7958 81.0346 41.3341 80.6713Z" fill="#DD821F"/>
</g>
<defs>
<filter id="filter0_f" x="24.7689" y="17.2878" width="122.405" height="124.01" filterUnits="userSpaceOnUse" color-interpolation-filters="sRGB">
<feFlood flood-opacity="0" result="BackgroundImageFix"/>
<feBlend mode="normal" in="SourceGraphic" in2="BackgroundImageFix" result="shape"/>
<feGaussianBlur stdDeviation="5" result="effect1_foregroundBlur"/>
</filter>
</defs>
</svg>
