<svg width="1600" height="1939" viewBox="0 0 1600 1939" fill="none" xmlns="http://www.w3.org/2000/svg">
<path fill-rule="evenodd" clip-rule="evenodd" d="M1617.59 198.721H-17.5977V0C254.934 60.5626 527.466 90.8439 799.997 90.8439C1072.53 90.8439 1345.06 60.5626 1617.59 0V198.721Z" fill="#FFEAED"/>
<rect x="-17.5977" y="198.721" width="1635.19" height="1739.66" fill="url(#paint110_linear)"/>
<path d="M1367.61 276.304C1367.61 278.129 1366.13 279.609 1364.3 279.609C1362.48 279.609 1361 278.129 1361 276.304C1361 274.479 1362.48 273 1364.3 273C1366.13 273 1367.61 274.479 1367.61 276.304Z" fill="#E84E57"/>
<path d="M1367.61 276.304C1367.61 278.129 1366.13 279.609 1364.3 279.609C1362.48 279.609 1361 278.129 1361 276.304C1361 274.479 1362.48 273 1364.3 273C1366.13 273 1367.61 274.479 1367.61 276.304Z" fill="url(#paint1_linear)" fill-opacity="0.45"/>
<path d="M1367.61 276.304C1367.61 278.129 1366.13 279.609 1364.3 279.609C1362.48 279.609 1361 278.129 1361 276.304C1361 274.479 1362.48 273 1364.3 273C1366.13 273 1367.61 274.479 1367.61 276.304Z" fill="white"/>
<path d="M1367.61 276.304C1367.61 278.129 1366.13 279.609 1364.3 279.609C1362.48 279.609 1361 278.129 1361 276.304C1361 274.479 1362.48 273 1364.3 273C1366.13 273 1367.61 274.479 1367.61 276.304Z" fill="url(#paint2_linear)"/>
<path d="M1416.07 276.304C1416.07 278.129 1414.59 279.609 1412.77 279.609C1410.94 279.609 1409.46 278.129 1409.46 276.304C1409.46 274.479 1410.94 273 1412.77 273C1414.59 273 1416.07 274.479 1416.07 276.304Z" fill="#E84E57"/>
<path d="M1416.07 276.304C1416.07 278.129 1414.59 279.609 1412.77 279.609C1410.94 279.609 1409.46 278.129 1409.46 276.304C1409.46 274.479 1410.94 273 1412.77 273C1414.59 273 1416.07 274.479 1416.07 276.304Z" fill="url(#paint3_linear)" fill-opacity="0.45"/>
<path d="M1416.07 276.304C1416.07 278.129 1414.59 279.609 1412.77 279.609C1410.94 279.609 1409.46 278.129 1409.46 276.304C1409.46 274.479 1410.94 273 1412.77 273C1414.59 273 1416.07 274.479 1416.07 276.304Z" fill="white"/>
<path d="M1416.07 276.304C1416.07 278.129 1414.59 279.609 1412.77 279.609C1410.94 279.609 1409.46 278.129 1409.46 276.304C1409.46 274.479 1410.94 273 1412.77 273C1414.59 273 1416.07 274.479 1416.07 276.304Z" fill="url(#paint4_linear)"/>
<path d="M1464.54 276.304C1464.54 278.129 1463.06 279.609 1461.23 279.609C1459.41 279.609 1457.93 278.129 1457.93 276.304C1457.93 274.479 1459.41 273 1461.23 273C1463.06 273 1464.54 274.479 1464.54 276.304Z" fill="#E84E57"/>
<path d="M1464.54 276.304C1464.54 278.129 1463.06 279.609 1461.23 279.609C1459.41 279.609 1457.93 278.129 1457.93 276.304C1457.93 274.479 1459.41 273 1461.23 273C1463.06 273 1464.54 274.479 1464.54 276.304Z" fill="url(#paint5_linear)" fill-opacity="0.45"/>
<path d="M1464.54 276.304C1464.54 278.129 1463.06 279.609 1461.23 279.609C1459.41 279.609 1457.93 278.129 1457.93 276.304C1457.93 274.479 1459.41 273 1461.23 273C1463.06 273 1464.54 274.479 1464.54 276.304Z" fill="white"/>
<path d="M1464.54 276.304C1464.54 278.129 1463.06 279.609 1461.23 279.609C1459.41 279.609 1457.93 278.129 1457.93 276.304C1457.93 274.479 1459.41 273 1461.23 273C1463.06 273 1464.54 274.479 1464.54 276.304Z" fill="url(#paint6_linear)"/>
<path d="M1513 276.304C1513 278.129 1511.52 279.609 1509.7 279.609C1507.87 279.609 1506.39 278.129 1506.39 276.304C1506.39 274.479 1507.87 273 1509.7 273C1511.52 273 1513 274.479 1513 276.304Z" fill="#E84E57"/>
<path d="M1513 276.304C1513 278.129 1511.52 279.609 1509.7 279.609C1507.87 279.609 1506.39 278.129 1506.39 276.304C1506.39 274.479 1507.87 273 1509.7 273C1511.52 273 1513 274.479 1513 276.304Z" fill="url(#paint7_linear)" fill-opacity="0.45"/>
<path d="M1513 276.304C1513 278.129 1511.52 279.609 1509.7 279.609C1507.87 279.609 1506.39 278.129 1506.39 276.304C1506.39 274.479 1507.87 273 1509.7 273C1511.52 273 1513 274.479 1513 276.304Z" fill="white"/>
<path d="M1513 276.304C1513 278.129 1511.52 279.609 1509.7 279.609C1507.87 279.609 1506.39 278.129 1506.39 276.304C1506.39 274.479 1507.87 273 1509.7 273C1511.52 273 1513 274.479 1513 276.304Z" fill="url(#paint8_linear)"/>
<path d="M1367.61 324.768C1367.61 326.593 1366.13 328.072 1364.3 328.072C1362.48 328.072 1361 326.593 1361 324.768C1361 322.943 1362.48 321.464 1364.3 321.464C1366.13 321.464 1367.61 322.943 1367.61 324.768Z" fill="#E84E57"/>
<path d="M1367.61 324.768C1367.61 326.593 1366.13 328.072 1364.3 328.072C1362.48 328.072 1361 326.593 1361 324.768C1361 322.943 1362.48 321.464 1364.3 321.464C1366.13 321.464 1367.61 322.943 1367.61 324.768Z" fill="url(#paint9_linear)" fill-opacity="0.45"/>
<path d="M1367.61 324.768C1367.61 326.593 1366.13 328.072 1364.3 328.072C1362.48 328.072 1361 326.593 1361 324.768C1361 322.943 1362.48 321.464 1364.3 321.464C1366.13 321.464 1367.61 322.943 1367.61 324.768Z" fill="white"/>
<path d="M1367.61 324.768C1367.61 326.593 1366.13 328.072 1364.3 328.072C1362.48 328.072 1361 326.593 1361 324.768C1361 322.943 1362.48 321.464 1364.3 321.464C1366.13 321.464 1367.61 322.943 1367.61 324.768Z" fill="url(#paint10_linear)"/>
<path d="M1416.07 324.768C1416.07 326.593 1414.59 328.072 1412.77 328.072C1410.94 328.072 1409.46 326.593 1409.46 324.768C1409.46 322.943 1410.94 321.464 1412.77 321.464C1414.59 321.464 1416.07 322.943 1416.07 324.768Z" fill="#E84E57"/>
<path d="M1416.07 324.768C1416.07 326.593 1414.59 328.072 1412.77 328.072C1410.94 328.072 1409.46 326.593 1409.46 324.768C1409.46 322.943 1410.94 321.464 1412.77 321.464C1414.59 321.464 1416.07 322.943 1416.07 324.768Z" fill="url(#paint11_linear)" fill-opacity="0.45"/>
<path d="M1416.07 324.768C1416.07 326.593 1414.59 328.072 1412.77 328.072C1410.94 328.072 1409.46 326.593 1409.46 324.768C1409.46 322.943 1410.94 321.464 1412.77 321.464C1414.59 321.464 1416.07 322.943 1416.07 324.768Z" fill="white"/>
<path d="M1416.07 324.768C1416.07 326.593 1414.59 328.072 1412.77 328.072C1410.94 328.072 1409.46 326.593 1409.46 324.768C1409.46 322.943 1410.94 321.464 1412.77 321.464C1414.59 321.464 1416.07 322.943 1416.07 324.768Z" fill="url(#paint12_linear)"/>
<path d="M1464.54 324.768C1464.54 326.593 1463.06 328.072 1461.23 328.072C1459.41 328.072 1457.93 326.593 1457.93 324.768C1457.93 322.943 1459.41 321.464 1461.23 321.464C1463.06 321.464 1464.54 322.943 1464.54 324.768Z" fill="#E84E57"/>
<path d="M1464.54 324.768C1464.54 326.593 1463.06 328.072 1461.23 328.072C1459.41 328.072 1457.93 326.593 1457.93 324.768C1457.93 322.943 1459.41 321.464 1461.23 321.464C1463.06 321.464 1464.54 322.943 1464.54 324.768Z" fill="url(#paint13_linear)" fill-opacity="0.45"/>
<path d="M1464.54 324.768C1464.54 326.593 1463.06 328.072 1461.23 328.072C1459.41 328.072 1457.93 326.593 1457.93 324.768C1457.93 322.943 1459.41 321.464 1461.23 321.464C1463.06 321.464 1464.54 322.943 1464.54 324.768Z" fill="white"/>
<path d="M1464.54 324.768C1464.54 326.593 1463.06 328.072 1461.23 328.072C1459.41 328.072 1457.93 326.593 1457.93 324.768C1457.93 322.943 1459.41 321.464 1461.23 321.464C1463.06 321.464 1464.54 322.943 1464.54 324.768Z" fill="url(#paint14_linear)"/>
<path d="M1513 324.768C1513 326.593 1511.52 328.072 1509.7 328.072C1507.87 328.072 1506.39 326.593 1506.39 324.768C1506.39 322.943 1507.87 321.464 1509.7 321.464C1511.52 321.464 1513 322.943 1513 324.768Z" fill="#E84E57"/>
<path d="M1513 324.768C1513 326.593 1511.52 328.072 1509.7 328.072C1507.87 328.072 1506.39 326.593 1506.39 324.768C1506.39 322.943 1507.87 321.464 1509.7 321.464C1511.52 321.464 1513 322.943 1513 324.768Z" fill="url(#paint15_linear)" fill-opacity="0.45"/>
<path d="M1513 324.768C1513 326.593 1511.52 328.072 1509.7 328.072C1507.87 328.072 1506.39 326.593 1506.39 324.768C1506.39 322.943 1507.87 321.464 1509.7 321.464C1511.52 321.464 1513 322.943 1513 324.768Z" fill="white"/>
<path d="M1513 324.768C1513 326.593 1511.52 328.072 1509.7 328.072C1507.87 328.072 1506.39 326.593 1506.39 324.768C1506.39 322.943 1507.87 321.464 1509.7 321.464C1511.52 321.464 1513 322.943 1513 324.768Z" fill="url(#paint16_linear)"/>
<path d="M1367.61 373.232C1367.61 375.057 1366.13 376.536 1364.3 376.536C1362.48 376.536 1361 375.057 1361 373.232C1361 371.407 1362.48 369.928 1364.3 369.928C1366.13 369.928 1367.61 371.407 1367.61 373.232Z" fill="#E84E57"/>
<path d="M1367.61 373.232C1367.61 375.057 1366.13 376.536 1364.3 376.536C1362.48 376.536 1361 375.057 1361 373.232C1361 371.407 1362.48 369.928 1364.3 369.928C1366.13 369.928 1367.61 371.407 1367.61 373.232Z" fill="url(#paint17_linear)" fill-opacity="0.45"/>
<path d="M1367.61 373.232C1367.61 375.057 1366.13 376.536 1364.3 376.536C1362.48 376.536 1361 375.057 1361 373.232C1361 371.407 1362.48 369.928 1364.3 369.928C1366.13 369.928 1367.61 371.407 1367.61 373.232Z" fill="white"/>
<path d="M1367.61 373.232C1367.61 375.057 1366.13 376.536 1364.3 376.536C1362.48 376.536 1361 375.057 1361 373.232C1361 371.407 1362.48 369.928 1364.3 369.928C1366.13 369.928 1367.61 371.407 1367.61 373.232Z" fill="url(#paint18_linear)"/>
<path d="M1416.07 373.232C1416.07 375.057 1414.59 376.536 1412.77 376.536C1410.94 376.536 1409.46 375.057 1409.46 373.232C1409.46 371.407 1410.94 369.928 1412.77 369.928C1414.59 369.928 1416.07 371.407 1416.07 373.232Z" fill="#E84E57"/>
<path d="M1416.07 373.232C1416.07 375.057 1414.59 376.536 1412.77 376.536C1410.94 376.536 1409.46 375.057 1409.46 373.232C1409.46 371.407 1410.94 369.928 1412.77 369.928C1414.59 369.928 1416.07 371.407 1416.07 373.232Z" fill="url(#paint19_linear)" fill-opacity="0.45"/>
<path d="M1416.07 373.232C1416.07 375.057 1414.59 376.536 1412.77 376.536C1410.94 376.536 1409.46 375.057 1409.46 373.232C1409.46 371.407 1410.94 369.928 1412.77 369.928C1414.59 369.928 1416.07 371.407 1416.07 373.232Z" fill="white"/>
<path d="M1416.07 373.232C1416.07 375.057 1414.59 376.536 1412.77 376.536C1410.94 376.536 1409.46 375.057 1409.46 373.232C1409.46 371.407 1410.94 369.928 1412.77 369.928C1414.59 369.928 1416.07 371.407 1416.07 373.232Z" fill="url(#paint20_linear)"/>
<path d="M1464.54 373.232C1464.54 375.057 1463.06 376.536 1461.23 376.536C1459.41 376.536 1457.93 375.057 1457.93 373.232C1457.93 371.407 1459.41 369.928 1461.23 369.928C1463.06 369.928 1464.54 371.407 1464.54 373.232Z" fill="#E84E57"/>
<path d="M1464.54 373.232C1464.54 375.057 1463.06 376.536 1461.23 376.536C1459.41 376.536 1457.93 375.057 1457.93 373.232C1457.93 371.407 1459.41 369.928 1461.23 369.928C1463.06 369.928 1464.54 371.407 1464.54 373.232Z" fill="url(#paint21_linear)" fill-opacity="0.45"/>
<path d="M1464.54 373.232C1464.54 375.057 1463.06 376.536 1461.23 376.536C1459.41 376.536 1457.93 375.057 1457.93 373.232C1457.93 371.407 1459.41 369.928 1461.23 369.928C1463.06 369.928 1464.54 371.407 1464.54 373.232Z" fill="white"/>
<path d="M1464.54 373.232C1464.54 375.057 1463.06 376.536 1461.23 376.536C1459.41 376.536 1457.93 375.057 1457.93 373.232C1457.93 371.407 1459.41 369.928 1461.23 369.928C1463.06 369.928 1464.54 371.407 1464.54 373.232Z" fill="url(#paint22_linear)"/>
<path d="M1513 373.232C1513 375.057 1511.52 376.536 1509.7 376.536C1507.87 376.536 1506.39 375.057 1506.39 373.232C1506.39 371.407 1507.87 369.928 1509.7 369.928C1511.52 369.928 1513 371.407 1513 373.232Z" fill="#E84E57"/>
<path d="M1513 373.232C1513 375.057 1511.52 376.536 1509.7 376.536C1507.87 376.536 1506.39 375.057 1506.39 373.232C1506.39 371.407 1507.87 369.928 1509.7 369.928C1511.52 369.928 1513 371.407 1513 373.232Z" fill="url(#paint23_linear)" fill-opacity="0.45"/>
<path d="M1513 373.232C1513 375.057 1511.52 376.536 1509.7 376.536C1507.87 376.536 1506.39 375.057 1506.39 373.232C1506.39 371.407 1507.87 369.928 1509.7 369.928C1511.52 369.928 1513 371.407 1513 373.232Z" fill="white"/>
<path d="M1513 373.232C1513 375.057 1511.52 376.536 1509.7 376.536C1507.87 376.536 1506.39 375.057 1506.39 373.232C1506.39 371.407 1507.87 369.928 1509.7 369.928C1511.52 369.928 1513 371.407 1513 373.232Z" fill="url(#paint24_linear)"/>
<path d="M1367.61 421.696C1367.61 423.521 1366.13 425 1364.3 425C1362.48 425 1361 423.521 1361 421.696C1361 419.871 1362.48 418.391 1364.3 418.391C1366.13 418.391 1367.61 419.871 1367.61 421.696Z" fill="#E84E57"/>
<path d="M1367.61 421.696C1367.61 423.521 1366.13 425 1364.3 425C1362.48 425 1361 423.521 1361 421.696C1361 419.871 1362.48 418.391 1364.3 418.391C1366.13 418.391 1367.61 419.871 1367.61 421.696Z" fill="url(#paint25_linear)" fill-opacity="0.45"/>
<path d="M1367.61 421.696C1367.61 423.521 1366.13 425 1364.3 425C1362.48 425 1361 423.521 1361 421.696C1361 419.871 1362.48 418.391 1364.3 418.391C1366.13 418.391 1367.61 419.871 1367.61 421.696Z" fill="white"/>
<path d="M1367.61 421.696C1367.61 423.521 1366.13 425 1364.3 425C1362.48 425 1361 423.521 1361 421.696C1361 419.871 1362.48 418.391 1364.3 418.391C1366.13 418.391 1367.61 419.871 1367.61 421.696Z" fill="url(#paint26_linear)"/>
<path d="M1416.07 421.696C1416.07 423.521 1414.59 425 1412.77 425C1410.94 425 1409.46 423.521 1409.46 421.696C1409.46 419.871 1410.94 418.391 1412.77 418.391C1414.59 418.391 1416.07 419.871 1416.07 421.696Z" fill="#E84E57"/>
<path d="M1416.07 421.696C1416.07 423.521 1414.59 425 1412.77 425C1410.94 425 1409.46 423.521 1409.46 421.696C1409.46 419.871 1410.94 418.391 1412.77 418.391C1414.59 418.391 1416.07 419.871 1416.07 421.696Z" fill="url(#paint27_linear)" fill-opacity="0.45"/>
<path d="M1416.07 421.696C1416.07 423.521 1414.59 425 1412.77 425C1410.94 425 1409.46 423.521 1409.46 421.696C1409.46 419.871 1410.94 418.391 1412.77 418.391C1414.59 418.391 1416.07 419.871 1416.07 421.696Z" fill="white"/>
<path d="M1416.07 421.696C1416.07 423.521 1414.59 425 1412.77 425C1410.94 425 1409.46 423.521 1409.46 421.696C1409.46 419.871 1410.94 418.391 1412.77 418.391C1414.59 418.391 1416.07 419.871 1416.07 421.696Z" fill="url(#paint28_linear)"/>
<path d="M1464.54 421.696C1464.54 423.521 1463.06 425 1461.23 425C1459.41 425 1457.93 423.521 1457.93 421.696C1457.93 419.871 1459.41 418.391 1461.23 418.391C1463.06 418.391 1464.54 419.871 1464.54 421.696Z" fill="#E84E57"/>
<path d="M1464.54 421.696C1464.54 423.521 1463.06 425 1461.23 425C1459.41 425 1457.93 423.521 1457.93 421.696C1457.93 419.871 1459.41 418.391 1461.23 418.391C1463.06 418.391 1464.54 419.871 1464.54 421.696Z" fill="url(#paint29_linear)" fill-opacity="0.45"/>
<path d="M1464.54 421.696C1464.54 423.521 1463.06 425 1461.23 425C1459.41 425 1457.93 423.521 1457.93 421.696C1457.93 419.871 1459.41 418.391 1461.23 418.391C1463.06 418.391 1464.54 419.871 1464.54 421.696Z" fill="white"/>
<path d="M1464.54 421.696C1464.54 423.521 1463.06 425 1461.23 425C1459.41 425 1457.93 423.521 1457.93 421.696C1457.93 419.871 1459.41 418.391 1461.23 418.391C1463.06 418.391 1464.54 419.871 1464.54 421.696Z" fill="url(#paint30_linear)"/>
<path d="M1513 421.696C1513 423.521 1511.52 425 1509.7 425C1507.87 425 1506.39 423.521 1506.39 421.696C1506.39 419.871 1507.87 418.391 1509.7 418.391C1511.52 418.391 1513 419.871 1513 421.696Z" fill="#E84E57"/>
<path d="M1513 421.696C1513 423.521 1511.52 425 1509.7 425C1507.87 425 1506.39 423.521 1506.39 421.696C1506.39 419.871 1507.87 418.391 1509.7 418.391C1511.52 418.391 1513 419.871 1513 421.696Z" fill="url(#paint31_linear)" fill-opacity="0.45"/>
<path d="M1513 421.696C1513 423.521 1511.52 425 1509.7 425C1507.87 425 1506.39 423.521 1506.39 421.696C1506.39 419.871 1507.87 418.391 1509.7 418.391C1511.52 418.391 1513 419.871 1513 421.696Z" fill="white"/>
<path d="M1513 421.696C1513 423.521 1511.52 425 1509.7 425C1507.87 425 1506.39 423.521 1506.39 421.696C1506.39 419.871 1507.87 418.391 1509.7 418.391C1511.52 418.391 1513 419.871 1513 421.696Z" fill="url(#paint32_linear)"/>
<defs>
<linearGradient id="paint110_linear" x1="-17.5977" y1="198.721" x2="-17.5977" y2="1938.38" gradientUnits="userSpaceOnUse">
<stop stop-color="#FFEAED"/>
<stop offset="1" stop-color="#FAFBFB" stop-opacity="0.01"/>
</linearGradient>
<linearGradient id="paint1_linear" x1="1481.11" y1="371.429" x2="1405.64" y2="315.307" gradientUnits="userSpaceOnUse">
<stop stop-color="#FF2969"/>
<stop offset="1" stop-color="#F77A1C"/>
</linearGradient>
<linearGradient id="paint2_linear" x1="1437" y1="273" x2="1441.23" y2="523.527" gradientUnits="userSpaceOnUse">
<stop stop-color="#FFB547"/>
<stop offset="1" stop-color="#FF6767"/>
</linearGradient>
<linearGradient id="paint3_linear" x1="1481.11" y1="371.429" x2="1405.64" y2="315.307" gradientUnits="userSpaceOnUse">
<stop stop-color="#FF2969"/>
<stop offset="1" stop-color="#F77A1C"/>
</linearGradient>
<linearGradient id="paint4_linear" x1="1437" y1="273" x2="1441.23" y2="523.527" gradientUnits="userSpaceOnUse">
<stop stop-color="#FFB547"/>
<stop offset="1" stop-color="#FF6767"/>
</linearGradient>
<linearGradient id="paint5_linear" x1="1481.11" y1="371.429" x2="1405.64" y2="315.307" gradientUnits="userSpaceOnUse">
<stop stop-color="#FF2969"/>
<stop offset="1" stop-color="#F77A1C"/>
</linearGradient>
<linearGradient id="paint6_linear" x1="1437" y1="273" x2="1441.23" y2="523.527" gradientUnits="userSpaceOnUse">
<stop stop-color="#FFB547"/>
<stop offset="1" stop-color="#FF6767"/>
</linearGradient>
<linearGradient id="paint7_linear" x1="1481.11" y1="371.429" x2="1405.64" y2="315.307" gradientUnits="userSpaceOnUse">
<stop stop-color="#FF2969"/>
<stop offset="1" stop-color="#F77A1C"/>
</linearGradient>
<linearGradient id="paint8_linear" x1="1437" y1="273" x2="1441.23" y2="523.527" gradientUnits="userSpaceOnUse">
<stop stop-color="#FFB547"/>
<stop offset="1" stop-color="#FF6767"/>
</linearGradient>
<linearGradient id="paint9_linear" x1="1481.11" y1="371.429" x2="1405.64" y2="315.307" gradientUnits="userSpaceOnUse">
<stop stop-color="#FF2969"/>
<stop offset="1" stop-color="#F77A1C"/>
</linearGradient>
<linearGradient id="paint10_linear" x1="1437" y1="273" x2="1441.23" y2="523.527" gradientUnits="userSpaceOnUse">
<stop stop-color="#FFB547"/>
<stop offset="1" stop-color="#FF6767"/>
</linearGradient>
<linearGradient id="paint11_linear" x1="1481.11" y1="371.429" x2="1405.64" y2="315.307" gradientUnits="userSpaceOnUse">
<stop stop-color="#FF2969"/>
<stop offset="1" stop-color="#F77A1C"/>
</linearGradient>
<linearGradient id="paint12_linear" x1="1437" y1="273" x2="1441.23" y2="523.527" gradientUnits="userSpaceOnUse">
<stop stop-color="#FFB547"/>
<stop offset="1" stop-color="#FF6767"/>
</linearGradient>
<linearGradient id="paint13_linear" x1="1481.11" y1="371.429" x2="1405.64" y2="315.307" gradientUnits="userSpaceOnUse">
<stop stop-color="#FF2969"/>
<stop offset="1" stop-color="#F77A1C"/>
</linearGradient>
<linearGradient id="paint14_linear" x1="1437" y1="273" x2="1441.23" y2="523.527" gradientUnits="userSpaceOnUse">
<stop stop-color="#FFB547"/>
<stop offset="1" stop-color="#FF6767"/>
</linearGradient>
<linearGradient id="paint15_linear" x1="1481.11" y1="371.429" x2="1405.64" y2="315.307" gradientUnits="userSpaceOnUse">
<stop stop-color="#FF2969"/>
<stop offset="1" stop-color="#F77A1C"/>
</linearGradient>
<linearGradient id="paint16_linear" x1="1437" y1="273" x2="1441.23" y2="523.527" gradientUnits="userSpaceOnUse">
<stop stop-color="#FFB547"/>
<stop offset="1" stop-color="#FF6767"/>
</linearGradient>
<linearGradient id="paint17_linear" x1="1481.11" y1="371.429" x2="1405.64" y2="315.307" gradientUnits="userSpaceOnUse">
<stop stop-color="#FF2969"/>
<stop offset="1" stop-color="#F77A1C"/>
</linearGradient>
<linearGradient id="paint18_linear" x1="1437" y1="273" x2="1441.23" y2="523.527" gradientUnits="userSpaceOnUse">
<stop stop-color="#FFB547"/>
<stop offset="1" stop-color="#FF6767"/>
</linearGradient>
<linearGradient id="paint19_linear" x1="1481.11" y1="371.429" x2="1405.64" y2="315.307" gradientUnits="userSpaceOnUse">
<stop stop-color="#FF2969"/>
<stop offset="1" stop-color="#F77A1C"/>
</linearGradient>
<linearGradient id="paint20_linear" x1="1437" y1="273" x2="1441.23" y2="523.527" gradientUnits="userSpaceOnUse">
<stop stop-color="#FFB547"/>
<stop offset="1" stop-color="#FF6767"/>
</linearGradient>
<linearGradient id="paint21_linear" x1="1481.11" y1="371.429" x2="1405.64" y2="315.307" gradientUnits="userSpaceOnUse">
<stop stop-color="#FF2969"/>
<stop offset="1" stop-color="#F77A1C"/>
</linearGradient>
<linearGradient id="paint22_linear" x1="1437" y1="273" x2="1441.23" y2="523.527" gradientUnits="userSpaceOnUse">
<stop stop-color="#FFB547"/>
<stop offset="1" stop-color="#FF6767"/>
</linearGradient>
<linearGradient id="paint23_linear" x1="1481.11" y1="371.429" x2="1405.64" y2="315.307" gradientUnits="userSpaceOnUse">
<stop stop-color="#FF2969"/>
<stop offset="1" stop-color="#F77A1C"/>
</linearGradient>
<linearGradient id="paint24_linear" x1="1437" y1="273" x2="1441.23" y2="523.527" gradientUnits="userSpaceOnUse">
<stop stop-color="#FFB547"/>
<stop offset="1" stop-color="#FF6767"/>
</linearGradient>
<linearGradient id="paint25_linear" x1="1481.11" y1="371.429" x2="1405.64" y2="315.307" gradientUnits="userSpaceOnUse">
<stop stop-color="#FF2969"/>
<stop offset="1" stop-color="#F77A1C"/>
</linearGradient>
<linearGradient id="paint26_linear" x1="1437" y1="273" x2="1441.23" y2="523.527" gradientUnits="userSpaceOnUse">
<stop stop-color="#FFB547"/>
<stop offset="1" stop-color="#FF6767"/>
</linearGradient>
<linearGradient id="paint27_linear" x1="1481.11" y1="371.429" x2="1405.64" y2="315.307" gradientUnits="userSpaceOnUse">
<stop stop-color="#FF2969"/>
<stop offset="1" stop-color="#F77A1C"/>
</linearGradient>
<linearGradient id="paint28_linear" x1="1437" y1="273" x2="1441.23" y2="523.527" gradientUnits="userSpaceOnUse">
<stop stop-color="#FFB547"/>
<stop offset="1" stop-color="#FF6767"/>
</linearGradient>
<linearGradient id="paint29_linear" x1="1481.11" y1="371.429" x2="1405.64" y2="315.307" gradientUnits="userSpaceOnUse">
<stop stop-color="#FF2969"/>
<stop offset="1" stop-color="#F77A1C"/>
</linearGradient>
<linearGradient id="paint30_linear" x1="1437" y1="273" x2="1441.23" y2="523.527" gradientUnits="userSpaceOnUse">
<stop stop-color="#FFB547"/>
<stop offset="1" stop-color="#FF6767"/>
</linearGradient>
<linearGradient id="paint31_linear" x1="1481.11" y1="371.429" x2="1405.64" y2="315.307" gradientUnits="userSpaceOnUse">
<stop stop-color="#FF2969"/>
<stop offset="1" stop-color="#F77A1C"/>
</linearGradient>
<linearGradient id="paint32_linear" x1="1437" y1="273" x2="1441.23" y2="523.527" gradientUnits="userSpaceOnUse">
<stop stop-color="#FFB547"/>
<stop offset="1" stop-color="#FF6767"/>
</linearGradient>
</defs>
</svg>
