<svg width="388" height="411" viewBox="0 0 388 411" fill="none" xmlns="http://www.w3.org/2000/svg">
<path fill-rule="evenodd" clip-rule="evenodd" d="M71.9067 139.727C70.3782 140.66 68.3354 140.162 67.3508 138.609L54.772 118.773C53.7894 117.224 54.2307 115.204 55.7625 114.269C57.2958 113.333 59.3338 113.835 60.3184 115.387L72.8972 135.223C73.8829 136.777 73.44 138.791 71.9067 139.727Z" fill="#FFAC4C"/>
<path fill-rule="evenodd" clip-rule="evenodd" d="M75.6327 123.683L55.7015 136.155C54.1445 137.13 52.0625 136.611 51.058 134.992C50.0555 133.376 50.5039 131.269 52.0641 130.293L71.9953 117.82C73.5523 116.846 75.6343 117.365 76.6388 118.984C77.6396 120.608 77.1897 122.709 75.6327 123.683Z" fill="#FFAC4C"/>
<path opacity="0.3" d="M181.922 75.7992C179.442 77.0147 176.447 75.9899 175.231 73.5104L161.541 45.5817C160.325 43.1022 161.35 40.1068 163.829 38.8913L191.758 25.2008C194.238 23.9853 197.233 25.0101 198.449 27.4896L212.139 55.4183C213.355 57.8978 212.33 60.8932 209.85 62.1087L181.922 75.7992ZM174.682 42.8658C172.204 44.0844 171.183 47.0812 172.402 49.5591L178.844 62.658C180.062 65.1359 183.059 66.1568 185.537 64.9381L198.636 58.4961C201.114 57.2774 202.135 54.2807 200.916 51.8027L194.474 38.7039C193.255 36.2259 190.259 35.205 187.781 36.4237L174.682 42.8658Z" fill="#367245"/>
<g filter="url(#filter0_d)">
<path d="M203.516 332.599C198.557 335.03 192.567 332.98 190.136 328.021L163.741 274.177C161.31 269.218 163.36 263.227 168.319 260.796L222.163 234.402C227.122 231.971 233.113 234.02 235.544 238.979L261.938 292.824C264.369 297.783 262.32 303.774 257.361 306.204L203.516 332.599ZM189.432 268.528C184.476 270.965 182.434 276.959 184.871 281.915L197.163 306.908C199.601 311.864 205.594 313.906 210.55 311.469L235.544 299.177C240.5 296.739 242.542 290.746 240.104 285.79L227.812 260.796C225.375 255.84 219.381 253.798 214.426 256.236L189.432 268.528Z" fill="#FD7968"/>
</g>
<defs>
<filter id="filter0_d" x="115.718" y="186.379" width="224.243" height="224.243" filterUnits="userSpaceOnUse" color-interpolation-filters="sRGB">
<feFlood flood-opacity="0" result="BackgroundImageFix"/>
<feColorMatrix in="SourceAlpha" type="matrix" values="0 0 0 0 0 0 0 0 0 0 0 0 0 0 0 0 0 0 127 0"/>
<feOffset dx="15" dy="15"/>
<feGaussianBlur stdDeviation="31"/>
<feColorMatrix type="matrix" values="0 0 0 0 0.223299 0 0 0 0 0.178229 0 0 0 0 0.245833 0 0 0 0.25 0"/>
<feBlend mode="normal" in2="BackgroundImageFix" result="effect1_dropShadow"/>
<feBlend mode="normal" in="SourceGraphic" in2="effect1_dropShadow" result="shape"/>
</filter>
</defs>
</svg>
