<svg width="46" height="41" viewBox="0 0 46 41" fill="none" xmlns="http://www.w3.org/2000/svg">
<path fill-rule="evenodd" clip-rule="evenodd" d="M30.907 33.5085C29.3785 34.4416 27.3357 33.9429 26.3511 32.3902L13.7725 12.5545C12.7899 11.0049 13.2312 8.98527 14.763 8.05019C16.2963 7.11415 18.3342 7.61575 19.3189 9.16851L31.8975 29.0042C32.8832 30.5586 32.4403 32.5724 30.907 33.5085Z" fill="#50A866"/>
<path fill-rule="evenodd" clip-rule="evenodd" d="M34.6332 17.464L14.702 29.9362C13.1449 30.9105 11.063 30.3916 10.0584 28.7726C9.05599 27.1569 9.50434 25.05 11.0646 24.0736L30.9958 11.6014C32.5529 10.6271 34.6349 11.146 35.6394 12.765C36.6401 14.3888 36.1903 16.4897 34.6332 17.464Z" fill="#50A866"/>
</svg>
