<svg width="1135" height="64" viewBox="0 0 1135 64" fill="none" xmlns="http://www.w3.org/2000/svg">
<path d="M1135 5.54094C1135 2.34488 1132.37 -0.227904 1129.24 0.0160262C1126.65 0.217701 1124.55 2.36792 1124.32 5.05019C1124.13 7.30382 1125.26 9.31162 1126.99 10.345C1127.97 10.9289 1128.58 11.9958 1128.58 13.1652V41.5443C1128.58 52.7222 1119.83 61.7835 1109.04 61.7835H25.9575C15.1667 61.7835 6.41898 52.7226 6.41898 41.5453V13.1652C6.41898 11.9958 7.0343 10.9289 8.01245 10.345C9.74313 9.31162 10.8662 7.30382 10.678 5.05019C10.454 2.36824 8.35179 0.217701 5.7604 0.0160262C2.626 -0.227904 0 2.34488 0 5.54094C0 7.60922 1.09991 9.41662 2.72552 10.3683C3.69408 10.9353 4.27943 12.0128 4.27943 13.1652V41.5443C4.27943 53.9464 13.9855 64 25.9587 64H1109.04C1121.01 64 1130.72 53.9464 1130.72 41.5443V13.1652C1130.72 12.0128 1131.31 10.9353 1132.27 10.3683C1133.9 9.41662 1135 7.60922 1135 5.54094ZM2.13956 5.54094C2.13956 3.70762 3.57943 2.21651 5.34905 2.21651C7.11867 2.21651 8.55854 3.70794 8.55854 5.54094C8.55854 7.37394 7.11867 8.86537 5.34905 8.86537C3.57943 8.86537 2.13956 7.37394 2.13956 5.54094ZM1129.65 8.86537C1127.88 8.86537 1126.44 7.37394 1126.44 5.54094C1126.44 3.70794 1127.88 2.21651 1129.65 2.21651C1131.42 2.21651 1132.86 3.70794 1132.86 5.54094C1132.86 7.37394 1131.42 8.86537 1129.65 8.86537Z" fill="#FF6666"/>
<path d="M1135 5.54094C1135 2.34488 1132.37 -0.227904 1129.24 0.0160262C1126.65 0.217701 1124.55 2.36792 1124.32 5.05019C1124.13 7.30382 1125.26 9.31162 1126.99 10.345C1127.97 10.9289 1128.58 11.9958 1128.58 13.1652V41.5443C1128.58 52.7222 1119.83 61.7835 1109.04 61.7835H25.9575C15.1667 61.7835 6.41898 52.7226 6.41898 41.5453V13.1652C6.41898 11.9958 7.0343 10.9289 8.01245 10.345C9.74313 9.31162 10.8662 7.30382 10.678 5.05019C10.454 2.36824 8.35179 0.217701 5.7604 0.0160262C2.626 -0.227904 0 2.34488 0 5.54094C0 7.60922 1.09991 9.41662 2.72552 10.3683C3.69408 10.9353 4.27943 12.0128 4.27943 13.1652V41.5443C4.27943 53.9464 13.9855 64 25.9587 64H1109.04C1121.01 64 1130.72 53.9464 1130.72 41.5443V13.1652C1130.72 12.0128 1131.31 10.9353 1132.27 10.3683C1133.9 9.41662 1135 7.60922 1135 5.54094ZM2.13956 5.54094C2.13956 3.70762 3.57943 2.21651 5.34905 2.21651C7.11867 2.21651 8.55854 3.70794 8.55854 5.54094C8.55854 7.37394 7.11867 8.86537 5.34905 8.86537C3.57943 8.86537 2.13956 7.37394 2.13956 5.54094ZM1129.65 8.86537C1127.88 8.86537 1126.44 7.37394 1126.44 5.54094C1126.44 3.70794 1127.88 2.21651 1129.65 2.21651C1131.42 2.21651 1132.86 3.70794 1132.86 5.54094C1132.86 7.37394 1131.42 8.86537 1129.65 8.86537Z" fill="#FF7981"/>
<path d="M1135 5.54094C1135 2.34488 1132.37 -0.227904 1129.24 0.0160262C1126.65 0.217701 1124.55 2.36792 1124.32 5.05019C1124.13 7.30382 1125.26 9.31162 1126.99 10.345C1127.97 10.9289 1128.58 11.9958 1128.58 13.1652V41.5443C1128.58 52.7222 1119.83 61.7835 1109.04 61.7835H25.9575C15.1667 61.7835 6.41898 52.7226 6.41898 41.5453V13.1652C6.41898 11.9958 7.0343 10.9289 8.01245 10.345C9.74313 9.31162 10.8662 7.30382 10.678 5.05019C10.454 2.36824 8.35179 0.217701 5.7604 0.0160262C2.626 -0.227904 0 2.34488 0 5.54094C0 7.60922 1.09991 9.41662 2.72552 10.3683C3.69408 10.9353 4.27943 12.0128 4.27943 13.1652V41.5443C4.27943 53.9464 13.9855 64 25.9587 64H1109.04C1121.01 64 1130.72 53.9464 1130.72 41.5443V13.1652C1130.72 12.0128 1131.31 10.9353 1132.27 10.3683C1133.9 9.41662 1135 7.60922 1135 5.54094ZM2.13956 5.54094C2.13956 3.70762 3.57943 2.21651 5.34905 2.21651C7.11867 2.21651 8.55854 3.70794 8.55854 5.54094C8.55854 7.37394 7.11867 8.86537 5.34905 8.86537C3.57943 8.86537 2.13956 7.37394 2.13956 5.54094ZM1129.65 8.86537C1127.88 8.86537 1126.44 7.37394 1126.44 5.54094C1126.44 3.70794 1127.88 2.21651 1129.65 2.21651C1131.42 2.21651 1132.86 3.70794 1132.86 5.54094C1132.86 7.37394 1131.42 8.86537 1129.65 8.86537Z" fill="url(#paint0_linear)" fill-opacity="0.25"/>
<defs>
<linearGradient id="paint0_linear" x1="114.965" y1="37.0521" x2="114.965" y2="7.39988" gradientUnits="userSpaceOnUse">
<stop stop-color="#FF2969"/>
<stop offset="1" stop-color="#F77A1C"/>
</linearGradient>
</defs>
</svg>
