<svg width="556" height="540" viewBox="0 0 556 540" fill="none" xmlns="http://www.w3.org/2000/svg">
<g filter="url(#filter0_d)">
<path d="M228.566 200.284C224.857 196.192 225.166 189.868 229.258 186.158L351.24 75.5652C355.331 71.8557 361.655 72.1653 365.365 76.2569L475.958 198.239C479.668 202.33 479.358 208.654 475.266 212.364L353.285 322.957C349.193 326.667 342.869 326.357 339.159 322.265L228.566 200.284ZM361.703 128.059C357.988 123.972 351.663 123.67 347.577 127.385L280.609 188.258C276.523 191.973 276.221 198.298 279.936 202.385L340.809 269.352C344.524 273.439 350.848 273.74 354.935 270.025L421.903 209.152C425.989 205.437 426.291 199.113 422.576 195.026L361.703 128.059Z" fill="#FF7981"/>
<path d="M228.566 200.284C224.857 196.192 225.166 189.868 229.258 186.158L351.24 75.5652C355.331 71.8557 361.655 72.1653 365.365 76.2569L475.958 198.239C479.668 202.33 479.358 208.654 475.266 212.364L353.285 322.957C349.193 326.667 342.869 326.357 339.159 322.265L228.566 200.284ZM361.703 128.059C357.988 123.972 351.663 123.67 347.577 127.385L280.609 188.258C276.523 191.973 276.221 198.298 279.936 202.385L340.809 269.352C344.524 273.439 350.848 273.74 354.935 270.025L421.903 209.152C425.989 205.437 426.291 199.113 422.576 195.026L361.703 128.059Z" fill="white"/>
</g>
<g opacity="0.8">
<path d="M6.60867 3.30435C6.60867 5.12929 5.12927 6.6087 3.30433 6.6087C1.4794 6.6087 0 5.12929 0 3.30435C0 1.47941 1.4794 0 3.30433 0C5.12927 0 6.60867 1.47941 6.60867 3.30435Z" fill="#E84E57"/>
<path d="M6.60867 3.30435C6.60867 5.12929 5.12927 6.6087 3.30433 6.6087C1.4794 6.6087 0 5.12929 0 3.30435C0 1.47941 1.4794 0 3.30433 0C5.12927 0 6.60867 1.47941 6.60867 3.30435Z" fill="url(#paint0_linear)" fill-opacity="0.45"/>
<path d="M6.60867 3.30435C6.60867 5.12929 5.12927 6.6087 3.30433 6.6087C1.4794 6.6087 0 5.12929 0 3.30435C0 1.47941 1.4794 0 3.30433 0C5.12927 0 6.60867 1.47941 6.60867 3.30435Z" fill="white"/>
<path d="M55.0727 3.30435C55.0727 5.12929 53.5933 6.6087 51.7684 6.6087C49.9434 6.6087 48.464 5.12929 48.464 3.30435C48.464 1.47941 49.9434 0 51.7684 0C53.5933 0 55.0727 1.47941 55.0727 3.30435Z" fill="#E84E57"/>
<path d="M55.0727 3.30435C55.0727 5.12929 53.5933 6.6087 51.7684 6.6087C49.9434 6.6087 48.464 5.12929 48.464 3.30435C48.464 1.47941 49.9434 0 51.7684 0C53.5933 0 55.0727 1.47941 55.0727 3.30435Z" fill="url(#paint1_linear)" fill-opacity="0.45"/>
<path d="M55.0727 3.30435C55.0727 5.12929 53.5933 6.6087 51.7684 6.6087C49.9434 6.6087 48.464 5.12929 48.464 3.30435C48.464 1.47941 49.9434 0 51.7684 0C53.5933 0 55.0727 1.47941 55.0727 3.30435Z" fill="white"/>
<path d="M103.536 3.30435C103.536 5.12929 102.057 6.6087 100.232 6.6087C98.4067 6.6087 96.9273 5.12929 96.9273 3.30435C96.9273 1.47941 98.4067 0 100.232 0C102.057 0 103.536 1.47941 103.536 3.30435Z" fill="#E84E57"/>
<path d="M103.536 3.30435C103.536 5.12929 102.057 6.6087 100.232 6.6087C98.4067 6.6087 96.9273 5.12929 96.9273 3.30435C96.9273 1.47941 98.4067 0 100.232 0C102.057 0 103.536 1.47941 103.536 3.30435Z" fill="url(#paint2_linear)" fill-opacity="0.45"/>
<path d="M103.536 3.30435C103.536 5.12929 102.057 6.6087 100.232 6.6087C98.4067 6.6087 96.9273 5.12929 96.9273 3.30435C96.9273 1.47941 98.4067 0 100.232 0C102.057 0 103.536 1.47941 103.536 3.30435Z" fill="white"/>
<path d="M152 3.30435C152 5.12929 150.521 6.6087 148.696 6.6087C146.871 6.6087 145.391 5.12929 145.391 3.30435C145.391 1.47941 146.871 0 148.696 0C150.521 0 152 1.47941 152 3.30435Z" fill="#E84E57"/>
<path d="M152 3.30435C152 5.12929 150.521 6.6087 148.696 6.6087C146.871 6.6087 145.391 5.12929 145.391 3.30435C145.391 1.47941 146.871 0 148.696 0C150.521 0 152 1.47941 152 3.30435Z" fill="url(#paint3_linear)" fill-opacity="0.45"/>
<path d="M152 3.30435C152 5.12929 150.521 6.6087 148.696 6.6087C146.871 6.6087 145.391 5.12929 145.391 3.30435C145.391 1.47941 146.871 0 148.696 0C150.521 0 152 1.47941 152 3.30435Z" fill="white"/>
<path d="M6.60867 51.7681C6.60867 53.593 5.12927 55.0724 3.30433 55.0724C1.4794 55.0724 0 53.593 0 51.7681C0 49.9431 1.4794 48.4637 3.30433 48.4637C5.12927 48.4637 6.60867 49.9431 6.60867 51.7681Z" fill="#E84E57"/>
<path d="M6.60867 51.7681C6.60867 53.593 5.12927 55.0724 3.30433 55.0724C1.4794 55.0724 0 53.593 0 51.7681C0 49.9431 1.4794 48.4637 3.30433 48.4637C5.12927 48.4637 6.60867 49.9431 6.60867 51.7681Z" fill="url(#paint4_linear)" fill-opacity="0.45"/>
<path d="M6.60867 51.7681C6.60867 53.593 5.12927 55.0724 3.30433 55.0724C1.4794 55.0724 0 53.593 0 51.7681C0 49.9431 1.4794 48.4637 3.30433 48.4637C5.12927 48.4637 6.60867 49.9431 6.60867 51.7681Z" fill="white"/>
<path d="M55.0727 51.7681C55.0727 53.593 53.5933 55.0724 51.7684 55.0724C49.9434 55.0724 48.464 53.593 48.464 51.7681C48.464 49.9431 49.9434 48.4637 51.7684 48.4637C53.5933 48.4637 55.0727 49.9431 55.0727 51.7681Z" fill="#E84E57"/>
<path d="M55.0727 51.7681C55.0727 53.593 53.5933 55.0724 51.7684 55.0724C49.9434 55.0724 48.464 53.593 48.464 51.7681C48.464 49.9431 49.9434 48.4637 51.7684 48.4637C53.5933 48.4637 55.0727 49.9431 55.0727 51.7681Z" fill="url(#paint5_linear)" fill-opacity="0.45"/>
<path d="M55.0727 51.7681C55.0727 53.593 53.5933 55.0724 51.7684 55.0724C49.9434 55.0724 48.464 53.593 48.464 51.7681C48.464 49.9431 49.9434 48.4637 51.7684 48.4637C53.5933 48.4637 55.0727 49.9431 55.0727 51.7681Z" fill="white"/>
<path d="M103.536 51.7681C103.536 53.593 102.057 55.0724 100.232 55.0724C98.4067 55.0724 96.9273 53.593 96.9273 51.7681C96.9273 49.9431 98.4067 48.4637 100.232 48.4637C102.057 48.4637 103.536 49.9431 103.536 51.7681Z" fill="#E84E57"/>
<path d="M103.536 51.7681C103.536 53.593 102.057 55.0724 100.232 55.0724C98.4067 55.0724 96.9273 53.593 96.9273 51.7681C96.9273 49.9431 98.4067 48.4637 100.232 48.4637C102.057 48.4637 103.536 49.9431 103.536 51.7681Z" fill="url(#paint6_linear)" fill-opacity="0.45"/>
<path d="M103.536 51.7681C103.536 53.593 102.057 55.0724 100.232 55.0724C98.4067 55.0724 96.9273 53.593 96.9273 51.7681C96.9273 49.9431 98.4067 48.4637 100.232 48.4637C102.057 48.4637 103.536 49.9431 103.536 51.7681Z" fill="white"/>
<path d="M152 51.7681C152 53.593 150.521 55.0724 148.696 55.0724C146.871 55.0724 145.391 53.593 145.391 51.7681C145.391 49.9431 146.871 48.4637 148.696 48.4637C150.521 48.4637 152 49.9431 152 51.7681Z" fill="#E84E57"/>
<path d="M152 51.7681C152 53.593 150.521 55.0724 148.696 55.0724C146.871 55.0724 145.391 53.593 145.391 51.7681C145.391 49.9431 146.871 48.4637 148.696 48.4637C150.521 48.4637 152 49.9431 152 51.7681Z" fill="url(#paint7_linear)" fill-opacity="0.45"/>
<path d="M152 51.7681C152 53.593 150.521 55.0724 148.696 55.0724C146.871 55.0724 145.391 53.593 145.391 51.7681C145.391 49.9431 146.871 48.4637 148.696 48.4637C150.521 48.4637 152 49.9431 152 51.7681Z" fill="white"/>
<path d="M6.60867 100.232C6.60867 102.057 5.12927 103.536 3.30433 103.536C1.4794 103.536 0 102.057 0 100.232C0 98.407 1.4794 96.9276 3.30433 96.9276C5.12927 96.9276 6.60867 98.407 6.60867 100.232Z" fill="#E84E57"/>
<path d="M6.60867 100.232C6.60867 102.057 5.12927 103.536 3.30433 103.536C1.4794 103.536 0 102.057 0 100.232C0 98.407 1.4794 96.9276 3.30433 96.9276C5.12927 96.9276 6.60867 98.407 6.60867 100.232Z" fill="url(#paint8_linear)" fill-opacity="0.45"/>
<path d="M6.60867 100.232C6.60867 102.057 5.12927 103.536 3.30433 103.536C1.4794 103.536 0 102.057 0 100.232C0 98.407 1.4794 96.9276 3.30433 96.9276C5.12927 96.9276 6.60867 98.407 6.60867 100.232Z" fill="white"/>
<path d="M55.0727 100.232C55.0727 102.057 53.5933 103.536 51.7684 103.536C49.9434 103.536 48.464 102.057 48.464 100.232C48.464 98.407 49.9434 96.9276 51.7684 96.9276C53.5933 96.9276 55.0727 98.407 55.0727 100.232Z" fill="#E84E57"/>
<path d="M55.0727 100.232C55.0727 102.057 53.5933 103.536 51.7684 103.536C49.9434 103.536 48.464 102.057 48.464 100.232C48.464 98.407 49.9434 96.9276 51.7684 96.9276C53.5933 96.9276 55.0727 98.407 55.0727 100.232Z" fill="url(#paint9_linear)" fill-opacity="0.45"/>
<path d="M55.0727 100.232C55.0727 102.057 53.5933 103.536 51.7684 103.536C49.9434 103.536 48.464 102.057 48.464 100.232C48.464 98.407 49.9434 96.9276 51.7684 96.9276C53.5933 96.9276 55.0727 98.407 55.0727 100.232Z" fill="white"/>
<path d="M103.536 100.232C103.536 102.057 102.057 103.536 100.232 103.536C98.4067 103.536 96.9273 102.057 96.9273 100.232C96.9273 98.407 98.4067 96.9276 100.232 96.9276C102.057 96.9276 103.536 98.407 103.536 100.232Z" fill="#E84E57"/>
<path d="M103.536 100.232C103.536 102.057 102.057 103.536 100.232 103.536C98.4067 103.536 96.9273 102.057 96.9273 100.232C96.9273 98.407 98.4067 96.9276 100.232 96.9276C102.057 96.9276 103.536 98.407 103.536 100.232Z" fill="url(#paint10_linear)" fill-opacity="0.45"/>
<path d="M103.536 100.232C103.536 102.057 102.057 103.536 100.232 103.536C98.4067 103.536 96.9273 102.057 96.9273 100.232C96.9273 98.407 98.4067 96.9276 100.232 96.9276C102.057 96.9276 103.536 98.407 103.536 100.232Z" fill="white"/>
<path d="M152 100.232C152 102.057 150.521 103.536 148.696 103.536C146.871 103.536 145.391 102.057 145.391 100.232C145.391 98.407 146.871 96.9276 148.696 96.9276C150.521 96.9276 152 98.407 152 100.232Z" fill="#E84E57"/>
<path d="M152 100.232C152 102.057 150.521 103.536 148.696 103.536C146.871 103.536 145.391 102.057 145.391 100.232C145.391 98.407 146.871 96.9276 148.696 96.9276C150.521 96.9276 152 98.407 152 100.232Z" fill="url(#paint11_linear)" fill-opacity="0.45"/>
<path d="M152 100.232C152 102.057 150.521 103.536 148.696 103.536C146.871 103.536 145.391 102.057 145.391 100.232C145.391 98.407 146.871 96.9276 148.696 96.9276C150.521 96.9276 152 98.407 152 100.232Z" fill="white"/>
<path d="M6.60867 148.696C6.60867 150.521 5.12927 152 3.30433 152C1.4794 152 0 150.521 0 148.696C0 146.871 1.4794 145.391 3.30433 145.391C5.12927 145.391 6.60867 146.871 6.60867 148.696Z" fill="#E84E57"/>
<path d="M6.60867 148.696C6.60867 150.521 5.12927 152 3.30433 152C1.4794 152 0 150.521 0 148.696C0 146.871 1.4794 145.391 3.30433 145.391C5.12927 145.391 6.60867 146.871 6.60867 148.696Z" fill="url(#paint12_linear)" fill-opacity="0.45"/>
<path d="M6.60867 148.696C6.60867 150.521 5.12927 152 3.30433 152C1.4794 152 0 150.521 0 148.696C0 146.871 1.4794 145.391 3.30433 145.391C5.12927 145.391 6.60867 146.871 6.60867 148.696Z" fill="white"/>
<path d="M55.0727 148.696C55.0727 150.521 53.5933 152 51.7684 152C49.9434 152 48.464 150.521 48.464 148.696C48.464 146.871 49.9434 145.391 51.7684 145.391C53.5933 145.391 55.0727 146.871 55.0727 148.696Z" fill="#E84E57"/>
<path d="M55.0727 148.696C55.0727 150.521 53.5933 152 51.7684 152C49.9434 152 48.464 150.521 48.464 148.696C48.464 146.871 49.9434 145.391 51.7684 145.391C53.5933 145.391 55.0727 146.871 55.0727 148.696Z" fill="url(#paint13_linear)" fill-opacity="0.45"/>
<path d="M55.0727 148.696C55.0727 150.521 53.5933 152 51.7684 152C49.9434 152 48.464 150.521 48.464 148.696C48.464 146.871 49.9434 145.391 51.7684 145.391C53.5933 145.391 55.0727 146.871 55.0727 148.696Z" fill="white"/>
<path d="M103.536 148.696C103.536 150.521 102.057 152 100.232 152C98.4067 152 96.9273 150.521 96.9273 148.696C96.9273 146.871 98.4067 145.391 100.232 145.391C102.057 145.391 103.536 146.871 103.536 148.696Z" fill="#E84E57"/>
<path d="M103.536 148.696C103.536 150.521 102.057 152 100.232 152C98.4067 152 96.9273 150.521 96.9273 148.696C96.9273 146.871 98.4067 145.391 100.232 145.391C102.057 145.391 103.536 146.871 103.536 148.696Z" fill="url(#paint14_linear)" fill-opacity="0.45"/>
<path d="M103.536 148.696C103.536 150.521 102.057 152 100.232 152C98.4067 152 96.9273 150.521 96.9273 148.696C96.9273 146.871 98.4067 145.391 100.232 145.391C102.057 145.391 103.536 146.871 103.536 148.696Z" fill="white"/>
<path d="M152 148.696C152 150.521 150.521 152 148.696 152C146.871 152 145.391 150.521 145.391 148.696C145.391 146.871 146.871 145.391 148.696 145.391C150.521 145.391 152 146.871 152 148.696Z" fill="#E84E57"/>
<path d="M152 148.696C152 150.521 150.521 152 148.696 152C146.871 152 145.391 150.521 145.391 148.696C145.391 146.871 146.871 145.391 148.696 145.391C150.521 145.391 152 146.871 152 148.696Z" fill="url(#paint15_linear)" fill-opacity="0.45"/>
<path d="M152 148.696C152 150.521 150.521 152 148.696 152C146.871 152 145.391 150.521 145.391 148.696C145.391 146.871 146.871 145.391 148.696 145.391C150.521 145.391 152 146.871 152 148.696Z" fill="white"/>
</g>
<g opacity="0.8">
<path d="M319.609 391.304C319.609 393.129 318.129 394.609 316.304 394.609C314.479 394.609 313 393.129 313 391.304C313 389.479 314.479 388 316.304 388C318.129 388 319.609 389.479 319.609 391.304Z" fill="#E84E57"/>
<path d="M319.609 391.304C319.609 393.129 318.129 394.609 316.304 394.609C314.479 394.609 313 393.129 313 391.304C313 389.479 314.479 388 316.304 388C318.129 388 319.609 389.479 319.609 391.304Z" fill="url(#paint16_linear)" fill-opacity="0.45"/>
<path d="M319.609 391.304C319.609 393.129 318.129 394.609 316.304 394.609C314.479 394.609 313 393.129 313 391.304C313 389.479 314.479 388 316.304 388C318.129 388 319.609 389.479 319.609 391.304Z" fill="white"/>
<path d="M368.073 391.304C368.073 393.129 366.593 394.609 364.768 394.609C362.943 394.609 361.464 393.129 361.464 391.304C361.464 389.479 362.943 388 364.768 388C366.593 388 368.073 389.479 368.073 391.304Z" fill="#E84E57"/>
<path d="M368.073 391.304C368.073 393.129 366.593 394.609 364.768 394.609C362.943 394.609 361.464 393.129 361.464 391.304C361.464 389.479 362.943 388 364.768 388C366.593 388 368.073 389.479 368.073 391.304Z" fill="url(#paint17_linear)" fill-opacity="0.45"/>
<path d="M368.073 391.304C368.073 393.129 366.593 394.609 364.768 394.609C362.943 394.609 361.464 393.129 361.464 391.304C361.464 389.479 362.943 388 364.768 388C366.593 388 368.073 389.479 368.073 391.304Z" fill="white"/>
<path d="M416.536 391.304C416.536 393.129 415.057 394.609 413.232 394.609C411.407 394.609 409.927 393.129 409.927 391.304C409.927 389.479 411.407 388 413.232 388C415.057 388 416.536 389.479 416.536 391.304Z" fill="#E84E57"/>
<path d="M416.536 391.304C416.536 393.129 415.057 394.609 413.232 394.609C411.407 394.609 409.927 393.129 409.927 391.304C409.927 389.479 411.407 388 413.232 388C415.057 388 416.536 389.479 416.536 391.304Z" fill="url(#paint18_linear)" fill-opacity="0.45"/>
<path d="M416.536 391.304C416.536 393.129 415.057 394.609 413.232 394.609C411.407 394.609 409.927 393.129 409.927 391.304C409.927 389.479 411.407 388 413.232 388C415.057 388 416.536 389.479 416.536 391.304Z" fill="white"/>
<path d="M465 391.304C465 393.129 463.521 394.609 461.696 394.609C459.871 394.609 458.391 393.129 458.391 391.304C458.391 389.479 459.871 388 461.696 388C463.521 388 465 389.479 465 391.304Z" fill="#E84E57"/>
<path d="M465 391.304C465 393.129 463.521 394.609 461.696 394.609C459.871 394.609 458.391 393.129 458.391 391.304C458.391 389.479 459.871 388 461.696 388C463.521 388 465 389.479 465 391.304Z" fill="url(#paint19_linear)" fill-opacity="0.45"/>
<path d="M465 391.304C465 393.129 463.521 394.609 461.696 394.609C459.871 394.609 458.391 393.129 458.391 391.304C458.391 389.479 459.871 388 461.696 388C463.521 388 465 389.479 465 391.304Z" fill="white"/>
<path d="M319.609 439.768C319.609 441.593 318.129 443.072 316.304 443.072C314.479 443.072 313 441.593 313 439.768C313 437.943 314.479 436.464 316.304 436.464C318.129 436.464 319.609 437.943 319.609 439.768Z" fill="#E84E57"/>
<path d="M319.609 439.768C319.609 441.593 318.129 443.072 316.304 443.072C314.479 443.072 313 441.593 313 439.768C313 437.943 314.479 436.464 316.304 436.464C318.129 436.464 319.609 437.943 319.609 439.768Z" fill="url(#paint20_linear)" fill-opacity="0.45"/>
<path d="M319.609 439.768C319.609 441.593 318.129 443.072 316.304 443.072C314.479 443.072 313 441.593 313 439.768C313 437.943 314.479 436.464 316.304 436.464C318.129 436.464 319.609 437.943 319.609 439.768Z" fill="white"/>
<path d="M368.073 439.768C368.073 441.593 366.593 443.072 364.768 443.072C362.943 443.072 361.464 441.593 361.464 439.768C361.464 437.943 362.943 436.464 364.768 436.464C366.593 436.464 368.073 437.943 368.073 439.768Z" fill="#E84E57"/>
<path d="M368.073 439.768C368.073 441.593 366.593 443.072 364.768 443.072C362.943 443.072 361.464 441.593 361.464 439.768C361.464 437.943 362.943 436.464 364.768 436.464C366.593 436.464 368.073 437.943 368.073 439.768Z" fill="url(#paint21_linear)" fill-opacity="0.45"/>
<path d="M368.073 439.768C368.073 441.593 366.593 443.072 364.768 443.072C362.943 443.072 361.464 441.593 361.464 439.768C361.464 437.943 362.943 436.464 364.768 436.464C366.593 436.464 368.073 437.943 368.073 439.768Z" fill="white"/>
<path d="M416.536 439.768C416.536 441.593 415.057 443.072 413.232 443.072C411.407 443.072 409.927 441.593 409.927 439.768C409.927 437.943 411.407 436.464 413.232 436.464C415.057 436.464 416.536 437.943 416.536 439.768Z" fill="#E84E57"/>
<path d="M416.536 439.768C416.536 441.593 415.057 443.072 413.232 443.072C411.407 443.072 409.927 441.593 409.927 439.768C409.927 437.943 411.407 436.464 413.232 436.464C415.057 436.464 416.536 437.943 416.536 439.768Z" fill="url(#paint22_linear)" fill-opacity="0.45"/>
<path d="M416.536 439.768C416.536 441.593 415.057 443.072 413.232 443.072C411.407 443.072 409.927 441.593 409.927 439.768C409.927 437.943 411.407 436.464 413.232 436.464C415.057 436.464 416.536 437.943 416.536 439.768Z" fill="white"/>
<path d="M465 439.768C465 441.593 463.521 443.072 461.696 443.072C459.871 443.072 458.391 441.593 458.391 439.768C458.391 437.943 459.871 436.464 461.696 436.464C463.521 436.464 465 437.943 465 439.768Z" fill="#E84E57"/>
<path d="M465 439.768C465 441.593 463.521 443.072 461.696 443.072C459.871 443.072 458.391 441.593 458.391 439.768C458.391 437.943 459.871 436.464 461.696 436.464C463.521 436.464 465 437.943 465 439.768Z" fill="url(#paint23_linear)" fill-opacity="0.45"/>
<path d="M465 439.768C465 441.593 463.521 443.072 461.696 443.072C459.871 443.072 458.391 441.593 458.391 439.768C458.391 437.943 459.871 436.464 461.696 436.464C463.521 436.464 465 437.943 465 439.768Z" fill="white"/>
<path d="M319.609 488.232C319.609 490.057 318.129 491.536 316.304 491.536C314.479 491.536 313 490.057 313 488.232C313 486.407 314.479 484.928 316.304 484.928C318.129 484.928 319.609 486.407 319.609 488.232Z" fill="#E84E57"/>
<path d="M319.609 488.232C319.609 490.057 318.129 491.536 316.304 491.536C314.479 491.536 313 490.057 313 488.232C313 486.407 314.479 484.928 316.304 484.928C318.129 484.928 319.609 486.407 319.609 488.232Z" fill="url(#paint24_linear)" fill-opacity="0.45"/>
<path d="M319.609 488.232C319.609 490.057 318.129 491.536 316.304 491.536C314.479 491.536 313 490.057 313 488.232C313 486.407 314.479 484.928 316.304 484.928C318.129 484.928 319.609 486.407 319.609 488.232Z" fill="white"/>
<path d="M368.073 488.232C368.073 490.057 366.593 491.536 364.768 491.536C362.943 491.536 361.464 490.057 361.464 488.232C361.464 486.407 362.943 484.928 364.768 484.928C366.593 484.928 368.073 486.407 368.073 488.232Z" fill="#E84E57"/>
<path d="M368.073 488.232C368.073 490.057 366.593 491.536 364.768 491.536C362.943 491.536 361.464 490.057 361.464 488.232C361.464 486.407 362.943 484.928 364.768 484.928C366.593 484.928 368.073 486.407 368.073 488.232Z" fill="url(#paint25_linear)" fill-opacity="0.45"/>
<path d="M368.073 488.232C368.073 490.057 366.593 491.536 364.768 491.536C362.943 491.536 361.464 490.057 361.464 488.232C361.464 486.407 362.943 484.928 364.768 484.928C366.593 484.928 368.073 486.407 368.073 488.232Z" fill="white"/>
<path d="M416.536 488.232C416.536 490.057 415.057 491.536 413.232 491.536C411.407 491.536 409.927 490.057 409.927 488.232C409.927 486.407 411.407 484.928 413.232 484.928C415.057 484.928 416.536 486.407 416.536 488.232Z" fill="#E84E57"/>
<path d="M416.536 488.232C416.536 490.057 415.057 491.536 413.232 491.536C411.407 491.536 409.927 490.057 409.927 488.232C409.927 486.407 411.407 484.928 413.232 484.928C415.057 484.928 416.536 486.407 416.536 488.232Z" fill="url(#paint26_linear)" fill-opacity="0.45"/>
<path d="M416.536 488.232C416.536 490.057 415.057 491.536 413.232 491.536C411.407 491.536 409.927 490.057 409.927 488.232C409.927 486.407 411.407 484.928 413.232 484.928C415.057 484.928 416.536 486.407 416.536 488.232Z" fill="white"/>
<path d="M465 488.232C465 490.057 463.521 491.536 461.696 491.536C459.871 491.536 458.391 490.057 458.391 488.232C458.391 486.407 459.871 484.928 461.696 484.928C463.521 484.928 465 486.407 465 488.232Z" fill="#E84E57"/>
<path d="M465 488.232C465 490.057 463.521 491.536 461.696 491.536C459.871 491.536 458.391 490.057 458.391 488.232C458.391 486.407 459.871 484.928 461.696 484.928C463.521 484.928 465 486.407 465 488.232Z" fill="url(#paint27_linear)" fill-opacity="0.45"/>
<path d="M465 488.232C465 490.057 463.521 491.536 461.696 491.536C459.871 491.536 458.391 490.057 458.391 488.232C458.391 486.407 459.871 484.928 461.696 484.928C463.521 484.928 465 486.407 465 488.232Z" fill="white"/>
<path d="M319.609 536.696C319.609 538.521 318.129 540 316.304 540C314.479 540 313 538.521 313 536.696C313 534.871 314.479 533.391 316.304 533.391C318.129 533.391 319.609 534.871 319.609 536.696Z" fill="#E84E57"/>
<path d="M319.609 536.696C319.609 538.521 318.129 540 316.304 540C314.479 540 313 538.521 313 536.696C313 534.871 314.479 533.391 316.304 533.391C318.129 533.391 319.609 534.871 319.609 536.696Z" fill="url(#paint28_linear)" fill-opacity="0.45"/>
<path d="M319.609 536.696C319.609 538.521 318.129 540 316.304 540C314.479 540 313 538.521 313 536.696C313 534.871 314.479 533.391 316.304 533.391C318.129 533.391 319.609 534.871 319.609 536.696Z" fill="white"/>
<path d="M368.073 536.696C368.073 538.521 366.593 540 364.768 540C362.943 540 361.464 538.521 361.464 536.696C361.464 534.871 362.943 533.391 364.768 533.391C366.593 533.391 368.073 534.871 368.073 536.696Z" fill="#E84E57"/>
<path d="M368.073 536.696C368.073 538.521 366.593 540 364.768 540C362.943 540 361.464 538.521 361.464 536.696C361.464 534.871 362.943 533.391 364.768 533.391C366.593 533.391 368.073 534.871 368.073 536.696Z" fill="url(#paint29_linear)" fill-opacity="0.45"/>
<path d="M368.073 536.696C368.073 538.521 366.593 540 364.768 540C362.943 540 361.464 538.521 361.464 536.696C361.464 534.871 362.943 533.391 364.768 533.391C366.593 533.391 368.073 534.871 368.073 536.696Z" fill="white"/>
<path d="M416.536 536.696C416.536 538.521 415.057 540 413.232 540C411.407 540 409.927 538.521 409.927 536.696C409.927 534.871 411.407 533.391 413.232 533.391C415.057 533.391 416.536 534.871 416.536 536.696Z" fill="#E84E57"/>
<path d="M416.536 536.696C416.536 538.521 415.057 540 413.232 540C411.407 540 409.927 538.521 409.927 536.696C409.927 534.871 411.407 533.391 413.232 533.391C415.057 533.391 416.536 534.871 416.536 536.696Z" fill="url(#paint30_linear)" fill-opacity="0.45"/>
<path d="M416.536 536.696C416.536 538.521 415.057 540 413.232 540C411.407 540 409.927 538.521 409.927 536.696C409.927 534.871 411.407 533.391 413.232 533.391C415.057 533.391 416.536 534.871 416.536 536.696Z" fill="white"/>
<path d="M465 536.696C465 538.521 463.521 540 461.696 540C459.871 540 458.391 538.521 458.391 536.696C458.391 534.871 459.871 533.391 461.696 533.391C463.521 533.391 465 534.871 465 536.696Z" fill="#E84E57"/>
<path d="M465 536.696C465 538.521 463.521 540 461.696 540C459.871 540 458.391 538.521 458.391 536.696C458.391 534.871 459.871 533.391 461.696 533.391C463.521 533.391 465 534.871 465 536.696Z" fill="url(#paint31_linear)" fill-opacity="0.45"/>
<path d="M465 536.696C465 538.521 463.521 540 461.696 540C459.871 540 458.391 538.521 458.391 536.696C458.391 534.871 459.871 533.391 461.696 533.391C463.521 533.391 465 534.871 465 536.696Z" fill="white"/>
</g>
<defs>
<filter id="filter0_d" x="133.516" y="24.5151" width="421.492" height="421.492" filterUnits="userSpaceOnUse" color-interpolation-filters="sRGB">
<feFlood flood-opacity="0" result="BackgroundImageFix"/>
<feColorMatrix in="SourceAlpha" type="matrix" values="0 0 0 0 0 0 0 0 0 0 0 0 0 0 0 0 0 0 127 0"/>
<feOffset dx="-8" dy="36"/>
<feGaussianBlur stdDeviation="31"/>
<feColorMatrix type="matrix" values="0 0 0 0 1 0 0 0 0 0.290196 0 0 0 0 0.415686 0 0 0 0.39 0"/>
<feBlend mode="normal" in2="BackgroundImageFix" result="effect1_dropShadow"/>
<feBlend mode="normal" in="SourceGraphic" in2="effect1_dropShadow" result="shape"/>
</filter>
<linearGradient id="paint0_linear" x1="120.105" y1="98.4293" x2="44.6399" y2="42.3075" gradientUnits="userSpaceOnUse">
<stop stop-color="#FF2969"/>
<stop offset="1" stop-color="#F77A1C"/>
</linearGradient>
<linearGradient id="paint1_linear" x1="120.105" y1="98.4293" x2="44.6399" y2="42.3075" gradientUnits="userSpaceOnUse">
<stop stop-color="#FF2969"/>
<stop offset="1" stop-color="#F77A1C"/>
</linearGradient>
<linearGradient id="paint2_linear" x1="120.105" y1="98.4293" x2="44.6399" y2="42.3075" gradientUnits="userSpaceOnUse">
<stop stop-color="#FF2969"/>
<stop offset="1" stop-color="#F77A1C"/>
</linearGradient>
<linearGradient id="paint3_linear" x1="120.105" y1="98.4293" x2="44.6399" y2="42.3075" gradientUnits="userSpaceOnUse">
<stop stop-color="#FF2969"/>
<stop offset="1" stop-color="#F77A1C"/>
</linearGradient>
<linearGradient id="paint4_linear" x1="120.105" y1="98.4293" x2="44.6399" y2="42.3075" gradientUnits="userSpaceOnUse">
<stop stop-color="#FF2969"/>
<stop offset="1" stop-color="#F77A1C"/>
</linearGradient>
<linearGradient id="paint5_linear" x1="120.105" y1="98.4293" x2="44.6399" y2="42.3075" gradientUnits="userSpaceOnUse">
<stop stop-color="#FF2969"/>
<stop offset="1" stop-color="#F77A1C"/>
</linearGradient>
<linearGradient id="paint6_linear" x1="120.105" y1="98.4293" x2="44.6399" y2="42.3075" gradientUnits="userSpaceOnUse">
<stop stop-color="#FF2969"/>
<stop offset="1" stop-color="#F77A1C"/>
</linearGradient>
<linearGradient id="paint7_linear" x1="120.105" y1="98.4293" x2="44.6399" y2="42.3075" gradientUnits="userSpaceOnUse">
<stop stop-color="#FF2969"/>
<stop offset="1" stop-color="#F77A1C"/>
</linearGradient>
<linearGradient id="paint8_linear" x1="120.105" y1="98.4293" x2="44.6399" y2="42.3075" gradientUnits="userSpaceOnUse">
<stop stop-color="#FF2969"/>
<stop offset="1" stop-color="#F77A1C"/>
</linearGradient>
<linearGradient id="paint9_linear" x1="120.105" y1="98.4293" x2="44.6399" y2="42.3075" gradientUnits="userSpaceOnUse">
<stop stop-color="#FF2969"/>
<stop offset="1" stop-color="#F77A1C"/>
</linearGradient>
<linearGradient id="paint10_linear" x1="120.105" y1="98.4293" x2="44.6399" y2="42.3075" gradientUnits="userSpaceOnUse">
<stop stop-color="#FF2969"/>
<stop offset="1" stop-color="#F77A1C"/>
</linearGradient>
<linearGradient id="paint11_linear" x1="120.105" y1="98.4293" x2="44.6399" y2="42.3075" gradientUnits="userSpaceOnUse">
<stop stop-color="#FF2969"/>
<stop offset="1" stop-color="#F77A1C"/>
</linearGradient>
<linearGradient id="paint12_linear" x1="120.105" y1="98.4293" x2="44.6399" y2="42.3075" gradientUnits="userSpaceOnUse">
<stop stop-color="#FF2969"/>
<stop offset="1" stop-color="#F77A1C"/>
</linearGradient>
<linearGradient id="paint13_linear" x1="120.105" y1="98.4293" x2="44.6399" y2="42.3075" gradientUnits="userSpaceOnUse">
<stop stop-color="#FF2969"/>
<stop offset="1" stop-color="#F77A1C"/>
</linearGradient>
<linearGradient id="paint14_linear" x1="120.105" y1="98.4293" x2="44.6399" y2="42.3075" gradientUnits="userSpaceOnUse">
<stop stop-color="#FF2969"/>
<stop offset="1" stop-color="#F77A1C"/>
</linearGradient>
<linearGradient id="paint15_linear" x1="120.105" y1="98.4293" x2="44.6399" y2="42.3075" gradientUnits="userSpaceOnUse">
<stop stop-color="#FF2969"/>
<stop offset="1" stop-color="#F77A1C"/>
</linearGradient>
<linearGradient id="paint16_linear" x1="433.105" y1="486.429" x2="357.64" y2="430.307" gradientUnits="userSpaceOnUse">
<stop stop-color="#FF2969"/>
<stop offset="1" stop-color="#F77A1C"/>
</linearGradient>
<linearGradient id="paint17_linear" x1="433.105" y1="486.429" x2="357.64" y2="430.307" gradientUnits="userSpaceOnUse">
<stop stop-color="#FF2969"/>
<stop offset="1" stop-color="#F77A1C"/>
</linearGradient>
<linearGradient id="paint18_linear" x1="433.105" y1="486.429" x2="357.64" y2="430.307" gradientUnits="userSpaceOnUse">
<stop stop-color="#FF2969"/>
<stop offset="1" stop-color="#F77A1C"/>
</linearGradient>
<linearGradient id="paint19_linear" x1="433.105" y1="486.429" x2="357.64" y2="430.307" gradientUnits="userSpaceOnUse">
<stop stop-color="#FF2969"/>
<stop offset="1" stop-color="#F77A1C"/>
</linearGradient>
<linearGradient id="paint20_linear" x1="433.105" y1="486.429" x2="357.64" y2="430.307" gradientUnits="userSpaceOnUse">
<stop stop-color="#FF2969"/>
<stop offset="1" stop-color="#F77A1C"/>
</linearGradient>
<linearGradient id="paint21_linear" x1="433.105" y1="486.429" x2="357.64" y2="430.307" gradientUnits="userSpaceOnUse">
<stop stop-color="#FF2969"/>
<stop offset="1" stop-color="#F77A1C"/>
</linearGradient>
<linearGradient id="paint22_linear" x1="433.105" y1="486.429" x2="357.64" y2="430.307" gradientUnits="userSpaceOnUse">
<stop stop-color="#FF2969"/>
<stop offset="1" stop-color="#F77A1C"/>
</linearGradient>
<linearGradient id="paint23_linear" x1="433.105" y1="486.429" x2="357.64" y2="430.307" gradientUnits="userSpaceOnUse">
<stop stop-color="#FF2969"/>
<stop offset="1" stop-color="#F77A1C"/>
</linearGradient>
<linearGradient id="paint24_linear" x1="433.105" y1="486.429" x2="357.64" y2="430.307" gradientUnits="userSpaceOnUse">
<stop stop-color="#FF2969"/>
<stop offset="1" stop-color="#F77A1C"/>
</linearGradient>
<linearGradient id="paint25_linear" x1="433.105" y1="486.429" x2="357.64" y2="430.307" gradientUnits="userSpaceOnUse">
<stop stop-color="#FF2969"/>
<stop offset="1" stop-color="#F77A1C"/>
</linearGradient>
<linearGradient id="paint26_linear" x1="433.105" y1="486.429" x2="357.64" y2="430.307" gradientUnits="userSpaceOnUse">
<stop stop-color="#FF2969"/>
<stop offset="1" stop-color="#F77A1C"/>
</linearGradient>
<linearGradient id="paint27_linear" x1="433.105" y1="486.429" x2="357.64" y2="430.307" gradientUnits="userSpaceOnUse">
<stop stop-color="#FF2969"/>
<stop offset="1" stop-color="#F77A1C"/>
</linearGradient>
<linearGradient id="paint28_linear" x1="433.105" y1="486.429" x2="357.64" y2="430.307" gradientUnits="userSpaceOnUse">
<stop stop-color="#FF2969"/>
<stop offset="1" stop-color="#F77A1C"/>
</linearGradient>
<linearGradient id="paint29_linear" x1="433.105" y1="486.429" x2="357.64" y2="430.307" gradientUnits="userSpaceOnUse">
<stop stop-color="#FF2969"/>
<stop offset="1" stop-color="#F77A1C"/>
</linearGradient>
<linearGradient id="paint30_linear" x1="433.105" y1="486.429" x2="357.64" y2="430.307" gradientUnits="userSpaceOnUse">
<stop stop-color="#FF2969"/>
<stop offset="1" stop-color="#F77A1C"/>
</linearGradient>
<linearGradient id="paint31_linear" x1="433.105" y1="486.429" x2="357.64" y2="430.307" gradientUnits="userSpaceOnUse">
<stop stop-color="#FF2969"/>
<stop offset="1" stop-color="#F77A1C"/>
</linearGradient>
</defs>
</svg>
