<svg width="148" height="146" viewBox="0 0 148 146" fill="none" xmlns="http://www.w3.org/2000/svg">
<g clip-path="url(#clip0)">
<g opacity="0.1">
<path fill-rule="evenodd" clip-rule="evenodd" d="M118.74 50.41C125.825 63.6191 140.559 74.5108 138.851 89.398C137.105 104.618 124.506 118.223 110.314 123.869C96.8347 129.231 82.8082 118.332 68.3238 117.454C54.2046 116.598 37.1667 128.649 26.9566 118.814C16.4819 108.724 25.3436 90.7951 25.5416 76.2433C25.6748 66.455 24.7338 56.9435 27.9245 47.6976C31.1843 38.2515 35.8862 29.2051 43.8475 23.1973C52.1357 16.943 62.3725 13.9439 72.753 13.8694C83.5549 13.7919 94.6367 16.0381 103.111 22.772C111.597 29.5145 113.611 40.8492 118.74 50.41Z" fill="#FF657B"/>
<path fill-rule="evenodd" clip-rule="evenodd" d="M118.74 50.41C125.825 63.6191 140.559 74.5108 138.851 89.398C137.105 104.618 124.506 118.223 110.314 123.869C96.8347 129.231 82.8082 118.332 68.3238 117.454C54.2046 116.598 37.1667 128.649 26.9566 118.814C16.4819 108.724 25.3436 90.7951 25.5416 76.2433C25.6748 66.455 24.7338 56.9435 27.9245 47.6976C31.1843 38.2515 35.8862 29.2051 43.8475 23.1973C52.1357 16.943 62.3725 13.9439 72.753 13.8694C83.5549 13.7919 94.6367 16.0381 103.111 22.772C111.597 29.5145 113.611 40.8492 118.74 50.41Z" fill="url(#paint0_linear)"/>
</g>
<path d="M110.623 26.8223C110.525 26.8223 110.427 26.8264 110.328 26.8348C109.747 26.8827 96.7529 28.0754 91.8701 37.5509L74.2368 35.759C69.9636 35.3251 65.7757 36.8185 62.7479 39.8511L32.3255 70.1729C26.7955 75.7125 26.7976 84.7228 32.3296 90.2597L55.6635 113.613C58.4663 116.418 62.1432 117.822 65.8076 117.822C69.4213 117.822 73.0232 116.456 75.7622 113.72C77.15 112.333 77.1514 110.083 75.7642 108.695C74.3778 107.307 72.1276 107.306 70.7398 108.693C67.9953 111.435 63.4867 111.389 60.6908 108.59L37.3562 85.2366C34.5902 82.4685 34.5895 77.9633 37.3478 75.2001L67.771 44.8776C69.288 43.3585 71.3827 42.6115 73.5183 42.8281L100.553 45.5761L100.905 49.0308C95.9809 50.8664 91.2945 51.1594 91.1876 51.1657C89.2304 51.2712 87.728 52.9423 87.8308 54.9002C87.9307 56.7963 89.4991 58.2667 91.3757 58.2667C91.4389 58.2667 91.5021 58.2653 91.5653 58.2619C91.793 58.2501 96.3398 57.9897 101.645 56.2922L103.299 72.5334C103.516 74.6648 102.773 76.756 101.259 78.273L83.9262 95.3522C82.5286 96.7289 82.5119 98.9791 83.8887 100.377C85.2661 101.774 87.5156 101.791 88.9131 100.413L106.257 83.3246C106.262 83.319 106.268 83.3134 106.274 83.3072C109.311 80.2732 110.804 76.0839 110.368 71.8134L108.482 53.2957C110.872 51.8967 112.886 50.2485 114.497 48.3698C117.573 44.7797 119.132 40.4391 119.128 35.4695V35.3278C119.128 30.638 115.313 26.8223 110.623 26.8223V26.8223ZM112.022 35.4716C112.025 39.4428 110.587 42.665 107.659 45.2129L107.329 41.9742C107.158 40.2968 105.831 38.97 104.153 38.7992L100.032 38.3806C103.669 34.9092 109.678 34.0601 110.751 33.9337C111.463 33.999 112.022 34.5995 112.022 35.3278V35.4716ZM83.227 78.8777C81.8399 80.2656 79.5904 80.2656 78.2025 78.8777C76.8147 77.4899 76.8147 75.2404 78.2025 73.8532C78.5816 73.4742 78.6503 73.0347 78.6413 72.7327C78.6274 72.2474 78.4157 71.776 78.0456 71.4066L75.8691 69.2294C75.3046 68.6649 74.5784 68.3497 73.8244 68.3414C73.2954 68.3365 72.5407 68.4733 71.8541 69.1606L71.2931 69.7216C70.135 70.879 70.0927 72.7917 71.1994 73.8991L73.5016 76.2006C75.3879 78.0869 76.4412 80.5759 76.4689 83.21C76.496 85.8809 75.4664 88.3976 73.5675 90.2958L73.3058 90.5575C71.3854 92.4786 68.9117 93.436 66.4221 93.436C64.3073 93.4367 62.1821 92.7431 60.3721 91.365L58.8843 92.8007C58.1949 93.4658 57.3055 93.7963 56.4175 93.7963C55.4872 93.7963 54.5576 93.4332 53.8605 92.7105C52.4977 91.2983 52.5386 89.0489 53.9508 87.6867L55.2824 86.4016C53.7841 84.7784 52.9378 82.7122 52.8913 80.5412C52.8413 78.1751 53.7432 75.9416 55.4317 74.2531C56.8195 72.866 59.069 72.866 60.4568 74.2531C61.844 75.641 61.844 77.8904 60.4568 79.2783C60.1416 79.5928 59.9868 79.967 59.9958 80.3898C60.0056 80.8439 60.2083 81.2917 60.5679 81.6507L64.3101 85.3928C65.482 86.5647 67.1892 86.6244 68.2813 85.533L68.5431 85.2706C69.0797 84.7346 69.3706 84.0292 69.363 83.2836C69.3547 82.5199 69.0402 81.7888 68.4771 81.2258L66.1742 78.9235C62.2779 75.0266 62.3203 68.6448 66.2679 64.6964L66.8296 64.1354C68.7021 62.263 71.1709 61.2355 73.7918 61.2355H73.9015C75.7136 61.2556 77.4583 61.7652 78.9864 62.7004L80.5124 61.1244C81.878 59.7143 84.1268 59.6782 85.5369 61.0431C86.9463 62.4081 86.9824 64.6575 85.6174 66.0676L84.1108 67.6235C85.121 69.0641 85.6924 70.7575 85.7445 72.5244C85.8146 74.928 84.921 77.1844 83.227 78.8777Z" fill="black"/>
<path d="M110.623 26.8223C110.525 26.8223 110.427 26.8264 110.328 26.8348C109.747 26.8827 96.7529 28.0754 91.8701 37.5509L74.2368 35.759C69.9636 35.3251 65.7757 36.8185 62.7479 39.8511L32.3255 70.1729C26.7955 75.7125 26.7976 84.7228 32.3296 90.2597L55.6635 113.613C58.4663 116.418 62.1432 117.822 65.8076 117.822C69.4213 117.822 73.0232 116.456 75.7622 113.72C77.15 112.333 77.1514 110.083 75.7642 108.695C74.3778 107.307 72.1276 107.306 70.7398 108.693C67.9953 111.435 63.4867 111.389 60.6908 108.59L37.3562 85.2366C34.5902 82.4685 34.5895 77.9633 37.3478 75.2001L67.771 44.8776C69.288 43.3585 71.3827 42.6115 73.5183 42.8281L100.553 45.5761L100.905 49.0308C95.9809 50.8664 91.2945 51.1594 91.1876 51.1657C89.2304 51.2712 87.728 52.9423 87.8308 54.9002C87.9307 56.7963 89.4991 58.2667 91.3757 58.2667C91.4389 58.2667 91.5021 58.2653 91.5653 58.2619C91.793 58.2501 96.3398 57.9897 101.645 56.2922L103.299 72.5334C103.516 74.6648 102.773 76.756 101.259 78.273L83.9262 95.3522C82.5286 96.7289 82.5119 98.9791 83.8887 100.377C85.2661 101.774 87.5156 101.791 88.9131 100.413L106.257 83.3246C106.262 83.319 106.268 83.3134 106.274 83.3072C109.311 80.2732 110.804 76.0839 110.368 71.8134L108.482 53.2957C110.872 51.8967 112.886 50.2485 114.497 48.3698C117.573 44.7797 119.132 40.4391 119.128 35.4695V35.3278C119.128 30.638 115.313 26.8223 110.623 26.8223V26.8223ZM112.022 35.4716C112.025 39.4428 110.587 42.665 107.659 45.2129L107.329 41.9742C107.158 40.2968 105.831 38.97 104.153 38.7992L100.032 38.3806C103.669 34.9092 109.678 34.0601 110.751 33.9337C111.463 33.999 112.022 34.5995 112.022 35.3278V35.4716ZM83.227 78.8777C81.8399 80.2656 79.5904 80.2656 78.2025 78.8777C76.8147 77.4899 76.8147 75.2404 78.2025 73.8532C78.5816 73.4742 78.6503 73.0347 78.6413 72.7327C78.6274 72.2474 78.4157 71.776 78.0456 71.4066L75.8691 69.2294C75.3046 68.6649 74.5784 68.3497 73.8244 68.3414C73.2954 68.3365 72.5407 68.4733 71.8541 69.1606L71.2931 69.7216C70.135 70.879 70.0927 72.7917 71.1994 73.8991L73.5016 76.2006C75.3879 78.0869 76.4412 80.5759 76.4689 83.21C76.496 85.8809 75.4664 88.3976 73.5675 90.2958L73.3058 90.5575C71.3854 92.4786 68.9117 93.436 66.4221 93.436C64.3073 93.4367 62.1821 92.7431 60.3721 91.365L58.8843 92.8007C58.1949 93.4658 57.3055 93.7963 56.4175 93.7963C55.4872 93.7963 54.5576 93.4332 53.8605 92.7105C52.4977 91.2983 52.5386 89.0489 53.9508 87.6867L55.2824 86.4016C53.7841 84.7784 52.9378 82.7122 52.8913 80.5412C52.8413 78.1751 53.7432 75.9416 55.4317 74.2531C56.8195 72.866 59.069 72.866 60.4568 74.2531C61.844 75.641 61.844 77.8904 60.4568 79.2783C60.1416 79.5928 59.9868 79.967 59.9958 80.3898C60.0056 80.8439 60.2083 81.2917 60.5679 81.6507L64.3101 85.3928C65.482 86.5647 67.1892 86.6244 68.2813 85.533L68.5431 85.2706C69.0797 84.7346 69.3706 84.0292 69.363 83.2836C69.3547 82.5199 69.0402 81.7888 68.4771 81.2258L66.1742 78.9235C62.2779 75.0266 62.3203 68.6448 66.2679 64.6964L66.8296 64.1354C68.7021 62.263 71.1709 61.2355 73.7918 61.2355H73.9015C75.7136 61.2556 77.4583 61.7652 78.9864 62.7004L80.5124 61.1244C81.878 59.7143 84.1268 59.6782 85.5369 61.0431C86.9463 62.4081 86.9824 64.6575 85.6174 66.0676L84.1108 67.6235C85.121 69.0641 85.6924 70.7575 85.7445 72.5244C85.8146 74.928 84.921 77.1844 83.227 78.8777Z" fill="url(#paint1_linear)"/>
</g>
<defs>
<linearGradient id="paint0_linear" x1="131.449" y1="56.9132" x2="-57.339" y2="112.735" gradientUnits="userSpaceOnUse">
<stop stop-color="#FFB547"/>
<stop offset="1" stop-color="#FF6767"/>
</linearGradient>
<linearGradient id="paint1_linear" x1="73.6537" y1="26.8223" x2="76.1887" y2="176.809" gradientUnits="userSpaceOnUse">
<stop stop-color="#FFB547"/>
<stop offset="1" stop-color="#FF6767"/>
</linearGradient>
<clipPath id="clip0">
<rect width="146.606" height="145.607" fill="white" transform="translate(0.602539 0.0601807)"/>
</clipPath>
</defs>
</svg>
