<svg width="46" height="41" viewBox="0 0 46 41" fill="none" xmlns="http://www.w3.org/2000/svg">
<path fill-rule="evenodd" clip-rule="evenodd" d="M30.9071 33.5087C29.3786 34.4418 27.3359 33.9431 26.3512 32.3903L13.7725 12.5546C12.7899 11.005 13.2312 8.98541 14.7629 8.05035C16.2962 7.11432 18.3342 7.61594 19.3189 9.16871L31.8975 29.0045C32.8832 30.5588 32.4404 32.5727 30.9071 33.5087Z" fill="#FE6B74"/>
<path fill-rule="evenodd" clip-rule="evenodd" d="M34.6337 17.4642L14.7025 29.9363C13.1455 30.9106 11.0635 30.3917 10.059 28.7726C9.05649 27.1569 9.50483 25.05 11.0651 24.0736L30.9963 11.6015C32.5533 10.6272 34.6353 11.1461 35.6398 12.7652C36.6406 14.3889 36.1907 16.4898 34.6337 17.4642Z" fill="#FE6B74"/>
</svg>
