<svg width="31" height="216" viewBox="0 0 31 216" fill="none" xmlns="http://www.w3.org/2000/svg">
<path d="M18.6571 171.588V42.0898C18.6571 35.4816 21.0582 29.0245 25.6535 24.2757C28.2442 21.5979 29.7736 17.8894 29.5561 13.8315C29.184 6.87304 23.6017 1.18364 16.6516 0.687541C8.50567 0.10585 1.69092 6.56909 1.69092 14.5931C1.69092 18.2868 3.13563 21.6494 5.48961 24.1456C9.96872 28.8952 12.6101 35.0815 12.6101 41.6094V171.023C12.6101 177.992 9.94773 184.767 4.95852 189.632C1.85598 192.658 0.0462052 197.002 0.446251 201.75C1.06379 209.082 7.01028 214.97 14.3482 215.521C23.2078 216.187 30.6296 209.167 30.6296 200.447C30.6296 196.213 28.88 192.382 26.0666 189.635C21.2311 184.916 18.6571 178.344 18.6571 171.588ZM7.73788 14.5922C7.73788 10.2392 11.2798 6.69749 15.6331 6.69749C19.9864 6.69749 23.5283 10.2392 23.5283 14.5922C23.5283 18.9453 19.9864 22.487 15.6331 22.487C11.2798 22.487 7.73788 18.9453 7.73788 14.5922ZM15.51 209.517C10.5076 209.517 6.43904 205.448 6.43904 200.447C6.43904 195.446 10.5085 191.377 15.51 191.377C20.5114 191.377 24.5817 195.446 24.5817 200.447C24.5817 205.448 20.5123 209.517 15.51 209.517Z" fill="#50A866"/>
</svg>
