<svg width="458" height="216" viewBox="0 0 458 216" fill="none" xmlns="http://www.w3.org/2000/svg">
<path d="M445.421 171.588V149.723C445.421 121.807 422.789 99.176 394.871 99.176H61.4819C36.9044 99.176 16.9799 79.2527 16.9799 54.6766V42.09C16.9799 35.4817 19.381 29.0255 23.9763 24.2759C26.567 21.5989 28.0964 17.8895 27.8798 13.8316C27.5077 6.87318 21.9263 1.18291 14.9762 0.686813C6.82937 0.105122 0.0146484 6.56749 0.0146484 14.5924C0.0146484 18.286 1.45932 21.6478 3.81243 24.144C8.29067 28.8936 10.932 35.0791 10.932 41.6069V54.6766C10.932 82.5926 33.5643 105.224 61.4819 105.224H394.872C419.45 105.224 439.374 125.147 439.374 149.723V171.023C439.374 177.991 436.712 184.766 431.723 189.632C428.621 192.657 426.812 197.001 427.211 201.749C427.828 209.082 433.774 214.969 441.112 215.52C449.972 216.186 457.393 209.166 457.393 200.446C457.393 196.213 455.644 192.381 452.831 189.634C447.995 184.915 445.421 178.344 445.421 171.588ZM6.0616 14.5924C6.0616 10.2393 9.60349 6.69762 13.9568 6.69762C18.3102 6.69762 21.8521 10.2393 21.8521 14.5924C21.8521 18.9455 18.3102 22.4871 13.9568 22.4871C9.60349 22.4871 6.0616 18.9455 6.0616 14.5924ZM442.275 209.517C437.273 209.517 433.204 205.448 433.204 200.447C433.204 195.446 437.273 191.377 442.275 191.377C447.277 191.377 451.346 195.446 451.346 200.447C451.346 205.448 447.276 209.517 442.275 209.517Z" fill="#FFA63D"/>
<path d="M445.421 171.588V149.723C445.421 121.807 422.789 99.176 394.871 99.176H61.4819C36.9044 99.176 16.9799 79.2527 16.9799 54.6766V42.09C16.9799 35.4817 19.381 29.0255 23.9763 24.2759C26.567 21.5989 28.0964 17.8895 27.8798 13.8316C27.5077 6.87318 21.9263 1.18291 14.9762 0.686813C6.82937 0.105122 0.0146484 6.56749 0.0146484 14.5924C0.0146484 18.286 1.45932 21.6478 3.81243 24.144C8.29067 28.8936 10.932 35.0791 10.932 41.6069V54.6766C10.932 82.5926 33.5643 105.224 61.4819 105.224H394.872C419.45 105.224 439.374 125.147 439.374 149.723V171.023C439.374 177.991 436.712 184.766 431.723 189.632C428.621 192.657 426.812 197.001 427.211 201.749C427.828 209.082 433.774 214.969 441.112 215.52C449.972 216.186 457.393 209.166 457.393 200.446C457.393 196.213 455.644 192.381 452.831 189.634C447.995 184.915 445.421 178.344 445.421 171.588ZM6.0616 14.5924C6.0616 10.2393 9.60349 6.69762 13.9568 6.69762C18.3102 6.69762 21.8521 10.2393 21.8521 14.5924C21.8521 18.9455 18.3102 22.4871 13.9568 22.4871C9.60349 22.4871 6.0616 18.9455 6.0616 14.5924ZM442.275 209.517C437.273 209.517 433.204 205.448 433.204 200.447C433.204 195.446 437.273 191.377 442.275 191.377C447.277 191.377 451.346 195.446 451.346 200.447C451.346 205.448 447.276 209.517 442.275 209.517Z" fill="url(#paint0_linear)"/>
<defs>
<linearGradient id="paint0_linear" x1="228.704" y1="0.65039" x2="231.516" y2="354.951" gradientUnits="userSpaceOnUse">
<stop stop-color="#FFB547"/>
<stop offset="1" stop-color="#FF6767"/>
</linearGradient>
</defs>
</svg>
