<svg width="307" height="307" viewBox="0 0 307 307" fill="none" xmlns="http://www.w3.org/2000/svg">
<g filter="url(#filter0_d)">
<path d="M86.7726 120.891C83.0631 116.8 83.3727 110.476 87.4643 106.766L158.048 42.7726C162.139 39.0631 168.463 39.3727 172.173 43.4643L236.166 114.048C239.876 118.139 239.566 124.463 235.475 128.173L164.891 192.166C160.8 195.876 154.476 195.566 150.766 191.475L86.7726 120.891ZM169.89 75.7997C166.175 71.7129 159.851 71.4114 155.764 75.1263L119.519 108.073C115.432 111.788 115.13 118.113 118.845 122.2L151.792 158.445C155.507 162.532 161.832 162.833 165.918 159.119L202.164 126.171C206.251 122.456 206.552 116.132 202.837 112.045L169.89 75.7997Z" fill="#FF7981"/>
<path d="M86.7726 120.891C83.0631 116.8 83.3727 110.476 87.4643 106.766L158.048 42.7726C162.139 39.0631 168.463 39.3727 172.173 43.4643L236.166 114.048C239.876 118.139 239.566 124.463 235.475 128.173L164.891 192.166C160.8 195.876 154.476 195.566 150.766 191.475L86.7726 120.891ZM169.89 75.7997C166.175 71.7129 159.851 71.4114 155.764 75.1263L119.519 108.073C115.432 111.788 115.13 118.113 118.845 122.2L151.792 158.445C155.507 162.532 161.832 162.833 165.918 159.119L202.164 126.171C206.251 122.456 206.552 116.132 202.837 112.045L169.89 75.7997Z" fill="white"/>
</g>
<defs>
<filter id="filter0_d" x="0.182251" y="0.18222" width="306.574" height="306.574" filterUnits="userSpaceOnUse" color-interpolation-filters="sRGB">
<feFlood flood-opacity="0" result="BackgroundImageFix"/>
<feColorMatrix in="SourceAlpha" type="matrix" values="0 0 0 0 0 0 0 0 0 0 0 0 0 0 0 0 0 0 127 0"/>
<feOffset dx="-8" dy="36"/>
<feGaussianBlur stdDeviation="31"/>
<feColorMatrix type="matrix" values="0 0 0 0 0.666667 0 0 0 0 0.261111 0 0 0 0 0.332812 0 0 0 0.22 0"/>
<feBlend mode="normal" in2="BackgroundImageFix" result="effect1_dropShadow"/>
<feBlend mode="normal" in="SourceGraphic" in2="effect1_dropShadow" result="shape"/>
</filter>
</defs>
</svg>
