<svg width="412" height="391" viewBox="0 0 412 391" fill="none" xmlns="http://www.w3.org/2000/svg">
<path d="M74.1575 3.42236C40.3178 3.42236 12.8857 30.8527 12.8857 64.6903V165.074C12.8857 166.744 14.2396 168.098 15.9097 168.098C17.5798 168.098 18.9337 166.744 18.9337 165.074V64.6903C18.9337 34.1926 43.6588 9.46986 74.1575 9.46986H194.178V3.42236H74.1575Z" fill="#175A87"/>
<path d="M74.1575 3.42236C40.3178 3.42236 12.8857 30.8527 12.8857 64.6903V165.074C12.8857 166.744 14.2396 168.098 15.9097 168.098C17.5798 168.098 18.9337 166.744 18.9337 165.074V64.6903C18.9337 34.1926 43.6588 9.46986 74.1575 9.46986H194.178V3.42236H74.1575Z" fill="url(#paint0_linear)"/>
<path d="M396.881 237.169C400.036 237.169 402.593 234.612 402.593 231.458C402.593 228.303 400.036 225.746 396.881 225.746C393.727 225.746 391.17 228.303 391.17 231.458C391.17 234.612 393.727 237.169 396.881 237.169Z" fill="#175A87"/>
<path d="M396.881 237.169C400.036 237.169 402.593 234.612 402.593 231.458C402.593 228.303 400.036 225.746 396.881 225.746C393.727 225.746 391.17 228.303 391.17 231.458C391.17 234.612 393.727 237.169 396.881 237.169Z" fill="url(#paint1_linear)"/>
<path d="M206.275 12.1573C209.429 12.1573 211.987 9.60034 211.987 6.44611C211.987 3.29187 209.429 0.734863 206.275 0.734863C203.121 0.734863 200.563 3.29187 200.563 6.44611C200.563 9.60034 203.121 12.1573 206.275 12.1573Z" fill="#175A87"/>
<path d="M206.275 12.1573C209.429 12.1573 211.987 9.60034 211.987 6.44611C211.987 3.29187 209.429 0.734863 206.275 0.734863C203.121 0.734863 200.563 3.29187 200.563 6.44611C200.563 9.60034 203.121 12.1573 206.275 12.1573Z" fill="url(#paint2_linear)"/>
<path d="M338.636 3.42236H221.368V9.46987H338.633C369.132 9.46987 393.857 34.1935 393.857 64.6904V130.538C393.857 132.208 395.21 133.561 396.88 133.561C398.551 133.561 399.904 132.208 399.904 130.538V64.6869C399.904 30.851 372.474 3.42236 338.636 3.42236Z" fill="#FFA63D"/>
<path d="M338.636 3.42236H221.368V9.46987H338.633C369.132 9.46987 393.857 34.1935 393.857 64.6904V130.538C393.857 132.208 395.21 133.561 396.88 133.561C398.551 133.561 399.904 132.208 399.904 130.538V64.6869C399.904 30.851 372.474 3.42236 338.636 3.42236Z" fill="url(#paint3_linear)"/>
<path d="M412 162.386C412 153.666 404.579 146.647 395.72 147.312C388.396 147.862 382.454 153.729 381.821 161.046C381.288 167.195 384.462 172.674 389.355 175.493C392.119 177.086 393.858 179.997 393.858 183.188V184.827H399.906V183.188C399.906 180.044 401.561 177.104 404.298 175.557C408.891 172.96 412 168.03 412 162.386ZM396.881 171.457C391.879 171.457 387.811 167.388 387.811 162.387C387.811 157.385 391.88 153.316 396.881 153.316C401.883 153.316 405.952 157.385 405.952 162.387C405.952 167.388 401.883 171.457 396.881 171.457Z" fill="#FF6666"/>
<path d="M396.881 168.097C393.732 168.097 391.17 165.535 391.17 162.386C391.17 159.236 393.732 156.675 396.881 156.675C400.031 156.675 402.593 159.236 402.593 162.386C402.593 165.535 400.03 168.097 396.881 168.097Z" fill="#FF6666"/>
<path d="M412 196.922C412 188.202 404.579 181.182 395.72 181.848C388.395 182.398 382.454 188.265 381.821 195.582C381.289 201.731 384.462 207.209 389.354 210.029C392.119 211.622 393.858 214.533 393.858 217.724V219.363H399.906V217.724C399.906 214.58 401.56 211.64 404.297 210.093C408.892 207.496 412 202.565 412 196.922ZM396.882 205.992C391.879 205.992 387.811 201.923 387.811 196.922C387.811 191.921 391.88 187.852 396.882 187.852C401.883 187.852 405.952 191.921 405.952 196.922C405.952 201.923 401.883 205.992 396.882 205.992Z" fill="#50A866"/>
<path d="M396.882 202.633C400.036 202.633 402.594 200.076 402.594 196.922C402.594 193.768 400.036 191.211 396.882 191.211C393.728 191.211 391.17 193.768 391.17 196.922C391.17 200.076 393.728 202.633 396.882 202.633Z" fill="#50A866"/>
<path d="M412 231.458C412 222.738 404.579 215.718 395.72 216.383C388.395 216.934 382.454 222.8 381.821 230.118C381.289 236.267 384.462 241.745 389.354 244.565C392.119 246.158 393.858 249.069 393.858 252.26V329.153C393.858 359.651 369.133 384.373 338.634 384.373H74.1584C43.6589 384.373 18.9347 359.65 18.9347 329.153V217.723C18.9347 214.533 20.6737 211.622 23.4382 210.029C28.3296 207.209 31.5038 201.73 30.9719 195.581C30.3386 188.264 24.3973 182.397 17.0725 181.847C8.21383 181.182 0.791992 188.201 0.791992 196.921C0.791992 202.565 3.9006 207.496 8.49588 210.092C11.2333 211.639 12.8877 214.579 12.8877 217.723V329.153C12.8877 362.991 40.3196 390.421 74.1593 390.421H338.638C372.476 390.421 399.906 362.991 399.906 329.156V252.26C399.906 249.115 401.561 246.175 404.298 244.629C408.892 242.032 412 237.102 412 231.458ZM6.83809 196.922C6.83809 191.92 10.9076 187.852 15.909 187.852C20.9104 187.852 24.9799 191.921 24.9799 196.922C24.9799 201.923 20.9104 205.993 15.909 205.993C10.9076 205.993 6.83809 201.923 6.83809 196.922ZM396.882 240.529C391.879 240.529 387.811 236.46 387.811 231.458C387.811 226.457 391.88 222.388 396.882 222.388C401.883 222.388 405.953 226.457 405.953 231.458C405.953 236.46 401.883 240.529 396.882 240.529Z" fill="#FFA63D"/>
<path d="M412 231.458C412 222.738 404.579 215.718 395.72 216.383C388.395 216.934 382.454 222.8 381.821 230.118C381.289 236.267 384.462 241.745 389.354 244.565C392.119 246.158 393.858 249.069 393.858 252.26V329.153C393.858 359.651 369.133 384.373 338.634 384.373H74.1584C43.6589 384.373 18.9347 359.65 18.9347 329.153V217.723C18.9347 214.533 20.6737 211.622 23.4382 210.029C28.3296 207.209 31.5038 201.73 30.9719 195.581C30.3386 188.264 24.3973 182.397 17.0725 181.847C8.21383 181.182 0.791992 188.201 0.791992 196.921C0.791992 202.565 3.9006 207.496 8.49588 210.092C11.2333 211.639 12.8877 214.579 12.8877 217.723V329.153C12.8877 362.991 40.3196 390.421 74.1593 390.421H338.638C372.476 390.421 399.906 362.991 399.906 329.156V252.26C399.906 249.115 401.561 246.175 404.298 244.629C408.892 242.032 412 237.102 412 231.458ZM6.83809 196.922C6.83809 191.92 10.9076 187.852 15.909 187.852C20.9104 187.852 24.9799 191.921 24.9799 196.922C24.9799 201.923 20.9104 205.993 15.909 205.993C10.9076 205.993 6.83809 201.923 6.83809 196.922ZM396.882 240.529C391.879 240.529 387.811 236.46 387.811 231.458C387.811 226.457 391.88 222.388 396.882 222.388C401.883 222.388 405.953 226.457 405.953 231.458C405.953 236.46 401.883 240.529 396.882 240.529Z" fill="url(#paint4_linear)"/>
<defs>
<linearGradient id="paint0_linear" x1="103.532" y1="3.42236" x2="107.697" y2="274.855" gradientUnits="userSpaceOnUse">
<stop stop-color="#FFB547"/>
<stop offset="1" stop-color="#FF6767"/>
</linearGradient>
<linearGradient id="paint1_linear" x1="396.882" y1="225.746" x2="397.2" y2="244.573" gradientUnits="userSpaceOnUse">
<stop stop-color="#FFB547"/>
<stop offset="1" stop-color="#FF6767"/>
</linearGradient>
<linearGradient id="paint2_linear" x1="206.275" y1="0.734863" x2="206.593" y2="19.5615" gradientUnits="userSpaceOnUse">
<stop stop-color="#FFB547"/>
<stop offset="1" stop-color="#FF6767"/>
</linearGradient>
<linearGradient id="paint3_linear" x1="309.136" y1="3.42236" x2="311.734" y2="217.948" gradientUnits="userSpaceOnUse">
<stop stop-color="#FFB547"/>
<stop offset="1" stop-color="#FF6767"/>
</linearGradient>
<linearGradient id="paint4_linear" x1="206.396" y1="181.803" x2="209.344" y2="525.721" gradientUnits="userSpaceOnUse">
<stop stop-color="#FFB547"/>
<stop offset="1" stop-color="#FF6767"/>
</linearGradient>
</defs>
</svg>
